<?xml version="1.0" encoding="UTF-8" standalone="no"?><svg xmlns="http://www.w3.org/2000/svg" xmlns:xlink="http://www.w3.org/1999/xlink" contentScriptType="application/ecmascript" contentStyleType="text/css" height="885px" preserveAspectRatio="none" style="width:1064px;height:885px;background:#FFFFFF;" version="1.1" viewBox="0 0 1064 885" width="1064px" zoomAndPan="magnify"><defs><filter height="300%" id="f1gjsj3a497422" width="300%" x="-1" y="-1"><feGaussianBlur result="blurOut" stdDeviation="2.0"/><feColorMatrix in="blurOut" result="blurOut2" type="matrix" values="0 0 0 0 0 0 0 0 0 0 0 0 0 0 0 0 0 0 .4 0"/><feOffset dx="4.0" dy="4.0" in="blurOut2" result="blurOut3"/><feBlend in="SourceGraphic" in2="blurOut3" mode="normal"/></filter></defs><g><rect fill="#FFFFFF" filter="url(#f1gjsj3a497422)" height="659.6406" style="stroke:#A80036;stroke-width:1.0;" width="10" x="97.5" y="121.9609"/><rect fill="#FFFFFF" filter="url(#f1gjsj3a497422)" height="598.9375" style="stroke:#A80036;stroke-width:1.0;" width="10" x="250.5" y="152.3125"/><rect fill="#FFFFFF" filter="url(#f1gjsj3a497422)" height="30.3516" style="stroke:#A80036;stroke-width:1.0;" width="10" x="392" y="254.625"/><rect fill="#FFFFFF" filter="url(#f1gjsj3a497422)" height="91.0547" style="stroke:#A80036;stroke-width:1.0;" width="10" x="488" y="315.3281"/><rect fill="#FFFFFF" filter="url(#f1gjsj3a497422)" height="30.3516" style="stroke:#A80036;stroke-width:1.0;" width="10" x="918" y="345.6797"/><rect fill="#FFFFFF" filter="url(#f1gjsj3a497422)" height="30.3516" style="stroke:#A80036;stroke-width:1.0;" width="10" x="989.5" y="487.4375"/><rect fill="#FFFFFF" filter="url(#f1gjsj3a497422)" height="30.3516" style="stroke:#A80036;stroke-width:1.0;" width="10" x="989.5" y="548.1406"/><rect fill="#FFFFFF" filter="url(#f1gjsj3a497422)" height="30.3516" style="stroke:#A80036;stroke-width:1.0;" width="10" x="989.5" y="608.8438"/><rect fill="#FFFFFF" filter="url(#f1gjsj3a497422)" height="30.3516" style="stroke:#A80036;stroke-width:1.0;" width="10" x="989.5" y="669.5469"/><rect fill="#FFFFFF" filter="url(#f1gjsj3a497422)" height="554.5859" style="stroke:#000000;stroke-width:2.0;" width="869.5" x="180.5" y="167.3125"/><rect fill="#FFFFFF" filter="url(#f1gjsj3a497422)" height="293.5156" style="stroke:#000000;stroke-width:2.0;" width="849.5" x="190.5" y="421.3828"/><rect fill="#FFFFFF" filter="url(#f1gjsj3a497422)" height="261.1641" style="stroke:#000000;stroke-width:2.0;" width="829.5" x="200.5" y="446.7344"/><line style="stroke:#A80036;stroke-width:1.0;stroke-dasharray:5.0,5.0;" x1="22" x2="22" y1="89.6094" y2="799.6016"/><line style="stroke:#A80036;stroke-width:1.0;stroke-dasharray:5.0,5.0;" x1="102" x2="102" y1="89.6094" y2="799.6016"/><line style="stroke:#A80036;stroke-width:1.0;stroke-dasharray:5.0,5.0;" x1="255.5" x2="255.5" y1="89.6094" y2="799.6016"/><line style="stroke:#A80036;stroke-width:1.0;stroke-dasharray:5.0,5.0;" x1="396.5" x2="396.5" y1="218.9688" y2="799.6016"/><line style="stroke:#A80036;stroke-width:1.0;stroke-dasharray:5.0,5.0;" x1="492.5" x2="492.5" y1="89.6094" y2="799.6016"/><line style="stroke:#A80036;stroke-width:1.0;stroke-dasharray:5.0,5.0;" x1="923" x2="923" y1="89.6094" y2="799.6016"/><line style="stroke:#A80036;stroke-width:1.0;stroke-dasharray:5.0,5.0;" x1="994" x2="994" y1="89.6094" y2="799.6016"/><text fill="#000000" font-family="sans-serif" font-size="14" lengthAdjust="spacing" textLength="29" x="5" y="86.5332">User</text><ellipse cx="22.5" cy="15" fill="#FEFECE" filter="url(#f1gjsj3a497422)" rx="8" ry="8" style="stroke:#A80036;stroke-width:2.0;"/><path d="M22.5,23 L22.5,50 M9.5,31 L35.5,31 M22.5,50 L9.5,65 M22.5,50 L35.5,65 " fill="none" filter="url(#f1gjsj3a497422)" style="stroke:#A80036;stroke-width:2.0;"/><text fill="#000000" font-family="sans-serif" font-size="14" lengthAdjust="spacing" textLength="29" x="5" y="813.1348">User</text><ellipse cx="22.5" cy="826.2109" fill="#FEFECE" filter="url(#f1gjsj3a497422)" rx="8" ry="8" style="stroke:#A80036;stroke-width:2.0;"/><path d="M22.5,834.2109 L22.5,861.2109 M9.5,842.2109 L35.5,842.2109 M22.5,861.2109 L9.5,876.2109 M22.5,861.2109 L35.5,876.2109 " fill="none" filter="url(#f1gjsj3a497422)" style="stroke:#A80036;stroke-width:2.0;"/><rect fill="#FEFECE" filter="url(#f1gjsj3a497422)" height="31.6094" style="stroke:#A80036;stroke-width:1.5;" width="47" x="77" y="53"/><text fill="#000000" font-family="sans-serif" font-size="14" lengthAdjust="spacing" textLength="33" x="84" y="74.5332">Train</text><rect fill="#FEFECE" filter="url(#f1gjsj3a497422)" height="31.6094" style="stroke:#A80036;stroke-width:1.5;" width="47" x="77" y="798.6016"/><text fill="#000000" font-family="sans-serif" font-size="14" lengthAdjust="spacing" textLength="33" x="84" y="820.1348">Train</text><rect fill="#FEFECE" filter="url(#f1gjsj3a497422)" height="31.6094" style="stroke:#A80036;stroke-width:1.5;" width="86" x="210.5" y="53"/><text fill="#000000" font-family="sans-serif" font-size="14" lengthAdjust="spacing" textLength="72" x="217.5" y="74.5332">Fetch_data</text><rect fill="#FEFECE" filter="url(#f1gjsj3a497422)" height="31.6094" style="stroke:#A80036;stroke-width:1.5;" width="86" x="210.5" y="798.6016"/><text fill="#000000" font-family="sans-serif" font-size="14" lengthAdjust="spacing" textLength="72" x="217.5" y="820.1348">Fetch_data</text><rect fill="#FEFECE" filter="url(#f1gjsj3a497422)" height="31.6094" style="stroke:#A80036;stroke-width:1.5;" width="39" x="375.5" y="798.6016"/><text fill="#000000" font-family="sans-serif" font-size="14" lengthAdjust="spacing" textLength="25" x="382.5" y="820.1348">Pan</text><rect fill="#FEFECE" filter="url(#f1gjsj3a497422)" height="31.6094" style="stroke:#A80036;stroke-width:1.5;" width="125" x="428.5" y="53"/><text fill="#000000" font-family="sans-serif" font-size="14" lengthAdjust="spacing" textLength="111" x="435.5" y="74.5332">Food_recognition</text><rect fill="#FEFECE" filter="url(#f1gjsj3a497422)" height="31.6094" style="stroke:#A80036;stroke-width:1.5;" width="125" x="428.5" y="798.6016"/><text fill="#000000" font-family="sans-serif" font-size="14" lengthAdjust="spacing" textLength="111" x="435.5" y="820.1348">Food_recognition</text><rect fill="#FEFECE" filter="url(#f1gjsj3a497422)" height="31.6094" style="stroke:#A80036;stroke-width:1.5;" width="68" x="887" y="53"/><text fill="#000000" font-family="sans-serif" font-size="14" lengthAdjust="spacing" textLength="54" x="894" y="74.5332">Detector</text><rect fill="#FEFECE" filter="url(#f1gjsj3a497422)" height="31.6094" style="stroke:#A80036;stroke-width:1.5;" width="68" x="887" y="798.6016"/><text fill="#000000" font-family="sans-serif" font-size="14" lengthAdjust="spacing" textLength="54" x="894" y="820.1348">Detector</text><rect fill="#FEFECE" filter="url(#f1gjsj3a497422)" height="31.6094" style="stroke:#A80036;stroke-width:1.5;" width="47" x="969" y="53"/><text fill="#000000" font-family="sans-serif" font-size="14" lengthAdjust="spacing" textLength="33" x="976" y="74.5332">Food</text><rect fill="#FEFECE" filter="url(#f1gjsj3a497422)" height="31.6094" style="stroke:#A80036;stroke-width:1.5;" width="47" x="969" y="798.6016"/><text fill="#000000" font-family="sans-serif" font-size="14" lengthAdjust="spacing" textLength="33" x="976" y="820.1348">Food</text><rect fill="#FFFFFF" filter="url(#f1gjsj3a497422)" height="659.6406" style="stroke:#A80036;stroke-width:1.0;" width="10" x="97.5" y="121.9609"/><rect fill="#FFFFFF" filter="url(#f1gjsj3a497422)" height="598.9375" style="stroke:#A80036;stroke-width:1.0;" width="10" x="250.5" y="152.3125"/><rect fill="#FFFFFF" filter="url(#f1gjsj3a497422)" height="30.3516" style="stroke:#A80036;stroke-width:1.0;" width="10" x="392" y="254.625"/><rect fill="#FFFFFF" filter="url(#f1gjsj3a497422)" height="91.0547" style="stroke:#A80036;stroke-width:1.0;" width="10" x="488" y="315.3281"/><rect fill="#FFFFFF" filter="url(#f1gjsj3a497422)" height="30.3516" style="stroke:#A80036;stroke-width:1.0;" width="10" x="918" y="345.6797"/><rect fill="#FFFFFF" filter="url(#f1gjsj3a497422)" height="30.3516" style="stroke:#A80036;stroke-width:1.0;" width="10" x="989.5" y="487.4375"/><rect fill="#FFFFFF" filter="url(#f1gjsj3a497422)" height="30.3516" style="stroke:#A80036;stroke-width:1.0;" width="10" x="989.5" y="548.1406"/><rect fill="#FFFFFF" filter="url(#f1gjsj3a497422)" height="30.3516" style="stroke:#A80036;stroke-width:1.0;" width="10" x="989.5" y="608.8438"/><rect fill="#FFFFFF" filter="url(#f1gjsj3a497422)" height="30.3516" style="stroke:#A80036;stroke-width:1.0;" width="10" x="989.5" y="669.5469"/><polygon fill="#A80036" points="85.5,117.9609,95.5,121.9609,85.5,125.9609,89.5,121.9609" style="stroke:#A80036;stroke-width:1.0;"/><line style="stroke:#A80036;stroke-width:1.0;" x1="22.5" x2="91.5" y1="121.9609" y2="121.9609"/><text fill="#000000" font-family="sans-serif" font-size="13" lengthAdjust="spacing" textLength="56" x="29.5" y="117.1045">food_path</text><polygon fill="#A80036" points="238.5,148.3125,248.5,152.3125,238.5,156.3125,242.5,152.3125" style="stroke:#A80036;stroke-width:1.0;"/><line style="stroke:#A80036;stroke-width:1.0;" x1="107.5" x2="244.5" y1="152.3125" y2="152.3125"/><text fill="#000000" font-family="sans-serif" font-size="13" lengthAdjust="spacing" textLength="124" x="114.5" y="147.4561">fetch_data(food_path)</text><path d="M180.5,167.3125 L253.5,167.3125 L253.5,175.3125 L243.5,185.3125 L180.5,185.3125 L180.5,167.3125 " fill="#EEEEEE" style="stroke:#000000;stroke-width:1.0;"/><rect fill="none" height="554.5859" style="stroke:#000000;stroke-width:2.0;" width="869.5" x="180.5" y="167.3125"/><text fill="#000000" font-family="sans-serif" font-size="13" font-weight="bold" lengthAdjust="spacing" textLength="28" x="195.5" y="181.8076">loop</text><text fill="#000000" font-family="sans-serif" font-size="11" font-weight="bold" lengthAdjust="spacing" textLength="112" x="268.5" y="180.7314">[filename in file_list]</text><polygon fill="#A80036" points="363.5,204.0156,373.5,208.0156,363.5,212.0156,367.5,208.0156" style="stroke:#A80036;stroke-width:1.0;"/><line style="stroke:#A80036;stroke-width:1.0;" x1="260.5" x2="369.5" y1="208.0156" y2="208.0156"/><text fill="#000000" font-family="sans-serif" font-size="13" lengthAdjust="spacing" textLength="91" x="267.5" y="203.1592">init(food_image)</text><rect fill="#FEFECE" filter="url(#f1gjsj3a497422)" height="31.6094" style="stroke:#A80036;stroke-width:1.5;" width="39" x="375.5" y="185.6641"/><text fill="#000000" font-family="sans-serif" font-size="14" lengthAdjust="spacing" textLength="25" x="382.5" y="207.1973">Pan</text><polygon fill="#A80036" points="380,250.625,390,254.625,380,258.625,384,254.625" style="stroke:#A80036;stroke-width:1.0;"/><line style="stroke:#A80036;stroke-width:1.0;" x1="260.5" x2="386" y1="254.625" y2="254.625"/><text fill="#000000" font-family="sans-serif" font-size="13" lengthAdjust="spacing" textLength="72" x="267.5" y="249.7686">getMasked()</text><polygon fill="#A80036" points="271.5,280.9766,261.5,284.9766,271.5,288.9766,267.5,284.9766" style="stroke:#A80036;stroke-width:1.0;"/><line style="stroke:#A80036;stroke-width:1.0;stroke-dasharray:2.0,2.0;" x1="265.5" x2="396" y1="284.9766" y2="284.9766"/><text fill="#000000" font-family="sans-serif" font-size="13" lengthAdjust="spacing" textLength="63" x="277.5" y="280.1201">pan_Image</text><polygon fill="#A80036" points="476,311.3281,486,315.3281,476,319.3281,480,315.3281" style="stroke:#A80036;stroke-width:1.0;"/><line style="stroke:#A80036;stroke-width:1.0;" x1="260.5" x2="482" y1="315.3281" y2="315.3281"/><text fill="#000000" font-family="sans-serif" font-size="13" lengthAdjust="spacing" textLength="120" x="267.5" y="310.4717">recognize(panImage)</text><polygon fill="#A80036" points="906,341.6797,916,345.6797,906,349.6797,910,345.6797" style="stroke:#A80036;stroke-width:1.0;"/><line style="stroke:#A80036;stroke-width:1.0;" x1="498" x2="912" y1="345.6797" y2="345.6797"/><text fill="#000000" font-family="sans-serif" font-size="13" lengthAdjust="spacing" textLength="401" x="505" y="340.8232">findFood(panImage, minH, minS, minV, maxH, maxS, maxV, blurVal)</text><polygon fill="#A80036" points="509,372.0313,499,376.0313,509,380.0313,505,376.0313" style="stroke:#A80036;stroke-width:1.0;"/><line style="stroke:#A80036;stroke-width:1.0;stroke-dasharray:2.0,2.0;" x1="503" x2="922" y1="376.0313" y2="376.0313"/><text fill="#000000" font-family="sans-serif" font-size="13" lengthAdjust="spacing" textLength="31" x="515" y="371.1748">foods</text><polygon fill="#A80036" points="271.5,402.3828,261.5,406.3828,271.5,410.3828,267.5,406.3828" style="stroke:#A80036;stroke-width:1.0;"/><line style="stroke:#A80036;stroke-width:1.0;stroke-dasharray:2.0,2.0;" x1="265.5" x2="492" y1="406.3828" y2="406.3828"/><text fill="#000000" font-family="sans-serif" font-size="13" lengthAdjust="spacing" textLength="31" x="277.5" y="401.5264">foods</text><path d="M190.5,421.3828 L251.5,421.3828 L251.5,429.3828 L241.5,439.3828 L190.5,439.3828 L190.5,421.3828 " fill="#EEEEEE" style="stroke:#000000;stroke-width:1.0;"/><rect fill="none" height="293.5156" style="stroke:#000000;stroke-width:2.0;" width="849.5" x="190.5" y="421.3828"/><text fill="#000000" font-family="sans-serif" font-size="13" font-weight="bold" lengthAdjust="spacing" textLength="16" x="205.5" y="435.8779">alt</text><text fill="#000000" font-family="sans-serif" font-size="11" font-weight="bold" lengthAdjust="spacing" textLength="64" x="266.5" y="434.8018">[foods != 0:]</text><path d="M200.5,446.7344 L273.5,446.7344 L273.5,454.7344 L263.5,464.7344 L200.5,464.7344 L200.5,446.7344 " fill="#EEEEEE" style="stroke:#000000;stroke-width:1.0;"/><rect fill="none" height="261.1641" style="stroke:#000000;stroke-width:2.0;" width="829.5" x="200.5" y="446.7344"/><text fill="#000000" font-family="sans-serif" font-size="13" font-weight="bold" lengthAdjust="spacing" textLength="28" x="215.5" y="461.2295">loop</text><text fill="#000000" font-family="sans-serif" font-size="11" font-weight="bold" lengthAdjust="spacing" textLength="86" x="288.5" y="460.1533">[food in Foods:]</text><polygon fill="#A80036" points="977.5,483.4375,987.5,487.4375,977.5,491.4375,981.5,487.4375" style="stroke:#A80036;stroke-width:1.0;"/><line style="stroke:#A80036;stroke-width:1.0;" x1="260.5" x2="983.5" y1="487.4375" y2="487.4375"/><text fill="#000000" font-family="sans-serif" font-size="13" lengthAdjust="spacing" textLength="53" x="267.5" y="482.5811">getArea()</text><polygon fill="#A80036" points="271.5,513.7891,261.5,517.7891,271.5,521.7891,267.5,517.7891" style="stroke:#A80036;stroke-width:1.0;"/><line style="stroke:#A80036;stroke-width:1.0;stroke-dasharray:2.0,2.0;" x1="265.5" x2="993.5" y1="517.7891" y2="517.7891"/><text fill="#000000" font-family="sans-serif" font-size="13" lengthAdjust="spacing" textLength="25" x="277.5" y="512.9326">area</text><polygon fill="#A80036" points="977.5,544.1406,987.5,548.1406,977.5,552.1406,981.5,548.1406" style="stroke:#A80036;stroke-width:1.0;"/><line style="stroke:#A80036;stroke-width:1.0;" x1="260.5" x2="983.5" y1="548.1406" y2="548.1406"/><text fill="#000000" font-family="sans-serif" font-size="13" lengthAdjust="spacing" textLength="82" x="267.5" y="543.2842">getPerimeter()</text><polygon fill="#A80036" points="271.5,574.4922,261.5,578.4922,271.5,582.4922,267.5,578.4922" style="stroke:#A80036;stroke-width:1.0;"/><line style="stroke:#A80036;stroke-width:1.0;stroke-dasharray:2.0,2.0;" x1="265.5" x2="993.5" y1="578.4922" y2="578.4922"/><text fill="#000000" font-family="sans-serif" font-size="13" lengthAdjust="spacing" textLength="54" x="277.5" y="573.6357">perimeter</text><polygon fill="#A80036" points="977.5,604.8438,987.5,608.8438,977.5,612.8438,981.5,608.8438" style="stroke:#A80036;stroke-width:1.0;"/><line style="stroke:#A80036;stroke-width:1.0;" x1="260.5" x2="983.5" y1="608.8438" y2="608.8438"/><text fill="#000000" font-family="sans-serif" font-size="13" lengthAdjust="spacing" textLength="108" x="267.5" y="603.9873">getProminentHue()</text><polygon fill="#A80036" points="271.5,635.1953,261.5,639.1953,271.5,643.1953,267.5,639.1953" style="stroke:#A80036;stroke-width:1.0;"/><line style="stroke:#A80036;stroke-width:1.0;stroke-dasharray:2.0,2.0;" x1="265.5" x2="993.5" y1="639.1953" y2="639.1953"/><text fill="#000000" font-family="sans-serif" font-size="13" lengthAdjust="spacing" textLength="80" x="277.5" y="634.3389">prominentHue</text><polygon fill="#A80036" points="977.5,665.5469,987.5,669.5469,977.5,673.5469,981.5,669.5469" style="stroke:#A80036;stroke-width:1.0;"/><line style="stroke:#A80036;stroke-width:1.0;" x1="260.5" x2="983.5" y1="669.5469" y2="669.5469"/><text fill="#000000" font-family="sans-serif" font-size="13" lengthAdjust="spacing" textLength="63" x="267.5" y="664.6904">getShape()</text><polygon fill="#A80036" points="271.5,695.8984,261.5,699.8984,271.5,703.8984,267.5,699.8984" style="stroke:#A80036;stroke-width:1.0;"/><line style="stroke:#A80036;stroke-width:1.0;stroke-dasharray:2.0,2.0;" x1="265.5" x2="993.5" y1="699.8984" y2="699.8984"/><text fill="#000000" font-family="sans-serif" font-size="13" lengthAdjust="spacing" textLength="35" x="277.5" y="695.042">shape</text><polygon fill="#A80036" points="118.5,747.25,108.5,751.25,118.5,755.25,114.5,751.25" style="stroke:#A80036;stroke-width:1.0;"/><line style="stroke:#A80036;stroke-width:1.0;stroke-dasharray:2.0,2.0;" x1="112.5" x2="254.5" y1="751.25" y2="751.25"/><text fill="#000000" font-family="sans-serif" font-size="13" lengthAdjust="spacing" textLength="43" x="124.5" y="746.3936">dataset</text><polygon fill="#A80036" points="33.5,777.6016,23.5,781.6016,33.5,785.6016,29.5,781.6016" style="stroke:#A80036;stroke-width:1.0;"/><line style="stroke:#A80036;stroke-width:1.0;stroke-dasharray:2.0,2.0;" x1="27.5" x2="101.5" y1="781.6016" y2="781.6016"/><text fill="#000000" font-family="sans-serif" font-size="13" lengthAdjust="spacing" textLength="35" x="39.5" y="776.7451">model</text><!--MD5=[73fe7a2f09510ba3abdd69d4f24b9390]
@startuml Sequence diagram train food patterns

actor User

User -> Train ++ : food_path
Train -> Fetch_data ++ : fetch_data(food_path)
loop filename in file_list
    Fetch_data -> Pan ** : init(food_image)
    Fetch_data -> Pan ++ : getMasked()
    return pan_Image
    Fetch_data -> Food_recognition ++ : recognize(panImage)
    Food_recognition -> Detector ++ : findFood(panImage, minH, minS, minV, maxH, maxS, maxV, blurVal)
    return foods
    return foods

    alt foods != 0:
    loop food in Foods:
        Fetch_data -> Food ++ : getArea()
        return area
        Fetch_data -> Food ++ : getPerimeter()
        return perimeter
        Fetch_data -> Food ++ : getProminentHue()
        return prominentHue
        Fetch_data -> Food ++ : getShape()
        return shape
    end
end
end
return dataset
return model

@enduml

PlantUML version 1.2021.14(Fri Nov 12 17:46:50 CET 2021)
(GPL source distribution)
Java Runtime: Java(TM) SE Runtime Environment
JVM: Java HotSpot(TM) 64-Bit Server VM
Default Encoding: Cp1252
Language: nl
Country: NL
--></g></svg>