<?xml version="1.0" encoding="UTF-8" standalone="no"?><svg xmlns="http://www.w3.org/2000/svg" xmlns:xlink="http://www.w3.org/1999/xlink" contentScriptType="application/ecmascript" contentStyleType="text/css" height="1680px" preserveAspectRatio="none" style="width:1713px;height:1680px;background:#FFFFFF;" version="1.1" viewBox="0 0 1713 1680" width="1713px" zoomAndPan="magnify"><defs><filter height="300%" id="f64j21oiwjep3" width="300%" x="-1" y="-1"><feGaussianBlur result="blurOut" stdDeviation="2.0"/><feColorMatrix in="blurOut" result="blurOut2" type="matrix" values="0 0 0 0 0 0 0 0 0 0 0 0 0 0 0 0 0 0 .4 0"/><feOffset dx="4.0" dy="4.0" in="blurOut2" result="blurOut3"/><feBlend in="SourceGraphic" in2="blurOut3" mode="normal"/></filter></defs><g><rect fill="#FFFFFF" filter="url(#f64j21oiwjep3)" height="1455.2813" style="stroke:#A80036;stroke-width:1.0;" width="10" x="97.5" y="121.9609"/><rect fill="#FFFFFF" filter="url(#f64j21oiwjep3)" height="1394.5781" style="stroke:#A80036;stroke-width:1.0;" width="10" x="250.5" y="152.3125"/><rect fill="#FFFFFF" filter="url(#f64j21oiwjep3)" height="30.3516" style="stroke:#A80036;stroke-width:1.0;" width="10" x="392" y="254.625"/><rect fill="#FFFFFF" filter="url(#f64j21oiwjep3)" height="886.6953" style="stroke:#A80036;stroke-width:1.0;" width="10" x="488" y="315.3281"/><rect fill="#FFFFFF" filter="url(#f64j21oiwjep3)" height="228.3672" style="stroke:#A80036;stroke-width:1.0;" width="10" x="918" y="345.6797"/><rect fill="#FFFFFF" filter="url(#f64j21oiwjep3)" height="41.3516" style="stroke:#A80036;stroke-width:1.0;" width="10" x="923" y="434.7344"/><rect fill="#FFFFFF" filter="url(#f64j21oiwjep3)" height="268.4609" style="stroke:#A80036;stroke-width:1.0;" width="10" x="1263" y="604.3984"/><rect fill="#FFFFFF" filter="url(#f64j21oiwjep3)" height="41.3516" style="stroke:#A80036;stroke-width:1.0;" width="10" x="1268" y="642.75"/><rect fill="#FFFFFF" filter="url(#f64j21oiwjep3)" height="55.3516" style="stroke:#A80036;stroke-width:1.0;" width="10" x="1268" y="780.1563"/><rect fill="#FFFFFF" filter="url(#f64j21oiwjep3)" height="268.4609" style="stroke:#A80036;stroke-width:1.0;" width="10" x="1451" y="903.2109"/><rect fill="#FFFFFF" filter="url(#f64j21oiwjep3)" height="41.3516" style="stroke:#A80036;stroke-width:1.0;" width="10" x="1456" y="941.5625"/><rect fill="#FFFFFF" filter="url(#f64j21oiwjep3)" height="55.3516" style="stroke:#A80036;stroke-width:1.0;" width="10" x="1456" y="1078.9688"/><rect fill="#FFFFFF" filter="url(#f64j21oiwjep3)" height="30.3516" style="stroke:#A80036;stroke-width:1.0;" width="10" x="1639" y="1283.0781"/><rect fill="#FFFFFF" filter="url(#f64j21oiwjep3)" height="30.3516" style="stroke:#A80036;stroke-width:1.0;" width="10" x="1639" y="1343.7813"/><rect fill="#FFFFFF" filter="url(#f64j21oiwjep3)" height="30.3516" style="stroke:#A80036;stroke-width:1.0;" width="10" x="1639" y="1404.4844"/><rect fill="#FFFFFF" filter="url(#f64j21oiwjep3)" height="30.3516" style="stroke:#A80036;stroke-width:1.0;" width="10" x="1639" y="1465.1875"/><rect fill="#FFFFFF" filter="url(#f64j21oiwjep3)" height="1350.2266" style="stroke:#000000;stroke-width:2.0;" width="1519" x="180.5" y="167.3125"/><rect fill="#FFFFFF" filter="url(#f64j21oiwjep3)" height="184.0156" style="stroke:#000000;stroke-width:2.0;" width="383.5" x="847" y="360.6797"/><rect fill="#FFFFFF" filter="url(#f64j21oiwjep3)" height="151.6641" style="stroke:#000000;stroke-width:2.0;" width="363.5" x="857" y="386.0313"/><rect fill="#FFFFFF" filter="url(#f64j21oiwjep3)" height="94.0547" style="stroke:#000000;stroke-width:2.0;" width="292" x="1200.5" y="706.1016"/><rect fill="#FFFFFF" filter="url(#f64j21oiwjep3)" height="61.7031" style="stroke:#000000;stroke-width:2.0;" width="272" x="1210.5" y="731.4531"/><rect fill="#FFFFFF" filter="url(#f64j21oiwjep3)" height="94.0547" style="stroke:#000000;stroke-width:2.0;" width="292" x="1390" y="1004.9141"/><rect fill="#FFFFFF" filter="url(#f64j21oiwjep3)" height="61.7031" style="stroke:#000000;stroke-width:2.0;" width="272" x="1400" y="1030.2656"/><rect fill="#FFFFFF" filter="url(#f64j21oiwjep3)" height="293.5156" style="stroke:#000000;stroke-width:2.0;" width="1499" x="190.5" y="1217.0234"/><rect fill="#FFFFFF" filter="url(#f64j21oiwjep3)" height="261.1641" style="stroke:#000000;stroke-width:2.0;" width="1479" x="200.5" y="1242.375"/><line style="stroke:#A80036;stroke-width:1.0;stroke-dasharray:5.0,5.0;" x1="22" x2="22" y1="89.6094" y2="1595.2422"/><line style="stroke:#A80036;stroke-width:1.0;stroke-dasharray:5.0,5.0;" x1="102" x2="102" y1="89.6094" y2="1595.2422"/><line style="stroke:#A80036;stroke-width:1.0;stroke-dasharray:5.0,5.0;" x1="255.5" x2="255.5" y1="89.6094" y2="1595.2422"/><line style="stroke:#A80036;stroke-width:1.0;stroke-dasharray:5.0,5.0;" x1="396.5" x2="396.5" y1="218.9688" y2="1595.2422"/><line style="stroke:#A80036;stroke-width:1.0;stroke-dasharray:5.0,5.0;" x1="492.5" x2="492.5" y1="89.6094" y2="1595.2422"/><line style="stroke:#A80036;stroke-width:1.0;stroke-dasharray:5.0,5.0;" x1="923" x2="923" y1="89.6094" y2="1595.2422"/><line style="stroke:#A80036;stroke-width:1.0;stroke-dasharray:5.0,5.0;" x1="1174.5" x2="1174.5" y1="524.3906" y2="1595.2422"/><line style="stroke:#A80036;stroke-width:1.0;stroke-dasharray:5.0,5.0;" x1="1267.5" x2="1267.5" y1="89.6094" y2="1595.2422"/><line style="stroke:#A80036;stroke-width:1.0;stroke-dasharray:5.0,5.0;" x1="1456" x2="1456" y1="89.6094" y2="1595.2422"/><line style="stroke:#A80036;stroke-width:1.0;stroke-dasharray:5.0,5.0;" x1="1643.5" x2="1643.5" y1="89.6094" y2="1595.2422"/><text fill="#000000" font-family="sans-serif" font-size="14" lengthAdjust="spacing" textLength="29" x="5" y="86.5332">User</text><ellipse cx="22.5" cy="15" fill="#FEFECE" filter="url(#f64j21oiwjep3)" rx="8" ry="8" style="stroke:#A80036;stroke-width:2.0;"/><path d="M22.5,23 L22.5,50 M9.5,31 L35.5,31 M22.5,50 L9.5,65 M22.5,50 L35.5,65 " fill="none" filter="url(#f64j21oiwjep3)" style="stroke:#A80036;stroke-width:2.0;"/><text fill="#000000" font-family="sans-serif" font-size="14" lengthAdjust="spacing" textLength="29" x="5" y="1608.7754">User</text><ellipse cx="22.5" cy="1621.8516" fill="#FEFECE" filter="url(#f64j21oiwjep3)" rx="8" ry="8" style="stroke:#A80036;stroke-width:2.0;"/><path d="M22.5,1629.8516 L22.5,1656.8516 M9.5,1637.8516 L35.5,1637.8516 M22.5,1656.8516 L9.5,1671.8516 M22.5,1656.8516 L35.5,1671.8516 " fill="none" filter="url(#f64j21oiwjep3)" style="stroke:#A80036;stroke-width:2.0;"/><rect fill="#FEFECE" filter="url(#f64j21oiwjep3)" height="31.6094" style="stroke:#A80036;stroke-width:1.5;" width="47" x="77" y="53"/><text fill="#000000" font-family="sans-serif" font-size="14" lengthAdjust="spacing" textLength="33" x="84" y="74.5332">Train</text><rect fill="#FEFECE" filter="url(#f64j21oiwjep3)" height="31.6094" style="stroke:#A80036;stroke-width:1.5;" width="47" x="77" y="1594.2422"/><text fill="#000000" font-family="sans-serif" font-size="14" lengthAdjust="spacing" textLength="33" x="84" y="1615.7754">Train</text><rect fill="#FEFECE" filter="url(#f64j21oiwjep3)" height="31.6094" style="stroke:#A80036;stroke-width:1.5;" width="86" x="210.5" y="53"/><text fill="#000000" font-family="sans-serif" font-size="14" lengthAdjust="spacing" textLength="72" x="217.5" y="74.5332">Fetch_data</text><rect fill="#FEFECE" filter="url(#f64j21oiwjep3)" height="31.6094" style="stroke:#A80036;stroke-width:1.5;" width="86" x="210.5" y="1594.2422"/><text fill="#000000" font-family="sans-serif" font-size="14" lengthAdjust="spacing" textLength="72" x="217.5" y="1615.7754">Fetch_data</text><rect fill="#FEFECE" filter="url(#f64j21oiwjep3)" height="31.6094" style="stroke:#A80036;stroke-width:1.5;" width="39" x="375.5" y="1594.2422"/><text fill="#000000" font-family="sans-serif" font-size="14" lengthAdjust="spacing" textLength="25" x="382.5" y="1615.7754">Pan</text><rect fill="#FEFECE" filter="url(#f64j21oiwjep3)" height="31.6094" style="stroke:#A80036;stroke-width:1.5;" width="125" x="428.5" y="53"/><text fill="#000000" font-family="sans-serif" font-size="14" lengthAdjust="spacing" textLength="111" x="435.5" y="74.5332">Food_recognition</text><rect fill="#FEFECE" filter="url(#f64j21oiwjep3)" height="31.6094" style="stroke:#A80036;stroke-width:1.5;" width="125" x="428.5" y="1594.2422"/><text fill="#000000" font-family="sans-serif" font-size="14" lengthAdjust="spacing" textLength="111" x="435.5" y="1615.7754">Food_recognition</text><rect fill="#FEFECE" filter="url(#f64j21oiwjep3)" height="31.6094" style="stroke:#A80036;stroke-width:1.5;" width="108" x="867" y="53"/><text fill="#000000" font-family="sans-serif" font-size="14" lengthAdjust="spacing" textLength="94" x="874" y="74.5332">MeatballDetect</text><rect fill="#FEFECE" filter="url(#f64j21oiwjep3)" height="31.6094" style="stroke:#A80036;stroke-width:1.5;" width="108" x="867" y="1594.2422"/><text fill="#000000" font-family="sans-serif" font-size="14" lengthAdjust="spacing" textLength="94" x="874" y="1615.7754">MeatballDetect</text><rect fill="#FEFECE" filter="url(#f64j21oiwjep3)" height="31.6094" style="stroke:#A80036;stroke-width:1.5;" width="67" x="1139.5" y="1594.2422"/><text fill="#000000" font-family="sans-serif" font-size="14" lengthAdjust="spacing" textLength="53" x="1146.5" y="1615.7754">Meatball</text><rect fill="#FEFECE" filter="url(#f64j21oiwjep3)" height="31.6094" style="stroke:#A80036;stroke-width:1.5;" width="91" x="1220.5" y="53"/><text fill="#000000" font-family="sans-serif" font-size="14" lengthAdjust="spacing" textLength="77" x="1227.5" y="74.5332">PastaDetect</text><rect fill="#FEFECE" filter="url(#f64j21oiwjep3)" height="31.6094" style="stroke:#A80036;stroke-width:1.5;" width="91" x="1220.5" y="1594.2422"/><text fill="#000000" font-family="sans-serif" font-size="14" lengthAdjust="spacing" textLength="77" x="1227.5" y="1615.7754">PastaDetect</text><rect fill="#FEFECE" filter="url(#f64j21oiwjep3)" height="31.6094" style="stroke:#A80036;stroke-width:1.5;" width="88" x="1410" y="53"/><text fill="#000000" font-family="sans-serif" font-size="14" lengthAdjust="spacing" textLength="74" x="1417" y="74.5332">BeanDetect</text><rect fill="#FEFECE" filter="url(#f64j21oiwjep3)" height="31.6094" style="stroke:#A80036;stroke-width:1.5;" width="88" x="1410" y="1594.2422"/><text fill="#000000" font-family="sans-serif" font-size="14" lengthAdjust="spacing" textLength="74" x="1417" y="1615.7754">BeanDetect</text><rect fill="#FEFECE" filter="url(#f64j21oiwjep3)" height="31.6094" style="stroke:#A80036;stroke-width:1.5;" width="47" x="1618.5" y="53"/><text fill="#000000" font-family="sans-serif" font-size="14" lengthAdjust="spacing" textLength="33" x="1625.5" y="74.5332">Food</text><rect fill="#FEFECE" filter="url(#f64j21oiwjep3)" height="31.6094" style="stroke:#A80036;stroke-width:1.5;" width="47" x="1618.5" y="1594.2422"/><text fill="#000000" font-family="sans-serif" font-size="14" lengthAdjust="spacing" textLength="33" x="1625.5" y="1615.7754">Food</text><rect fill="#FFFFFF" filter="url(#f64j21oiwjep3)" height="1455.2813" style="stroke:#A80036;stroke-width:1.0;" width="10" x="97.5" y="121.9609"/><rect fill="#FFFFFF" filter="url(#f64j21oiwjep3)" height="1394.5781" style="stroke:#A80036;stroke-width:1.0;" width="10" x="250.5" y="152.3125"/><rect fill="#FFFFFF" filter="url(#f64j21oiwjep3)" height="30.3516" style="stroke:#A80036;stroke-width:1.0;" width="10" x="392" y="254.625"/><rect fill="#FFFFFF" filter="url(#f64j21oiwjep3)" height="886.6953" style="stroke:#A80036;stroke-width:1.0;" width="10" x="488" y="315.3281"/><rect fill="#FFFFFF" filter="url(#f64j21oiwjep3)" height="228.3672" style="stroke:#A80036;stroke-width:1.0;" width="10" x="918" y="345.6797"/><rect fill="#FFFFFF" filter="url(#f64j21oiwjep3)" height="41.3516" style="stroke:#A80036;stroke-width:1.0;" width="10" x="923" y="434.7344"/><rect fill="#FFFFFF" filter="url(#f64j21oiwjep3)" height="268.4609" style="stroke:#A80036;stroke-width:1.0;" width="10" x="1263" y="604.3984"/><rect fill="#FFFFFF" filter="url(#f64j21oiwjep3)" height="41.3516" style="stroke:#A80036;stroke-width:1.0;" width="10" x="1268" y="642.75"/><rect fill="#FFFFFF" filter="url(#f64j21oiwjep3)" height="55.3516" style="stroke:#A80036;stroke-width:1.0;" width="10" x="1268" y="780.1563"/><rect fill="#FFFFFF" filter="url(#f64j21oiwjep3)" height="268.4609" style="stroke:#A80036;stroke-width:1.0;" width="10" x="1451" y="903.2109"/><rect fill="#FFFFFF" filter="url(#f64j21oiwjep3)" height="41.3516" style="stroke:#A80036;stroke-width:1.0;" width="10" x="1456" y="941.5625"/><rect fill="#FFFFFF" filter="url(#f64j21oiwjep3)" height="55.3516" style="stroke:#A80036;stroke-width:1.0;" width="10" x="1456" y="1078.9688"/><rect fill="#FFFFFF" filter="url(#f64j21oiwjep3)" height="30.3516" style="stroke:#A80036;stroke-width:1.0;" width="10" x="1639" y="1283.0781"/><rect fill="#FFFFFF" filter="url(#f64j21oiwjep3)" height="30.3516" style="stroke:#A80036;stroke-width:1.0;" width="10" x="1639" y="1343.7813"/><rect fill="#FFFFFF" filter="url(#f64j21oiwjep3)" height="30.3516" style="stroke:#A80036;stroke-width:1.0;" width="10" x="1639" y="1404.4844"/><rect fill="#FFFFFF" filter="url(#f64j21oiwjep3)" height="30.3516" style="stroke:#A80036;stroke-width:1.0;" width="10" x="1639" y="1465.1875"/><polygon fill="#A80036" points="85.5,117.9609,95.5,121.9609,85.5,125.9609,89.5,121.9609" style="stroke:#A80036;stroke-width:1.0;"/><line style="stroke:#A80036;stroke-width:1.0;" x1="22.5" x2="91.5" y1="121.9609" y2="121.9609"/><text fill="#000000" font-family="sans-serif" font-size="13" lengthAdjust="spacing" textLength="56" x="29.5" y="117.1045">food_path</text><polygon fill="#A80036" points="238.5,148.3125,248.5,152.3125,238.5,156.3125,242.5,152.3125" style="stroke:#A80036;stroke-width:1.0;"/><line style="stroke:#A80036;stroke-width:1.0;" x1="107.5" x2="244.5" y1="152.3125" y2="152.3125"/><text fill="#000000" font-family="sans-serif" font-size="13" lengthAdjust="spacing" textLength="124" x="114.5" y="147.4561">fetch_data(food_path)</text><path d="M180.5,167.3125 L253.5,167.3125 L253.5,175.3125 L243.5,185.3125 L180.5,185.3125 L180.5,167.3125 " fill="#EEEEEE" style="stroke:#000000;stroke-width:1.0;"/><rect fill="none" height="1350.2266" style="stroke:#000000;stroke-width:2.0;" width="1519" x="180.5" y="167.3125"/><text fill="#000000" font-family="sans-serif" font-size="13" font-weight="bold" lengthAdjust="spacing" textLength="28" x="195.5" y="181.8076">loop</text><text fill="#000000" font-family="sans-serif" font-size="11" font-weight="bold" lengthAdjust="spacing" textLength="112" x="268.5" y="180.7314">[filename in file_list]</text><polygon fill="#A80036" points="363.5,204.0156,373.5,208.0156,363.5,212.0156,367.5,208.0156" style="stroke:#A80036;stroke-width:1.0;"/><line style="stroke:#A80036;stroke-width:1.0;" x1="260.5" x2="369.5" y1="208.0156" y2="208.0156"/><text fill="#000000" font-family="sans-serif" font-size="13" lengthAdjust="spacing" textLength="91" x="267.5" y="203.1592">init(food_image)</text><rect fill="#FEFECE" filter="url(#f64j21oiwjep3)" height="31.6094" style="stroke:#A80036;stroke-width:1.5;" width="39" x="375.5" y="185.6641"/><text fill="#000000" font-family="sans-serif" font-size="14" lengthAdjust="spacing" textLength="25" x="382.5" y="207.1973">Pan</text><polygon fill="#A80036" points="380,250.625,390,254.625,380,258.625,384,254.625" style="stroke:#A80036;stroke-width:1.0;"/><line style="stroke:#A80036;stroke-width:1.0;" x1="260.5" x2="386" y1="254.625" y2="254.625"/><text fill="#000000" font-family="sans-serif" font-size="13" lengthAdjust="spacing" textLength="72" x="267.5" y="249.7686">getMasked()</text><polygon fill="#A80036" points="271.5,280.9766,261.5,284.9766,271.5,288.9766,267.5,284.9766" style="stroke:#A80036;stroke-width:1.0;"/><line style="stroke:#A80036;stroke-width:1.0;stroke-dasharray:2.0,2.0;" x1="265.5" x2="396" y1="284.9766" y2="284.9766"/><text fill="#000000" font-family="sans-serif" font-size="13" lengthAdjust="spacing" textLength="63" x="277.5" y="280.1201">pan_Image</text><polygon fill="#A80036" points="476,311.3281,486,315.3281,476,319.3281,480,315.3281" style="stroke:#A80036;stroke-width:1.0;"/><line style="stroke:#A80036;stroke-width:1.0;" x1="260.5" x2="482" y1="315.3281" y2="315.3281"/><text fill="#000000" font-family="sans-serif" font-size="13" lengthAdjust="spacing" textLength="120" x="267.5" y="310.4717">recognize(panImage)</text><polygon fill="#A80036" points="906,341.6797,916,345.6797,906,349.6797,910,345.6797" style="stroke:#A80036;stroke-width:1.0;"/><line style="stroke:#A80036;stroke-width:1.0;" x1="498" x2="912" y1="345.6797" y2="345.6797"/><text fill="#000000" font-family="sans-serif" font-size="13" lengthAdjust="spacing" textLength="401" x="505" y="340.8232">findFood(panImage, minH, minS, minV, maxH, maxS, maxV, blurVal)</text><path d="M847,360.6797 L908,360.6797 L908,368.6797 L898,378.6797 L847,378.6797 L847,360.6797 " fill="#EEEEEE" style="stroke:#000000;stroke-width:1.0;"/><rect fill="none" height="184.0156" style="stroke:#000000;stroke-width:2.0;" width="383.5" x="847" y="360.6797"/><text fill="#000000" font-family="sans-serif" font-size="13" font-weight="bold" lengthAdjust="spacing" textLength="16" x="862" y="375.1748">alt</text><text fill="#000000" font-family="sans-serif" font-size="11" font-weight="bold" lengthAdjust="spacing" textLength="110" x="923" y="374.0986">[circles is not None]</text><path d="M857,386.0313 L930,386.0313 L930,394.0313 L920,404.0313 L857,404.0313 L857,386.0313 " fill="#EEEEEE" style="stroke:#000000;stroke-width:1.0;"/><rect fill="none" height="151.6641" style="stroke:#000000;stroke-width:2.0;" width="363.5" x="857" y="386.0313"/><text fill="#000000" font-family="sans-serif" font-size="13" font-weight="bold" lengthAdjust="spacing" textLength="28" x="872" y="400.5264">loop</text><text fill="#000000" font-family="sans-serif" font-size="11" font-weight="bold" lengthAdjust="spacing" textLength="64" x="945" y="399.4502">[i in circles]</text><line style="stroke:#A80036;stroke-width:1.0;" x1="928" x2="975" y1="421.7344" y2="421.7344"/><line style="stroke:#A80036;stroke-width:1.0;" x1="975" x2="975" y1="421.7344" y2="434.7344"/><line style="stroke:#A80036;stroke-width:1.0;" x1="934" x2="975" y1="434.7344" y2="434.7344"/><polygon fill="#A80036" points="944,430.7344,934,434.7344,944,438.7344,940,434.7344" style="stroke:#A80036;stroke-width:1.0;"/><text fill="#000000" font-family="sans-serif" font-size="13" lengthAdjust="spacing" textLength="228" x="940" y="416.8779">meatballCrop(maskedMeatballs, x, y, r)</text><line style="stroke:#A80036;stroke-width:1.0;stroke-dasharray:2.0,2.0;" x1="933" x2="975" y1="475.0859" y2="475.0859"/><line style="stroke:#A80036;stroke-width:1.0;stroke-dasharray:2.0,2.0;" x1="975" x2="975" y1="475.0859" y2="488.0859"/><line style="stroke:#A80036;stroke-width:1.0;stroke-dasharray:2.0,2.0;" x1="928" x2="975" y1="488.0859" y2="488.0859"/><polygon fill="#A80036" points="938,484.0859,928,488.0859,938,492.0859,934,488.0859" style="stroke:#A80036;stroke-width:1.0;"/><text fill="#000000" font-family="sans-serif" font-size="13" lengthAdjust="spacing" textLength="60" x="940" y="470.2295">out, x, y, r</text><polygon fill="#A80036" points="1127.5,509.4375,1137.5,513.4375,1127.5,517.4375,1131.5,513.4375" style="stroke:#A80036;stroke-width:1.0;"/><line style="stroke:#A80036;stroke-width:1.0;" x1="928" x2="1133.5" y1="513.4375" y2="513.4375"/><text fill="#000000" font-family="sans-serif" font-size="13" lengthAdjust="spacing" textLength="146" x="935" y="508.5811">(meatballImage, x, y, r, r)</text><rect fill="#FEFECE" filter="url(#f64j21oiwjep3)" height="31.6094" style="stroke:#A80036;stroke-width:1.5;" width="67" x="1139.5" y="491.0859"/><text fill="#000000" font-family="sans-serif" font-size="14" lengthAdjust="spacing" textLength="53" x="1146.5" y="512.6191">Meatball</text><polygon fill="#A80036" points="509,570.0469,499,574.0469,509,578.0469,505,574.0469" style="stroke:#A80036;stroke-width:1.0;"/><line style="stroke:#A80036;stroke-width:1.0;stroke-dasharray:2.0,2.0;" x1="503" x2="922" y1="574.0469" y2="574.0469"/><text fill="#000000" font-family="sans-serif" font-size="13" lengthAdjust="spacing" textLength="56" x="515" y="569.1904">meatballs</text><polygon fill="#A80036" points="1251,600.3984,1261,604.3984,1251,608.3984,1255,604.3984" style="stroke:#A80036;stroke-width:1.0;"/><line style="stroke:#A80036;stroke-width:1.0;" x1="498" x2="1257" y1="604.3984" y2="604.3984"/><text fill="#000000" font-family="sans-serif" font-size="13" lengthAdjust="spacing" textLength="401" x="505" y="599.542">findFood(panImage, minH, minS, minV, maxH, maxS, maxV, blurVal)</text><line style="stroke:#A80036;stroke-width:1.0;" x1="1273" x2="1320" y1="629.75" y2="629.75"/><line style="stroke:#A80036;stroke-width:1.0;" x1="1320" x2="1320" y1="629.75" y2="642.75"/><line style="stroke:#A80036;stroke-width:1.0;" x1="1279" x2="1320" y1="642.75" y2="642.75"/><polygon fill="#A80036" points="1289,638.75,1279,642.75,1289,646.75,1285,642.75" style="stroke:#A80036;stroke-width:1.0;"/><text fill="#000000" font-family="sans-serif" font-size="13" lengthAdjust="spacing" textLength="110" x="1285" y="624.8936">maskImage(image)</text><line style="stroke:#A80036;stroke-width:1.0;stroke-dasharray:2.0,2.0;" x1="1278" x2="1320" y1="683.1016" y2="683.1016"/><line style="stroke:#A80036;stroke-width:1.0;stroke-dasharray:2.0,2.0;" x1="1320" x2="1320" y1="683.1016" y2="696.1016"/><line style="stroke:#A80036;stroke-width:1.0;stroke-dasharray:2.0,2.0;" x1="1273" x2="1320" y1="696.1016" y2="696.1016"/><polygon fill="#A80036" points="1283,692.1016,1273,696.1016,1283,700.1016,1279,696.1016" style="stroke:#A80036;stroke-width:1.0;"/><text fill="#000000" font-family="sans-serif" font-size="13" lengthAdjust="spacing" textLength="81" x="1285" y="678.2451">maskedImage</text><path d="M1200.5,706.1016 L1273.5,706.1016 L1273.5,714.1016 L1263.5,724.1016 L1200.5,724.1016 L1200.5,706.1016 " fill="#EEEEEE" style="stroke:#000000;stroke-width:1.0;"/><rect fill="none" height="94.0547" style="stroke:#000000;stroke-width:2.0;" width="292" x="1200.5" y="706.1016"/><text fill="#000000" font-family="sans-serif" font-size="13" font-weight="bold" lengthAdjust="spacing" textLength="28" x="1215.5" y="720.5967">loop</text><text fill="#000000" font-family="sans-serif" font-size="11" font-weight="bold" lengthAdjust="spacing" textLength="77" x="1288.5" y="719.5205">[i in contours]</text><path d="M1210.5,731.4531 L1271.5,731.4531 L1271.5,739.4531 L1261.5,749.4531 L1210.5,749.4531 L1210.5,731.4531 " fill="#EEEEEE" style="stroke:#000000;stroke-width:1.0;"/><rect fill="none" height="61.7031" style="stroke:#000000;stroke-width:2.0;" width="272" x="1210.5" y="731.4531"/><text fill="#000000" font-family="sans-serif" font-size="13" font-weight="bold" lengthAdjust="spacing" textLength="16" x="1225.5" y="745.9482">alt</text><text fill="#000000" font-family="sans-serif" font-size="11" font-weight="bold" lengthAdjust="spacing" textLength="191" x="1286.5" y="744.8721">[maxSize &gt; contourArea &gt; minsize]</text><line style="stroke:#A80036;stroke-width:1.0;" x1="1273" x2="1320" y1="767.1563" y2="767.1563"/><line style="stroke:#A80036;stroke-width:1.0;" x1="1320" x2="1320" y1="767.1563" y2="780.1563"/><line style="stroke:#A80036;stroke-width:1.0;" x1="1279" x2="1320" y1="780.1563" y2="780.1563"/><polygon fill="#A80036" points="1289,776.1563,1279,780.1563,1289,784.1563,1285,780.1563" style="stroke:#A80036;stroke-width:1.0;"/><text fill="#000000" font-family="sans-serif" font-size="13" lengthAdjust="spacing" textLength="164" x="1285" y="762.2998">correctFood(contours, cnt, i)</text><line style="stroke:#A80036;stroke-width:1.0;stroke-dasharray:2.0,2.0;" x1="1278" x2="1320" y1="834.5078" y2="834.5078"/><line style="stroke:#A80036;stroke-width:1.0;stroke-dasharray:2.0,2.0;" x1="1320" x2="1320" y1="834.5078" y2="847.5078"/><line style="stroke:#A80036;stroke-width:1.0;stroke-dasharray:2.0,2.0;" x1="1273" x2="1320" y1="847.5078" y2="847.5078"/><polygon fill="#A80036" points="1283,843.5078,1273,847.5078,1283,851.5078,1279,847.5078" style="stroke:#A80036;stroke-width:1.0;"/><text fill="#000000" font-family="sans-serif" font-size="13" lengthAdjust="spacing" textLength="45" x="1285" y="829.6514">foodList</text><polygon fill="#A80036" points="509,868.8594,499,872.8594,509,876.8594,505,872.8594" style="stroke:#A80036;stroke-width:1.0;"/><line style="stroke:#A80036;stroke-width:1.0;stroke-dasharray:2.0,2.0;" x1="503" x2="1267" y1="872.8594" y2="872.8594"/><text fill="#000000" font-family="sans-serif" font-size="13" lengthAdjust="spacing" textLength="32" x="515" y="868.0029">pasta</text><polygon fill="#A80036" points="1439,899.2109,1449,903.2109,1439,907.2109,1443,903.2109" style="stroke:#A80036;stroke-width:1.0;"/><line style="stroke:#A80036;stroke-width:1.0;" x1="498" x2="1445" y1="903.2109" y2="903.2109"/><text fill="#000000" font-family="sans-serif" font-size="13" lengthAdjust="spacing" textLength="401" x="505" y="898.3545">findFood(panImage, minH, minS, minV, maxH, maxS, maxV, blurVal)</text><line style="stroke:#A80036;stroke-width:1.0;" x1="1461" x2="1508" y1="928.5625" y2="928.5625"/><line style="stroke:#A80036;stroke-width:1.0;" x1="1508" x2="1508" y1="928.5625" y2="941.5625"/><line style="stroke:#A80036;stroke-width:1.0;" x1="1467" x2="1508" y1="941.5625" y2="941.5625"/><polygon fill="#A80036" points="1477,937.5625,1467,941.5625,1477,945.5625,1473,941.5625" style="stroke:#A80036;stroke-width:1.0;"/><text fill="#000000" font-family="sans-serif" font-size="13" lengthAdjust="spacing" textLength="110" x="1473" y="923.7061">maskImage(image)</text><line style="stroke:#A80036;stroke-width:1.0;stroke-dasharray:2.0,2.0;" x1="1466" x2="1508" y1="981.9141" y2="981.9141"/><line style="stroke:#A80036;stroke-width:1.0;stroke-dasharray:2.0,2.0;" x1="1508" x2="1508" y1="981.9141" y2="994.9141"/><line style="stroke:#A80036;stroke-width:1.0;stroke-dasharray:2.0,2.0;" x1="1461" x2="1508" y1="994.9141" y2="994.9141"/><polygon fill="#A80036" points="1471,990.9141,1461,994.9141,1471,998.9141,1467,994.9141" style="stroke:#A80036;stroke-width:1.0;"/><text fill="#000000" font-family="sans-serif" font-size="13" lengthAdjust="spacing" textLength="81" x="1473" y="977.0576">maskedImage</text><path d="M1390,1004.9141 L1463,1004.9141 L1463,1012.9141 L1453,1022.9141 L1390,1022.9141 L1390,1004.9141 " fill="#EEEEEE" style="stroke:#000000;stroke-width:1.0;"/><rect fill="none" height="94.0547" style="stroke:#000000;stroke-width:2.0;" width="292" x="1390" y="1004.9141"/><text fill="#000000" font-family="sans-serif" font-size="13" font-weight="bold" lengthAdjust="spacing" textLength="28" x="1405" y="1019.4092">loop</text><text fill="#000000" font-family="sans-serif" font-size="11" font-weight="bold" lengthAdjust="spacing" textLength="77" x="1478" y="1018.333">[i in contours]</text><path d="M1400,1030.2656 L1461,1030.2656 L1461,1038.2656 L1451,1048.2656 L1400,1048.2656 L1400,1030.2656 " fill="#EEEEEE" style="stroke:#000000;stroke-width:1.0;"/><rect fill="none" height="61.7031" style="stroke:#000000;stroke-width:2.0;" width="272" x="1400" y="1030.2656"/><text fill="#000000" font-family="sans-serif" font-size="13" font-weight="bold" lengthAdjust="spacing" textLength="16" x="1415" y="1044.7607">alt</text><text fill="#000000" font-family="sans-serif" font-size="11" font-weight="bold" lengthAdjust="spacing" textLength="191" x="1476" y="1043.6846">[maxSize &gt; contourArea &gt; minsize]</text><line style="stroke:#A80036;stroke-width:1.0;" x1="1461" x2="1508" y1="1065.9688" y2="1065.9688"/><line style="stroke:#A80036;stroke-width:1.0;" x1="1508" x2="1508" y1="1065.9688" y2="1078.9688"/><line style="stroke:#A80036;stroke-width:1.0;" x1="1467" x2="1508" y1="1078.9688" y2="1078.9688"/><polygon fill="#A80036" points="1477,1074.9688,1467,1078.9688,1477,1082.9688,1473,1078.9688" style="stroke:#A80036;stroke-width:1.0;"/><text fill="#000000" font-family="sans-serif" font-size="13" lengthAdjust="spacing" textLength="164" x="1473" y="1061.1123">correctFood(contours, cnt, i)</text><line style="stroke:#A80036;stroke-width:1.0;stroke-dasharray:2.0,2.0;" x1="1466" x2="1508" y1="1133.3203" y2="1133.3203"/><line style="stroke:#A80036;stroke-width:1.0;stroke-dasharray:2.0,2.0;" x1="1508" x2="1508" y1="1133.3203" y2="1146.3203"/><line style="stroke:#A80036;stroke-width:1.0;stroke-dasharray:2.0,2.0;" x1="1461" x2="1508" y1="1146.3203" y2="1146.3203"/><polygon fill="#A80036" points="1471,1142.3203,1461,1146.3203,1471,1150.3203,1467,1146.3203" style="stroke:#A80036;stroke-width:1.0;"/><text fill="#000000" font-family="sans-serif" font-size="13" lengthAdjust="spacing" textLength="45" x="1473" y="1128.4639">foodList</text><polygon fill="#A80036" points="509,1167.6719,499,1171.6719,509,1175.6719,505,1171.6719" style="stroke:#A80036;stroke-width:1.0;"/><line style="stroke:#A80036;stroke-width:1.0;stroke-dasharray:2.0,2.0;" x1="503" x2="1455" y1="1171.6719" y2="1171.6719"/><text fill="#000000" font-family="sans-serif" font-size="13" lengthAdjust="spacing" textLength="35" x="515" y="1166.8154">beans</text><polygon fill="#A80036" points="271.5,1198.0234,261.5,1202.0234,271.5,1206.0234,267.5,1202.0234" style="stroke:#A80036;stroke-width:1.0;"/><line style="stroke:#A80036;stroke-width:1.0;stroke-dasharray:2.0,2.0;" x1="265.5" x2="492" y1="1202.0234" y2="1202.0234"/><text fill="#000000" font-family="sans-serif" font-size="13" lengthAdjust="spacing" textLength="31" x="277.5" y="1197.167">foods</text><path d="M190.5,1217.0234 L251.5,1217.0234 L251.5,1225.0234 L241.5,1235.0234 L190.5,1235.0234 L190.5,1217.0234 " fill="#EEEEEE" style="stroke:#000000;stroke-width:1.0;"/><rect fill="none" height="293.5156" style="stroke:#000000;stroke-width:2.0;" width="1499" x="190.5" y="1217.0234"/><text fill="#000000" font-family="sans-serif" font-size="13" font-weight="bold" lengthAdjust="spacing" textLength="16" x="205.5" y="1231.5186">alt</text><text fill="#000000" font-family="sans-serif" font-size="11" font-weight="bold" lengthAdjust="spacing" textLength="64" x="266.5" y="1230.4424">[foods != 0:]</text><path d="M200.5,1242.375 L273.5,1242.375 L273.5,1250.375 L263.5,1260.375 L200.5,1260.375 L200.5,1242.375 " fill="#EEEEEE" style="stroke:#000000;stroke-width:1.0;"/><rect fill="none" height="261.1641" style="stroke:#000000;stroke-width:2.0;" width="1479" x="200.5" y="1242.375"/><text fill="#000000" font-family="sans-serif" font-size="13" font-weight="bold" lengthAdjust="spacing" textLength="28" x="215.5" y="1256.8701">loop</text><text fill="#000000" font-family="sans-serif" font-size="11" font-weight="bold" lengthAdjust="spacing" textLength="86" x="288.5" y="1255.7939">[food in Foods:]</text><polygon fill="#A80036" points="1627,1279.0781,1637,1283.0781,1627,1287.0781,1631,1283.0781" style="stroke:#A80036;stroke-width:1.0;"/><line style="stroke:#A80036;stroke-width:1.0;" x1="260.5" x2="1633" y1="1283.0781" y2="1283.0781"/><text fill="#000000" font-family="sans-serif" font-size="13" lengthAdjust="spacing" textLength="53" x="267.5" y="1278.2217">getArea()</text><polygon fill="#A80036" points="271.5,1309.4297,261.5,1313.4297,271.5,1317.4297,267.5,1313.4297" style="stroke:#A80036;stroke-width:1.0;"/><line style="stroke:#A80036;stroke-width:1.0;stroke-dasharray:2.0,2.0;" x1="265.5" x2="1643" y1="1313.4297" y2="1313.4297"/><text fill="#000000" font-family="sans-serif" font-size="13" lengthAdjust="spacing" textLength="25" x="277.5" y="1308.5732">area</text><polygon fill="#A80036" points="1627,1339.7813,1637,1343.7813,1627,1347.7813,1631,1343.7813" style="stroke:#A80036;stroke-width:1.0;"/><line style="stroke:#A80036;stroke-width:1.0;" x1="260.5" x2="1633" y1="1343.7813" y2="1343.7813"/><text fill="#000000" font-family="sans-serif" font-size="13" lengthAdjust="spacing" textLength="82" x="267.5" y="1338.9248">getPerimeter()</text><polygon fill="#A80036" points="271.5,1370.1328,261.5,1374.1328,271.5,1378.1328,267.5,1374.1328" style="stroke:#A80036;stroke-width:1.0;"/><line style="stroke:#A80036;stroke-width:1.0;stroke-dasharray:2.0,2.0;" x1="265.5" x2="1643" y1="1374.1328" y2="1374.1328"/><text fill="#000000" font-family="sans-serif" font-size="13" lengthAdjust="spacing" textLength="54" x="277.5" y="1369.2764">perimeter</text><polygon fill="#A80036" points="1627,1400.4844,1637,1404.4844,1627,1408.4844,1631,1404.4844" style="stroke:#A80036;stroke-width:1.0;"/><line style="stroke:#A80036;stroke-width:1.0;" x1="260.5" x2="1633" y1="1404.4844" y2="1404.4844"/><text fill="#000000" font-family="sans-serif" font-size="13" lengthAdjust="spacing" textLength="108" x="267.5" y="1399.6279">getProminentHue()</text><polygon fill="#A80036" points="271.5,1430.8359,261.5,1434.8359,271.5,1438.8359,267.5,1434.8359" style="stroke:#A80036;stroke-width:1.0;"/><line style="stroke:#A80036;stroke-width:1.0;stroke-dasharray:2.0,2.0;" x1="265.5" x2="1643" y1="1434.8359" y2="1434.8359"/><text fill="#000000" font-family="sans-serif" font-size="13" lengthAdjust="spacing" textLength="80" x="277.5" y="1429.9795">prominentHue</text><polygon fill="#A80036" points="1627,1461.1875,1637,1465.1875,1627,1469.1875,1631,1465.1875" style="stroke:#A80036;stroke-width:1.0;"/><line style="stroke:#A80036;stroke-width:1.0;" x1="260.5" x2="1633" y1="1465.1875" y2="1465.1875"/><text fill="#000000" font-family="sans-serif" font-size="13" lengthAdjust="spacing" textLength="63" x="267.5" y="1460.3311">getShape()</text><polygon fill="#A80036" points="271.5,1491.5391,261.5,1495.5391,271.5,1499.5391,267.5,1495.5391" style="stroke:#A80036;stroke-width:1.0;"/><line style="stroke:#A80036;stroke-width:1.0;stroke-dasharray:2.0,2.0;" x1="265.5" x2="1643" y1="1495.5391" y2="1495.5391"/><text fill="#000000" font-family="sans-serif" font-size="13" lengthAdjust="spacing" textLength="35" x="277.5" y="1490.6826">shape</text><polygon fill="#A80036" points="118.5,1542.8906,108.5,1546.8906,118.5,1550.8906,114.5,1546.8906" style="stroke:#A80036;stroke-width:1.0;"/><line style="stroke:#A80036;stroke-width:1.0;stroke-dasharray:2.0,2.0;" x1="112.5" x2="254.5" y1="1546.8906" y2="1546.8906"/><text fill="#000000" font-family="sans-serif" font-size="13" lengthAdjust="spacing" textLength="43" x="124.5" y="1542.0342">dataset</text><polygon fill="#A80036" points="33.5,1573.2422,23.5,1577.2422,33.5,1581.2422,29.5,1577.2422" style="stroke:#A80036;stroke-width:1.0;"/><line style="stroke:#A80036;stroke-width:1.0;stroke-dasharray:2.0,2.0;" x1="27.5" x2="101.5" y1="1577.2422" y2="1577.2422"/><text fill="#000000" font-family="sans-serif" font-size="13" lengthAdjust="spacing" textLength="35" x="39.5" y="1572.3857">model</text><!--MD5=[3add145d64d5d15630c58c38a6a08d94]
@startuml Sequence diagram train food

actor User

User -> Train ++ : food_path
Train -> Fetch_data ++ : fetch_data(food_path)
loop filename in file_list
    Fetch_data -> Pan ** : init(food_image)
    Fetch_data -> Pan ++ : getMasked()
    return pan_Image
    Fetch_data -> Food_recognition ++ : recognize(panImage)
    Food_recognition -> MeatballDetect ++ : findFood(panImage, minH, minS, minV, maxH, maxS, maxV, blurVal)
    alt circles is not None
        loop i in circles
            MeatballDetect -> MeatballDetect ++ : meatballCrop(maskedMeatballs, x, y, r)
            return out, x, y, r
            MeatballDetect -> Meatball ** : (meatballImage, x, y, r, r)
        end
    end
    return meatballs
    Food_recognition -> PastaDetect ++ : findFood(panImage, minH, minS, minV, maxH, maxS, maxV, blurVal)
    PastaDetect -> PastaDetect ++ : maskImage(image)
    return maskedImage
    loop i in contours
        alt maxSize > contourArea > minsize
            PastaDetect -> PastaDetect ++ : correctFood(contours, cnt, i)
        end
    end
    return foodList
    return pasta
    Food_recognition -> BeanDetect ++ : findFood(panImage, minH, minS, minV, maxH, maxS, maxV, blurVal)
    BeanDetect -> BeanDetect ++ : maskImage(image)
    return maskedImage
    loop i in contours
        alt maxSize > contourArea > minsize
            BeanDetect -> BeanDetect ++ : correctFood(contours, cnt, i)
        end
    end
    return foodList
    return beans
    return foods

    alt foods != 0:
        loop food in Foods:
            Fetch_data -> Food ++ : getArea()
            return area
            Fetch_data -> Food ++ : getPerimeter()
            return perimeter
            Fetch_data -> Food ++ : getProminentHue()
            return prominentHue
            Fetch_data -> Food ++ : getShape()
            return shape
        end
    end
end
return dataset
return model

@enduml

PlantUML version 1.2021.14(Fri Nov 12 17:46:50 CET 2021)
(GPL source distribution)
Java Runtime: Java(TM) SE Runtime Environment
JVM: Java HotSpot(TM) 64-Bit Server VM
Default Encoding: Cp1252
Language: nl
Country: NL
--></g></svg>