<?xml version="1.0" encoding="UTF-8" standalone="no"?><svg xmlns="http://www.w3.org/2000/svg" xmlns:xlink="http://www.w3.org/1999/xlink" contentScriptType="application/ecmascript" contentStyleType="text/css" height="838px" preserveAspectRatio="none" style="width:803px;height:838px;background:#FFFFFF;" version="1.1" viewBox="0 0 803 838" width="803px" zoomAndPan="magnify"><defs><filter height="300%" id="fsqkx8l8fkhk1" width="300%" x="-1" y="-1"><feGaussianBlur result="blurOut" stdDeviation="2.0"/><feColorMatrix in="blurOut" result="blurOut2" type="matrix" values="0 0 0 0 0 0 0 0 0 0 0 0 0 0 0 0 0 0 .4 0"/><feOffset dx="4.0" dy="4.0" in="blurOut2" result="blurOut3"/><feBlend in="SourceGraphic" in2="blurOut3" mode="normal"/></filter></defs><g><rect fill="#FFFFFF" filter="url(#fsqkx8l8fkhk1)" height="613.1953" style="stroke:#A80036;stroke-width:1.0;" width="10" x="82.5" y="121.9609"/><rect fill="#FFFFFF" filter="url(#fsqkx8l8fkhk1)" height="91.0547" style="stroke:#A80036;stroke-width:1.0;" width="10" x="184.5" y="306.2344"/><rect fill="#FFFFFF" filter="url(#fsqkx8l8fkhk1)" height="30.3516" style="stroke:#A80036;stroke-width:1.0;" width="10" x="614.5" y="336.5859"/><rect fill="#FFFFFF" filter="url(#fsqkx8l8fkhk1)" height="30.3516" style="stroke:#A80036;stroke-width:1.0;" width="10" x="682" y="245.5313"/><rect fill="#FFFFFF" filter="url(#fsqkx8l8fkhk1)" height="30.3516" style="stroke:#A80036;stroke-width:1.0;" width="10" x="739" y="478.3438"/><rect fill="#FFFFFF" filter="url(#fsqkx8l8fkhk1)" height="30.3516" style="stroke:#A80036;stroke-width:1.0;" width="10" x="739" y="539.0469"/><rect fill="#FFFFFF" filter="url(#fsqkx8l8fkhk1)" height="30.3516" style="stroke:#A80036;stroke-width:1.0;" width="10" x="739" y="599.75"/><rect fill="#FFFFFF" filter="url(#fsqkx8l8fkhk1)" height="30.3516" style="stroke:#A80036;stroke-width:1.0;" width="10" x="739" y="660.4531"/><rect fill="#FFFFFF" filter="url(#fsqkx8l8fkhk1)" height="293.5156" style="stroke:#000000;stroke-width:2.0;" width="749.5" x="40" y="412.2891"/><rect fill="#FFFFFF" filter="url(#fsqkx8l8fkhk1)" height="261.1641" style="stroke:#000000;stroke-width:2.0;" width="729.5" x="50" y="437.6406"/><line style="stroke:#A80036;stroke-width:1.0;stroke-dasharray:5.0,5.0;" x1="22" x2="22" y1="89.6094" y2="753.1563"/><line style="stroke:#A80036;stroke-width:1.0;stroke-dasharray:5.0,5.0;" x1="87" x2="87" y1="89.6094" y2="753.1563"/><line style="stroke:#A80036;stroke-width:1.0;stroke-dasharray:5.0,5.0;" x1="189" x2="189" y1="89.6094" y2="753.1563"/><line style="stroke:#A80036;stroke-width:1.0;stroke-dasharray:5.0,5.0;" x1="619.5" x2="619.5" y1="163.2656" y2="753.1563"/><line style="stroke:#A80036;stroke-width:1.0;stroke-dasharray:5.0,5.0;" x1="686.5" x2="686.5" y1="209.875" y2="753.1563"/><line style="stroke:#A80036;stroke-width:1.0;stroke-dasharray:5.0,5.0;" x1="743.5" x2="743.5" y1="89.6094" y2="753.1563"/><text fill="#000000" font-family="sans-serif" font-size="14" lengthAdjust="spacing" textLength="29" x="5" y="86.5332">User</text><ellipse cx="22.5" cy="15" fill="#FEFECE" filter="url(#fsqkx8l8fkhk1)" rx="8" ry="8" style="stroke:#A80036;stroke-width:2.0;"/><path d="M22.5,23 L22.5,50 M9.5,31 L35.5,31 M22.5,50 L9.5,65 M22.5,50 L35.5,65 " fill="none" filter="url(#fsqkx8l8fkhk1)" style="stroke:#A80036;stroke-width:2.0;"/><text fill="#000000" font-family="sans-serif" font-size="14" lengthAdjust="spacing" textLength="29" x="5" y="766.6895">User</text><ellipse cx="22.5" cy="779.7656" fill="#FEFECE" filter="url(#fsqkx8l8fkhk1)" rx="8" ry="8" style="stroke:#A80036;stroke-width:2.0;"/><path d="M22.5,787.7656 L22.5,814.7656 M9.5,795.7656 L35.5,795.7656 M22.5,814.7656 L9.5,829.7656 M22.5,814.7656 L35.5,829.7656 " fill="none" filter="url(#fsqkx8l8fkhk1)" style="stroke:#A80036;stroke-width:2.0;"/><rect fill="#FEFECE" filter="url(#fsqkx8l8fkhk1)" height="31.6094" style="stroke:#A80036;stroke-width:1.5;" width="51" x="60" y="53"/><text fill="#000000" font-family="sans-serif" font-size="14" lengthAdjust="spacing" textLength="37" x="67" y="74.5332">Demo</text><rect fill="#FEFECE" filter="url(#fsqkx8l8fkhk1)" height="31.6094" style="stroke:#A80036;stroke-width:1.5;" width="51" x="60" y="752.1563"/><text fill="#000000" font-family="sans-serif" font-size="14" lengthAdjust="spacing" textLength="37" x="67" y="773.6895">Demo</text><rect fill="#FEFECE" filter="url(#fsqkx8l8fkhk1)" height="31.6094" style="stroke:#A80036;stroke-width:1.5;" width="125" x="125" y="53"/><text fill="#000000" font-family="sans-serif" font-size="14" lengthAdjust="spacing" textLength="111" x="132" y="74.5332">Food_recognition</text><rect fill="#FEFECE" filter="url(#fsqkx8l8fkhk1)" height="31.6094" style="stroke:#A80036;stroke-width:1.5;" width="125" x="125" y="752.1563"/><text fill="#000000" font-family="sans-serif" font-size="14" lengthAdjust="spacing" textLength="111" x="132" y="773.6895">Food_recognition</text><rect fill="#FEFECE" filter="url(#fsqkx8l8fkhk1)" height="31.6094" style="stroke:#A80036;stroke-width:1.5;" width="68" x="583.5" y="752.1563"/><text fill="#000000" font-family="sans-serif" font-size="14" lengthAdjust="spacing" textLength="54" x="590.5" y="773.6895">Detector</text><rect fill="#FEFECE" filter="url(#fsqkx8l8fkhk1)" height="31.6094" style="stroke:#A80036;stroke-width:1.5;" width="39" x="665.5" y="752.1563"/><text fill="#000000" font-family="sans-serif" font-size="14" lengthAdjust="spacing" textLength="25" x="672.5" y="773.6895">Pan</text><rect fill="#FEFECE" filter="url(#fsqkx8l8fkhk1)" height="31.6094" style="stroke:#A80036;stroke-width:1.5;" width="47" x="718.5" y="53"/><text fill="#000000" font-family="sans-serif" font-size="14" lengthAdjust="spacing" textLength="33" x="725.5" y="74.5332">Food</text><rect fill="#FEFECE" filter="url(#fsqkx8l8fkhk1)" height="31.6094" style="stroke:#A80036;stroke-width:1.5;" width="47" x="718.5" y="752.1563"/><text fill="#000000" font-family="sans-serif" font-size="14" lengthAdjust="spacing" textLength="33" x="725.5" y="773.6895">Food</text><rect fill="#FFFFFF" filter="url(#fsqkx8l8fkhk1)" height="613.1953" style="stroke:#A80036;stroke-width:1.0;" width="10" x="82.5" y="121.9609"/><rect fill="#FFFFFF" filter="url(#fsqkx8l8fkhk1)" height="91.0547" style="stroke:#A80036;stroke-width:1.0;" width="10" x="184.5" y="306.2344"/><rect fill="#FFFFFF" filter="url(#fsqkx8l8fkhk1)" height="30.3516" style="stroke:#A80036;stroke-width:1.0;" width="10" x="614.5" y="336.5859"/><rect fill="#FFFFFF" filter="url(#fsqkx8l8fkhk1)" height="30.3516" style="stroke:#A80036;stroke-width:1.0;" width="10" x="682" y="245.5313"/><rect fill="#FFFFFF" filter="url(#fsqkx8l8fkhk1)" height="30.3516" style="stroke:#A80036;stroke-width:1.0;" width="10" x="739" y="478.3438"/><rect fill="#FFFFFF" filter="url(#fsqkx8l8fkhk1)" height="30.3516" style="stroke:#A80036;stroke-width:1.0;" width="10" x="739" y="539.0469"/><rect fill="#FFFFFF" filter="url(#fsqkx8l8fkhk1)" height="30.3516" style="stroke:#A80036;stroke-width:1.0;" width="10" x="739" y="599.75"/><rect fill="#FFFFFF" filter="url(#fsqkx8l8fkhk1)" height="30.3516" style="stroke:#A80036;stroke-width:1.0;" width="10" x="739" y="660.4531"/><polygon fill="#A80036" points="70.5,117.9609,80.5,121.9609,70.5,125.9609,74.5,121.9609" style="stroke:#A80036;stroke-width:1.0;"/><line style="stroke:#A80036;stroke-width:1.0;" x1="22.5" x2="76.5" y1="121.9609" y2="121.9609"/><text fill="#000000" font-family="sans-serif" font-size="13" lengthAdjust="spacing" textLength="35" x="29.5" y="117.1045">image</text><polygon fill="#A80036" points="571.5,148.3125,581.5,152.3125,571.5,156.3125,575.5,152.3125" style="stroke:#A80036;stroke-width:1.0;"/><line style="stroke:#A80036;stroke-width:1.0;" x1="92.5" x2="577.5" y1="152.3125" y2="152.3125"/><text fill="#000000" font-family="sans-serif" font-size="13" lengthAdjust="spacing" textLength="77" x="99.5" y="147.4561">init(foodType)</text><rect fill="#FEFECE" filter="url(#fsqkx8l8fkhk1)" height="31.6094" style="stroke:#A80036;stroke-width:1.5;" width="68" x="583.5" y="129.9609"/><text fill="#000000" font-family="sans-serif" font-size="14" lengthAdjust="spacing" textLength="54" x="590.5" y="151.4941">Detector</text><polygon fill="#A80036" points="653.5,194.9219,663.5,198.9219,653.5,202.9219,657.5,198.9219" style="stroke:#A80036;stroke-width:1.0;"/><line style="stroke:#A80036;stroke-width:1.0;" x1="92.5" x2="659.5" y1="198.9219" y2="198.9219"/><text fill="#000000" font-family="sans-serif" font-size="13" lengthAdjust="spacing" textLength="60" x="99.5" y="194.0654">init(image)</text><rect fill="#FEFECE" filter="url(#fsqkx8l8fkhk1)" height="31.6094" style="stroke:#A80036;stroke-width:1.5;" width="39" x="665.5" y="176.5703"/><text fill="#000000" font-family="sans-serif" font-size="14" lengthAdjust="spacing" textLength="25" x="672.5" y="198.1035">Pan</text><polygon fill="#A80036" points="670,241.5313,680,245.5313,670,249.5313,674,245.5313" style="stroke:#A80036;stroke-width:1.0;"/><line style="stroke:#A80036;stroke-width:1.0;" x1="92.5" x2="676" y1="245.5313" y2="245.5313"/><text fill="#000000" font-family="sans-serif" font-size="13" lengthAdjust="spacing" textLength="72" x="99.5" y="240.6748">getMasked()</text><polygon fill="#A80036" points="103.5,271.8828,93.5,275.8828,103.5,279.8828,99.5,275.8828" style="stroke:#A80036;stroke-width:1.0;"/><line style="stroke:#A80036;stroke-width:1.0;stroke-dasharray:2.0,2.0;" x1="97.5" x2="686" y1="275.8828" y2="275.8828"/><text fill="#000000" font-family="sans-serif" font-size="13" lengthAdjust="spacing" textLength="56" x="109.5" y="271.0264">panImage</text><polygon fill="#A80036" points="172.5,302.2344,182.5,306.2344,172.5,310.2344,176.5,306.2344" style="stroke:#A80036;stroke-width:1.0;"/><line style="stroke:#A80036;stroke-width:1.0;" x1="92.5" x2="178.5" y1="306.2344" y2="306.2344"/><text fill="#000000" font-family="sans-serif" font-size="13" lengthAdjust="spacing" textLength="64" x="99.5" y="301.3779">recognize()</text><polygon fill="#A80036" points="602.5,332.5859,612.5,336.5859,602.5,340.5859,606.5,336.5859" style="stroke:#A80036;stroke-width:1.0;"/><line style="stroke:#A80036;stroke-width:1.0;" x1="194.5" x2="608.5" y1="336.5859" y2="336.5859"/><text fill="#000000" font-family="sans-serif" font-size="13" lengthAdjust="spacing" textLength="401" x="201.5" y="331.7295">findFood(panImage, minH, minS, minV, maxH, maxS, maxV, blurVal)</text><polygon fill="#A80036" points="205.5,362.9375,195.5,366.9375,205.5,370.9375,201.5,366.9375" style="stroke:#A80036;stroke-width:1.0;"/><line style="stroke:#A80036;stroke-width:1.0;stroke-dasharray:2.0,2.0;" x1="199.5" x2="618.5" y1="366.9375" y2="366.9375"/><text fill="#000000" font-family="sans-serif" font-size="13" lengthAdjust="spacing" textLength="24" x="211.5" y="362.0811">food</text><polygon fill="#A80036" points="103.5,393.2891,93.5,397.2891,103.5,401.2891,99.5,397.2891" style="stroke:#A80036;stroke-width:1.0;"/><line style="stroke:#A80036;stroke-width:1.0;stroke-dasharray:2.0,2.0;" x1="97.5" x2="188.5" y1="397.2891" y2="397.2891"/><text fill="#000000" font-family="sans-serif" font-size="13" lengthAdjust="spacing" textLength="31" x="109.5" y="392.4326">foods</text><path d="M40,412.2891 L101,412.2891 L101,420.2891 L91,430.2891 L40,430.2891 L40,412.2891 " fill="#EEEEEE" style="stroke:#000000;stroke-width:1.0;"/><rect fill="none" height="293.5156" style="stroke:#000000;stroke-width:2.0;" width="749.5" x="40" y="412.2891"/><text fill="#000000" font-family="sans-serif" font-size="13" font-weight="bold" lengthAdjust="spacing" textLength="16" x="55" y="426.7842">alt</text><text fill="#000000" font-family="sans-serif" font-size="11" font-weight="bold" lengthAdjust="spacing" textLength="64" x="116" y="425.708">[foods != 0:]</text><path d="M50,437.6406 L123,437.6406 L123,445.6406 L113,455.6406 L50,455.6406 L50,437.6406 " fill="#EEEEEE" style="stroke:#000000;stroke-width:1.0;"/><rect fill="none" height="261.1641" style="stroke:#000000;stroke-width:2.0;" width="729.5" x="50" y="437.6406"/><text fill="#000000" font-family="sans-serif" font-size="13" font-weight="bold" lengthAdjust="spacing" textLength="28" x="65" y="452.1357">loop</text><text fill="#000000" font-family="sans-serif" font-size="11" font-weight="bold" lengthAdjust="spacing" textLength="86" x="138" y="451.0596">[food in Foods:]</text><polygon fill="#A80036" points="727,474.3438,737,478.3438,727,482.3438,731,478.3438" style="stroke:#A80036;stroke-width:1.0;"/><line style="stroke:#A80036;stroke-width:1.0;" x1="92.5" x2="733" y1="478.3438" y2="478.3438"/><text fill="#000000" font-family="sans-serif" font-size="13" lengthAdjust="spacing" textLength="53" x="99.5" y="473.4873">getArea()</text><polygon fill="#A80036" points="103.5,504.6953,93.5,508.6953,103.5,512.6953,99.5,508.6953" style="stroke:#A80036;stroke-width:1.0;"/><line style="stroke:#A80036;stroke-width:1.0;stroke-dasharray:2.0,2.0;" x1="97.5" x2="743" y1="508.6953" y2="508.6953"/><text fill="#000000" font-family="sans-serif" font-size="13" lengthAdjust="spacing" textLength="25" x="109.5" y="503.8389">area</text><polygon fill="#A80036" points="727,535.0469,737,539.0469,727,543.0469,731,539.0469" style="stroke:#A80036;stroke-width:1.0;"/><line style="stroke:#A80036;stroke-width:1.0;" x1="92.5" x2="733" y1="539.0469" y2="539.0469"/><text fill="#000000" font-family="sans-serif" font-size="13" lengthAdjust="spacing" textLength="82" x="99.5" y="534.1904">getPerimeter()</text><polygon fill="#A80036" points="103.5,565.3984,93.5,569.3984,103.5,573.3984,99.5,569.3984" style="stroke:#A80036;stroke-width:1.0;"/><line style="stroke:#A80036;stroke-width:1.0;stroke-dasharray:2.0,2.0;" x1="97.5" x2="743" y1="569.3984" y2="569.3984"/><text fill="#000000" font-family="sans-serif" font-size="13" lengthAdjust="spacing" textLength="54" x="109.5" y="564.542">perimeter</text><polygon fill="#A80036" points="727,595.75,737,599.75,727,603.75,731,599.75" style="stroke:#A80036;stroke-width:1.0;"/><line style="stroke:#A80036;stroke-width:1.0;" x1="92.5" x2="733" y1="599.75" y2="599.75"/><text fill="#000000" font-family="sans-serif" font-size="13" lengthAdjust="spacing" textLength="108" x="99.5" y="594.8936">getProminentHue()</text><polygon fill="#A80036" points="103.5,626.1016,93.5,630.1016,103.5,634.1016,99.5,630.1016" style="stroke:#A80036;stroke-width:1.0;"/><line style="stroke:#A80036;stroke-width:1.0;stroke-dasharray:2.0,2.0;" x1="97.5" x2="743" y1="630.1016" y2="630.1016"/><text fill="#000000" font-family="sans-serif" font-size="13" lengthAdjust="spacing" textLength="80" x="109.5" y="625.2451">prominentHue</text><polygon fill="#A80036" points="727,656.4531,737,660.4531,727,664.4531,731,660.4531" style="stroke:#A80036;stroke-width:1.0;"/><line style="stroke:#A80036;stroke-width:1.0;" x1="92.5" x2="733" y1="660.4531" y2="660.4531"/><text fill="#000000" font-family="sans-serif" font-size="13" lengthAdjust="spacing" textLength="63" x="99.5" y="655.5967">getShape()</text><polygon fill="#A80036" points="103.5,686.8047,93.5,690.8047,103.5,694.8047,99.5,690.8047" style="stroke:#A80036;stroke-width:1.0;"/><line style="stroke:#A80036;stroke-width:1.0;stroke-dasharray:2.0,2.0;" x1="97.5" x2="743" y1="690.8047" y2="690.8047"/><text fill="#000000" font-family="sans-serif" font-size="13" lengthAdjust="spacing" textLength="35" x="109.5" y="685.9482">shape</text><polygon fill="#A80036" points="33.5,731.1563,23.5,735.1563,33.5,739.1563,29.5,735.1563" style="stroke:#A80036;stroke-width:1.0;"/><line style="stroke:#A80036;stroke-width:1.0;stroke-dasharray:2.0,2.0;" x1="27.5" x2="86.5" y1="735.1563" y2="735.1563"/><text fill="#000000" font-family="sans-serif" font-size="13" lengthAdjust="spacing" textLength="36" x="39.5" y="730.2998">output</text><!--MD5=[0e09674647f6b423b76c3a07c34715c4]
@startuml Sequence diagram classify food

actor User
participant Demo
participant Food_recognition

User -> Demo ++ : image

Demo -> Detector ** : init(foodType)
Demo -> Pan ** : init(image)
Demo -> Pan ++ : getMasked()
return panImage
Demo -> Food_recognition ++ : recognize()
Food_recognition -> Detector ++ : findFood(panImage, minH, minS, minV, maxH, maxS, maxV, blurVal)
return food
return foods
alt foods != 0:
    loop food in Foods:
        Demo -> Food ++ : getArea()
        return area
        Demo -> Food ++ : getPerimeter()
        return perimeter
        Demo -> Food ++ : getProminentHue()
        return prominentHue
        Demo -> Food ++ : getShape()
        return shape
    end
end
return output

@enduml

PlantUML version 1.2021.14(Fri Nov 12 17:46:50 CET 2021)
(GPL source distribution)
Java Runtime: Java(TM) SE Runtime Environment
JVM: Java HotSpot(TM) 64-Bit Server VM
Default Encoding: Cp1252
Language: nl
Country: NL
--></g></svg>