<?xml version="1.0" encoding="UTF-8" standalone="no"?><svg xmlns="http://www.w3.org/2000/svg" xmlns:xlink="http://www.w3.org/1999/xlink" contentScriptType="application/ecmascript" contentStyleType="text/css" height="996px" preserveAspectRatio="none" style="width:1982px;height:996px;background:#FFFFFF;" version="1.1" viewBox="0 0 1982 996" width="1982px" zoomAndPan="magnify"><defs><filter height="300%" id="f1i9reaakir2ry" width="300%" x="-1" y="-1"><feGaussianBlur result="blurOut" stdDeviation="2.0"/><feColorMatrix in="blurOut" result="blurOut2" type="matrix" values="0 0 0 0 0 0 0 0 0 0 0 0 0 0 0 0 0 0 .4 0"/><feOffset dx="4.0" dy="4.0" in="blurOut2" result="blurOut3"/><feBlend in="SourceGraphic" in2="blurOut3" mode="normal"/></filter></defs><g><text fill="#000000" font-family="sans-serif" font-size="18" lengthAdjust="spacing" textLength="240" x="864.75" y="18.6855">Main Program- Class Diagram</text><!--MD5=[5e30c7d6aedd0951aa6096fd40ca287a]
class Pan--><rect codeLine="3" fill="#FEFECE" filter="url(#f1i9reaakir2ry)" height="89.5078" id="Pan" style="stroke:#A80036;stroke-width:1.5;" width="130" x="172" y="268.6406"/><ellipse cx="221.75" cy="284.6406" fill="#ADD1B2" rx="11" ry="11" style="stroke:#A80036;stroke-width:1.0;"/><path d="M224.5156,280.5156 Q224.6719,280.2969 224.8594,280.1875 Q225.0469,280.0781 225.2656,280.0781 Q225.6406,280.0781 225.875,280.3359 Q226.1094,280.5938 226.1094,281.2031 L226.1094,282.6563 Q226.1094,283.2656 225.875,283.5313 Q225.6406,283.7969 225.2656,283.7969 Q224.9219,283.7969 224.7188,283.5938 Q224.5156,283.4063 224.4063,282.8906 Q224.3594,282.5313 224.1719,282.3438 Q223.8438,281.9688 223.2344,281.75 Q222.625,281.5313 222,281.5313 Q221.2344,281.5313 220.6016,281.8594 Q219.9688,282.1875 219.4766,282.9375 Q218.9844,283.6875 218.9844,284.7188 L218.9844,285.8125 Q218.9844,287.0469 219.875,287.8672 Q220.7656,288.6875 222.3594,288.6875 Q223.2969,288.6875 223.9531,288.4375 Q224.3438,288.2813 224.7656,287.8438 Q225.0313,287.5781 225.1797,287.5 Q225.3281,287.4219 225.5313,287.4219 Q225.8594,287.4219 226.1172,287.6797 Q226.375,287.9375 226.375,288.2813 Q226.375,288.625 226.0313,289.0313 Q225.5313,289.6094 224.7344,289.9375 Q223.6563,290.3906 222.3594,290.3906 Q220.8438,290.3906 219.6406,289.7656 Q218.6563,289.2656 217.9688,288.1953 Q217.2813,287.125 217.2813,285.8438 L217.2813,284.6875 Q217.2813,283.3594 217.8984,282.2109 Q218.5156,281.0625 219.6094,280.4453 Q220.7031,279.8281 221.9375,279.8281 Q222.6719,279.8281 223.3203,279.9922 Q223.9688,280.1563 224.5156,280.5156 Z " fill="#000000"/><text fill="#000000" font-family="sans-serif" font-size="12" lengthAdjust="spacing" textLength="22" x="242.25" y="289.5508">Pan</text><line style="stroke:#A80036;stroke-width:1.5;" x1="173" x2="301" y1="300.6406" y2="300.6406"/><ellipse cx="183" cy="311.6406" rx="3" ry="3" style="stroke:#038048;stroke-width:1.0;fill:none;"/><text fill="#000000" font-family="sans-serif" font-size="11" lengthAdjust="spacing" textLength="28" x="192" y="316.0596">image</text><line style="stroke:#A80036;stroke-width:1.5;" x1="173" x2="301" y1="322.4766" y2="322.4766"/><ellipse cx="183" cy="333.4766" fill="#84BE84" rx="3" ry="3" style="stroke:#038048;stroke-width:1.0;"/><text fill="#000000" font-family="sans-serif" font-size="11" lengthAdjust="spacing" textLength="104" x="192" y="337.8955">def _init_(self, image)</text><ellipse cx="183" cy="347.3125" fill="#84BE84" rx="3" ry="3" style="stroke:#038048;stroke-width:1.0;"/><text fill="#000000" font-family="sans-serif" font-size="11" lengthAdjust="spacing" textLength="97" x="192" y="351.7314">def getMasked(self)</text><!--MD5=[a7f9118cae7621dd25d25149752faef0]
class Circle--><rect codeLine="8" fill="#FEFECE" filter="url(#f1i9reaakir2ry)" height="103.3438" id="Circle" style="stroke:#A80036;stroke-width:1.5;" width="130" x="7" y="262.1406"/><ellipse cx="51.75" cy="278.1406" fill="#ADD1B2" rx="11" ry="11" style="stroke:#A80036;stroke-width:1.0;"/><path d="M54.5156,274.0156 Q54.6719,273.7969 54.8594,273.6875 Q55.0469,273.5781 55.2656,273.5781 Q55.6406,273.5781 55.875,273.8359 Q56.1094,274.0938 56.1094,274.7031 L56.1094,276.1563 Q56.1094,276.7656 55.875,277.0313 Q55.6406,277.2969 55.2656,277.2969 Q54.9219,277.2969 54.7188,277.0938 Q54.5156,276.9063 54.4063,276.3906 Q54.3594,276.0313 54.1719,275.8438 Q53.8438,275.4688 53.2344,275.25 Q52.625,275.0313 52,275.0313 Q51.2344,275.0313 50.6016,275.3594 Q49.9688,275.6875 49.4766,276.4375 Q48.9844,277.1875 48.9844,278.2188 L48.9844,279.3125 Q48.9844,280.5469 49.875,281.3672 Q50.7656,282.1875 52.3594,282.1875 Q53.2969,282.1875 53.9531,281.9375 Q54.3438,281.7813 54.7656,281.3438 Q55.0313,281.0781 55.1797,281 Q55.3281,280.9219 55.5313,280.9219 Q55.8594,280.9219 56.1172,281.1797 Q56.375,281.4375 56.375,281.7813 Q56.375,282.125 56.0313,282.5313 Q55.5313,283.1094 54.7344,283.4375 Q53.6563,283.8906 52.3594,283.8906 Q50.8438,283.8906 49.6406,283.2656 Q48.6563,282.7656 47.9688,281.6953 Q47.2813,280.625 47.2813,279.3438 L47.2813,278.1875 Q47.2813,276.8594 47.8984,275.7109 Q48.5156,274.5625 49.6094,273.9453 Q50.7031,273.3281 51.9375,273.3281 Q52.6719,273.3281 53.3203,273.4922 Q53.9688,273.6563 54.5156,274.0156 Z " fill="#000000"/><text fill="#000000" font-family="sans-serif" font-size="12" lengthAdjust="spacing" textLength="32" x="72.25" y="283.0508">Circle</text><line style="stroke:#A80036;stroke-width:1.5;" x1="8" x2="136" y1="294.1406" y2="294.1406"/><ellipse cx="18" cy="305.1406" rx="3" ry="3" style="stroke:#038048;stroke-width:1.0;fill:none;"/><text fill="#000000" font-family="sans-serif" font-size="11" lengthAdjust="spacing" textLength="6" x="27" y="309.5596">x</text><ellipse cx="18" cy="318.9766" rx="3" ry="3" style="stroke:#038048;stroke-width:1.0;fill:none;"/><text fill="#000000" font-family="sans-serif" font-size="11" lengthAdjust="spacing" textLength="6" x="27" y="323.3955">y</text><ellipse cx="18" cy="332.8125" rx="3" ry="3" style="stroke:#038048;stroke-width:1.0;fill:none;"/><text fill="#000000" font-family="sans-serif" font-size="11" lengthAdjust="spacing" textLength="4" x="27" y="337.2314">r</text><line style="stroke:#A80036;stroke-width:1.5;" x1="8" x2="136" y1="343.6484" y2="343.6484"/><ellipse cx="18" cy="354.6484" fill="#84BE84" rx="3" ry="3" style="stroke:#038048;stroke-width:1.0;"/><text fill="#000000" font-family="sans-serif" font-size="11" lengthAdjust="spacing" textLength="104" x="27" y="359.0674">def _init_(self, x, y, r)</text><!--MD5=[426e75666daf533f17226ff4c87e20fd]
class Shape--><rect codeLine="15" fill="#FEFECE" filter="url(#f1i9reaakir2ry)" height="89.5078" id="Shape" style="stroke:#A80036;stroke-width:1.5;" width="74" x="23" y="570.1406"/><ellipse cx="40.7" cy="586.1406" fill="#EB937F" rx="11" ry="11" style="stroke:#A80036;stroke-width:1.0;"/><path d="M39.5594,586.9375 L39.5594,589.4375 L43.8875,589.4375 L43.8875,588.5156 Q43.8875,587.9063 44.1297,587.6406 Q44.3719,587.375 44.7469,587.375 Q45.1219,587.375 45.3563,587.6406 Q45.5906,587.9063 45.5906,588.5156 L45.5906,591.1406 L37.5906,591.1406 Q36.9656,591.1406 36.7078,590.9063 Q36.45,590.6719 36.45,590.2813 Q36.45,589.9063 36.7156,589.6719 Q36.9813,589.4375 37.5906,589.4375 L37.8563,589.4375 L37.8563,582.7813 L37.5906,582.7813 Q36.9656,582.7813 36.7078,582.5469 Q36.45,582.3125 36.45,581.9219 Q36.45,581.5469 36.7078,581.3125 Q36.9656,581.0781 37.5906,581.0781 L45.2156,581.0781 L45.2156,583.6719 Q45.2156,584.2813 44.9891,584.5391 Q44.7625,584.7969 44.3719,584.7969 Q43.9969,584.7969 43.7625,584.5391 Q43.5281,584.2813 43.5281,583.6719 L43.5281,582.7813 L39.5594,582.7813 L39.5594,585.2344 L41.0438,585.2344 Q41.0438,584.5781 41.1688,584.3906 Q41.4344,583.9844 41.9031,583.9844 Q42.2781,583.9844 42.5125,584.2422 Q42.7469,584.5 42.7469,585.1094 L42.7469,587.0781 Q42.7469,587.625 42.6219,587.8125 Q42.3563,588.2031 41.9031,588.2031 Q41.4344,588.2031 41.1688,587.7969 Q41.0438,587.6094 41.0438,586.9375 L39.5594,586.9375 Z " fill="#000000"/><text fill="#000000" font-family="sans-serif" font-size="12" lengthAdjust="spacing" textLength="36" x="55.3" y="591.0508">Shape</text><line style="stroke:#A80036;stroke-width:1.5;" x1="24" x2="96" y1="602.1406" y2="602.1406"/><ellipse cx="34" cy="613.1406" rx="3" ry="3" style="stroke:#038048;stroke-width:1.0;fill:none;"/><text fill="#000000" font-family="sans-serif" font-size="11" lengthAdjust="spacing" textLength="27" x="43" y="617.5596">Circle</text><ellipse cx="34" cy="626.9766" rx="3" ry="3" style="stroke:#038048;stroke-width:1.0;fill:none;"/><text fill="#000000" font-family="sans-serif" font-size="11" lengthAdjust="spacing" textLength="48" x="43" y="631.3955">Rectangle</text><ellipse cx="34" cy="640.8125" rx="3" ry="3" style="stroke:#038048;stroke-width:1.0;fill:none;"/><text fill="#000000" font-family="sans-serif" font-size="11" lengthAdjust="spacing" textLength="22" x="43" y="645.2314">Oval</text><line style="stroke:#A80036;stroke-width:1.5;" x1="24" x2="96" y1="651.6484" y2="651.6484"/><!--MD5=[5b4460e97222b45c9cf25eacd4639dbc]
class Food--><rect codeLine="21" fill="#FEFECE" filter="url(#f1i9reaakir2ry)" height="297.0469" id="Food" style="stroke:#A80036;stroke-width:1.5;" width="258" x="718" y="466.6406"/><ellipse cx="828.75" cy="482.6406" fill="#ADD1B2" rx="11" ry="11" style="stroke:#A80036;stroke-width:1.0;"/><path d="M831.5156,478.5156 Q831.6719,478.2969 831.8594,478.1875 Q832.0469,478.0781 832.2656,478.0781 Q832.6406,478.0781 832.875,478.3359 Q833.1094,478.5938 833.1094,479.2031 L833.1094,480.6563 Q833.1094,481.2656 832.875,481.5313 Q832.6406,481.7969 832.2656,481.7969 Q831.9219,481.7969 831.7188,481.5938 Q831.5156,481.4063 831.4063,480.8906 Q831.3594,480.5313 831.1719,480.3438 Q830.8438,479.9688 830.2344,479.75 Q829.625,479.5313 829,479.5313 Q828.2344,479.5313 827.6016,479.8594 Q826.9688,480.1875 826.4766,480.9375 Q825.9844,481.6875 825.9844,482.7188 L825.9844,483.8125 Q825.9844,485.0469 826.875,485.8672 Q827.7656,486.6875 829.3594,486.6875 Q830.2969,486.6875 830.9531,486.4375 Q831.3438,486.2813 831.7656,485.8438 Q832.0313,485.5781 832.1797,485.5 Q832.3281,485.4219 832.5313,485.4219 Q832.8594,485.4219 833.1172,485.6797 Q833.375,485.9375 833.375,486.2813 Q833.375,486.625 833.0313,487.0313 Q832.5313,487.6094 831.7344,487.9375 Q830.6563,488.3906 829.3594,488.3906 Q827.8438,488.3906 826.6406,487.7656 Q825.6563,487.2656 824.9688,486.1953 Q824.2813,485.125 824.2813,483.8438 L824.2813,482.6875 Q824.2813,481.3594 824.8984,480.2109 Q825.5156,479.0625 826.6094,478.4453 Q827.7031,477.8281 828.9375,477.8281 Q829.6719,477.8281 830.3203,477.9922 Q830.9688,478.1563 831.5156,478.5156 Z " fill="#000000"/><text fill="#000000" font-family="sans-serif" font-size="12" lengthAdjust="spacing" textLength="28" x="849.25" y="487.5508">Food</text><line style="stroke:#A80036;stroke-width:1.5;" x1="719" x2="975" y1="498.6406" y2="498.6406"/><ellipse cx="729" cy="509.6406" rx="3" ry="3" style="stroke:#038048;stroke-width:1.0;fill:none;"/><text fill="#000000" font-family="sans-serif" font-size="11" lengthAdjust="spacing" textLength="30" x="738" y="514.0596">shape</text><ellipse cx="729" cy="523.4766" rx="3" ry="3" style="stroke:#038048;stroke-width:1.0;fill:none;"/><text fill="#000000" font-family="sans-serif" font-size="11" lengthAdjust="spacing" textLength="6" x="738" y="527.8955">x</text><ellipse cx="729" cy="537.3125" rx="3" ry="3" style="stroke:#038048;stroke-width:1.0;fill:none;"/><text fill="#000000" font-family="sans-serif" font-size="11" lengthAdjust="spacing" textLength="6" x="738" y="541.7314">y</text><ellipse cx="729" cy="551.1484" rx="3" ry="3" style="stroke:#038048;stroke-width:1.0;fill:none;"/><text fill="#000000" font-family="sans-serif" font-size="11" lengthAdjust="spacing" textLength="27" x="738" y="555.5674">width</text><ellipse cx="729" cy="564.9844" rx="3" ry="3" style="stroke:#038048;stroke-width:1.0;fill:none;"/><text fill="#000000" font-family="sans-serif" font-size="11" lengthAdjust="spacing" textLength="29" x="738" y="569.4033">height</text><ellipse cx="729" cy="578.8203" rx="3" ry="3" style="stroke:#038048;stroke-width:1.0;fill:none;"/><text fill="#000000" font-family="sans-serif" font-size="11" lengthAdjust="spacing" textLength="22" x="738" y="583.2393">area</text><ellipse cx="729" cy="592.6563" rx="3" ry="3" style="stroke:#038048;stroke-width:1.0;fill:none;"/><text fill="#000000" font-family="sans-serif" font-size="11" lengthAdjust="spacing" textLength="72" x="738" y="597.0752">prominentColor</text><line style="stroke:#A80036;stroke-width:1.5;" x1="719" x2="975" y1="603.4922" y2="603.4922"/><ellipse cx="729" cy="614.4922" fill="#84BE84" rx="3" ry="3" style="stroke:#038048;stroke-width:1.0;"/><text fill="#000000" font-family="sans-serif" font-size="11" lengthAdjust="spacing" textLength="232" x="738" y="618.9111">def _init_(self, image, shape, x, y, width, height)</text><ellipse cx="729" cy="628.3281" fill="#84BE84" rx="3" ry="3" style="stroke:#038048;stroke-width:1.0;"/><text fill="#000000" font-family="sans-serif" font-size="11" lengthAdjust="spacing" textLength="88" x="738" y="632.7471">def getImage(self)</text><ellipse cx="729" cy="642.1641" fill="#84BE84" rx="3" ry="3" style="stroke:#038048;stroke-width:1.0;"/><text fill="#000000" font-family="sans-serif" font-size="11" lengthAdjust="spacing" textLength="91" x="738" y="646.583">def getShape(self)</text><ellipse cx="729" cy="656" fill="#84BE84" rx="3" ry="3" style="stroke:#038048;stroke-width:1.0;"/><text fill="#000000" font-family="sans-serif" font-size="11" lengthAdjust="spacing" textLength="84" x="738" y="660.4189">def getArea(self)</text><ellipse cx="729" cy="669.8359" fill="#84BE84" rx="3" ry="3" style="stroke:#038048;stroke-width:1.0;"/><text fill="#000000" font-family="sans-serif" font-size="11" lengthAdjust="spacing" textLength="105" x="738" y="674.2549">def getPerimeter(self)</text><ellipse cx="729" cy="683.6719" fill="#84BE84" rx="3" ry="3" style="stroke:#038048;stroke-width:1.0;"/><text fill="#000000" font-family="sans-serif" font-size="11" lengthAdjust="spacing" textLength="153" x="738" y="688.0908">def getProminentColorBlue(self)</text><ellipse cx="729" cy="697.5078" fill="#84BE84" rx="3" ry="3" style="stroke:#038048;stroke-width:1.0;"/><text fill="#000000" font-family="sans-serif" font-size="11" lengthAdjust="spacing" textLength="162" x="738" y="701.9268">def getProminentColorGreen(self)</text><ellipse cx="729" cy="711.3438" fill="#84BE84" rx="3" ry="3" style="stroke:#038048;stroke-width:1.0;"/><text fill="#000000" font-family="sans-serif" font-size="11" lengthAdjust="spacing" textLength="151" x="738" y="715.7627">def getProminentColorRed(self)</text><ellipse cx="729" cy="725.1797" fill="#84BE84" rx="3" ry="3" style="stroke:#038048;stroke-width:1.0;"/><text fill="#000000" font-family="sans-serif" font-size="11" lengthAdjust="spacing" textLength="126" x="738" y="729.5986">def getProminentHue(self)</text><ellipse cx="729" cy="739.0156" fill="#84BE84" rx="3" ry="3" style="stroke:#038048;stroke-width:1.0;"/><text fill="#000000" font-family="sans-serif" font-size="11" lengthAdjust="spacing" textLength="150" x="738" y="743.4346">def determineArea(self, image)</text><ellipse cx="729" cy="752.8516" fill="#84BE84" rx="3" ry="3" style="stroke:#038048;stroke-width:1.0;"/><text fill="#000000" font-family="sans-serif" font-size="11" lengthAdjust="spacing" textLength="186" x="738" y="757.2705">def determineProminentColor(self, img)</text><!--MD5=[e406948d84315fe6abe8eeb333794215]
class Bean--><rect codeLine="42" fill="#FEFECE" filter="url(#f1i9reaakir2ry)" height="158.6875" id="Bean" style="stroke:#A80036;stroke-width:1.5;" width="258" x="1304" y="535.6406"/><ellipse cx="1414.25" cy="551.6406" fill="#ADD1B2" rx="11" ry="11" style="stroke:#A80036;stroke-width:1.0;"/><path d="M1417.0156,547.5156 Q1417.1719,547.2969 1417.3594,547.1875 Q1417.5469,547.0781 1417.7656,547.0781 Q1418.1406,547.0781 1418.375,547.3359 Q1418.6094,547.5938 1418.6094,548.2031 L1418.6094,549.6563 Q1418.6094,550.2656 1418.375,550.5313 Q1418.1406,550.7969 1417.7656,550.7969 Q1417.4219,550.7969 1417.2188,550.5938 Q1417.0156,550.4063 1416.9063,549.8906 Q1416.8594,549.5313 1416.6719,549.3438 Q1416.3438,548.9688 1415.7344,548.75 Q1415.125,548.5313 1414.5,548.5313 Q1413.7344,548.5313 1413.1016,548.8594 Q1412.4688,549.1875 1411.9766,549.9375 Q1411.4844,550.6875 1411.4844,551.7188 L1411.4844,552.8125 Q1411.4844,554.0469 1412.375,554.8672 Q1413.2656,555.6875 1414.8594,555.6875 Q1415.7969,555.6875 1416.4531,555.4375 Q1416.8438,555.2813 1417.2656,554.8438 Q1417.5313,554.5781 1417.6797,554.5 Q1417.8281,554.4219 1418.0313,554.4219 Q1418.3594,554.4219 1418.6172,554.6797 Q1418.875,554.9375 1418.875,555.2813 Q1418.875,555.625 1418.5313,556.0313 Q1418.0313,556.6094 1417.2344,556.9375 Q1416.1563,557.3906 1414.8594,557.3906 Q1413.3438,557.3906 1412.1406,556.7656 Q1411.1563,556.2656 1410.4688,555.1953 Q1409.7813,554.125 1409.7813,552.8438 L1409.7813,551.6875 Q1409.7813,550.3594 1410.3984,549.2109 Q1411.0156,548.0625 1412.1094,547.4453 Q1413.2031,546.8281 1414.4375,546.8281 Q1415.1719,546.8281 1415.8203,546.9922 Q1416.4688,547.1563 1417.0156,547.5156 Z " fill="#000000"/><text fill="#000000" font-family="sans-serif" font-size="12" lengthAdjust="spacing" textLength="29" x="1434.75" y="556.5508">Bean</text><line style="stroke:#A80036;stroke-width:1.5;" x1="1305" x2="1561" y1="567.6406" y2="567.6406"/><ellipse cx="1315" cy="578.6406" rx="3" ry="3" style="stroke:#038048;stroke-width:1.0;fill:none;"/><text fill="#000000" font-family="sans-serif" font-size="11" lengthAdjust="spacing" textLength="30" x="1324" y="583.0596">shape</text><ellipse cx="1315" cy="592.4766" rx="3" ry="3" style="stroke:#038048;stroke-width:1.0;fill:none;"/><text fill="#000000" font-family="sans-serif" font-size="11" lengthAdjust="spacing" textLength="6" x="1324" y="596.8955">x</text><ellipse cx="1315" cy="606.3125" rx="3" ry="3" style="stroke:#038048;stroke-width:1.0;fill:none;"/><text fill="#000000" font-family="sans-serif" font-size="11" lengthAdjust="spacing" textLength="6" x="1324" y="610.7314">y</text><ellipse cx="1315" cy="620.1484" rx="3" ry="3" style="stroke:#038048;stroke-width:1.0;fill:none;"/><text fill="#000000" font-family="sans-serif" font-size="11" lengthAdjust="spacing" textLength="27" x="1324" y="624.5674">width</text><ellipse cx="1315" cy="633.9844" rx="3" ry="3" style="stroke:#038048;stroke-width:1.0;fill:none;"/><text fill="#000000" font-family="sans-serif" font-size="11" lengthAdjust="spacing" textLength="29" x="1324" y="638.4033">height</text><ellipse cx="1315" cy="647.8203" rx="3" ry="3" style="stroke:#038048;stroke-width:1.0;fill:none;"/><text fill="#000000" font-family="sans-serif" font-size="11" lengthAdjust="spacing" textLength="22" x="1324" y="652.2393">area</text><ellipse cx="1315" cy="661.6563" rx="3" ry="3" style="stroke:#038048;stroke-width:1.0;fill:none;"/><text fill="#000000" font-family="sans-serif" font-size="11" lengthAdjust="spacing" textLength="72" x="1324" y="666.0752">prominentColor</text><line style="stroke:#A80036;stroke-width:1.5;" x1="1305" x2="1561" y1="672.4922" y2="672.4922"/><ellipse cx="1315" cy="683.4922" fill="#84BE84" rx="3" ry="3" style="stroke:#038048;stroke-width:1.0;"/><text fill="#000000" font-family="sans-serif" font-size="11" lengthAdjust="spacing" textLength="232" x="1324" y="687.9111">def _init_(self, image, shape, x, y, width, height)</text><!--MD5=[6e6746e4c963fa1acf82b942cff3d761]
class Fishstick--><rect codeLine="52" fill="#FEFECE" filter="url(#f1i9reaakir2ry)" height="158.6875" id="Fishstick" style="stroke:#A80036;stroke-width:1.5;" width="258" x="1011" y="535.6406"/><ellipse cx="1111.25" cy="551.6406" fill="#ADD1B2" rx="11" ry="11" style="stroke:#A80036;stroke-width:1.0;"/><path d="M1114.0156,547.5156 Q1114.1719,547.2969 1114.3594,547.1875 Q1114.5469,547.0781 1114.7656,547.0781 Q1115.1406,547.0781 1115.375,547.3359 Q1115.6094,547.5938 1115.6094,548.2031 L1115.6094,549.6563 Q1115.6094,550.2656 1115.375,550.5313 Q1115.1406,550.7969 1114.7656,550.7969 Q1114.4219,550.7969 1114.2188,550.5938 Q1114.0156,550.4063 1113.9063,549.8906 Q1113.8594,549.5313 1113.6719,549.3438 Q1113.3438,548.9688 1112.7344,548.75 Q1112.125,548.5313 1111.5,548.5313 Q1110.7344,548.5313 1110.1016,548.8594 Q1109.4688,549.1875 1108.9766,549.9375 Q1108.4844,550.6875 1108.4844,551.7188 L1108.4844,552.8125 Q1108.4844,554.0469 1109.375,554.8672 Q1110.2656,555.6875 1111.8594,555.6875 Q1112.7969,555.6875 1113.4531,555.4375 Q1113.8438,555.2813 1114.2656,554.8438 Q1114.5313,554.5781 1114.6797,554.5 Q1114.8281,554.4219 1115.0313,554.4219 Q1115.3594,554.4219 1115.6172,554.6797 Q1115.875,554.9375 1115.875,555.2813 Q1115.875,555.625 1115.5313,556.0313 Q1115.0313,556.6094 1114.2344,556.9375 Q1113.1563,557.3906 1111.8594,557.3906 Q1110.3438,557.3906 1109.1406,556.7656 Q1108.1563,556.2656 1107.4688,555.1953 Q1106.7813,554.125 1106.7813,552.8438 L1106.7813,551.6875 Q1106.7813,550.3594 1107.3984,549.2109 Q1108.0156,548.0625 1109.1094,547.4453 Q1110.2031,546.8281 1111.4375,546.8281 Q1112.1719,546.8281 1112.8203,546.9922 Q1113.4688,547.1563 1114.0156,547.5156 Z " fill="#000000"/><text fill="#000000" font-family="sans-serif" font-size="12" lengthAdjust="spacing" textLength="49" x="1131.75" y="556.5508">Fishstick</text><line style="stroke:#A80036;stroke-width:1.5;" x1="1012" x2="1268" y1="567.6406" y2="567.6406"/><ellipse cx="1022" cy="578.6406" rx="3" ry="3" style="stroke:#038048;stroke-width:1.0;fill:none;"/><text fill="#000000" font-family="sans-serif" font-size="11" lengthAdjust="spacing" textLength="30" x="1031" y="583.0596">shape</text><ellipse cx="1022" cy="592.4766" rx="3" ry="3" style="stroke:#038048;stroke-width:1.0;fill:none;"/><text fill="#000000" font-family="sans-serif" font-size="11" lengthAdjust="spacing" textLength="6" x="1031" y="596.8955">x</text><ellipse cx="1022" cy="606.3125" rx="3" ry="3" style="stroke:#038048;stroke-width:1.0;fill:none;"/><text fill="#000000" font-family="sans-serif" font-size="11" lengthAdjust="spacing" textLength="6" x="1031" y="610.7314">y</text><ellipse cx="1022" cy="620.1484" rx="3" ry="3" style="stroke:#038048;stroke-width:1.0;fill:none;"/><text fill="#000000" font-family="sans-serif" font-size="11" lengthAdjust="spacing" textLength="27" x="1031" y="624.5674">width</text><ellipse cx="1022" cy="633.9844" rx="3" ry="3" style="stroke:#038048;stroke-width:1.0;fill:none;"/><text fill="#000000" font-family="sans-serif" font-size="11" lengthAdjust="spacing" textLength="29" x="1031" y="638.4033">height</text><ellipse cx="1022" cy="647.8203" rx="3" ry="3" style="stroke:#038048;stroke-width:1.0;fill:none;"/><text fill="#000000" font-family="sans-serif" font-size="11" lengthAdjust="spacing" textLength="22" x="1031" y="652.2393">area</text><ellipse cx="1022" cy="661.6563" rx="3" ry="3" style="stroke:#038048;stroke-width:1.0;fill:none;"/><text fill="#000000" font-family="sans-serif" font-size="11" lengthAdjust="spacing" textLength="72" x="1031" y="666.0752">prominentColor</text><line style="stroke:#A80036;stroke-width:1.5;" x1="1012" x2="1268" y1="672.4922" y2="672.4922"/><ellipse cx="1022" cy="683.4922" fill="#84BE84" rx="3" ry="3" style="stroke:#038048;stroke-width:1.0;"/><text fill="#000000" font-family="sans-serif" font-size="11" lengthAdjust="spacing" textLength="232" x="1031" y="687.9111">def _init_(self, image, shape, x, y, width, height)</text><!--MD5=[a22619392d4186b5cc89ae20c8e70853]
class Pasta--><rect codeLine="62" fill="#FEFECE" filter="url(#f1i9reaakir2ry)" height="158.6875" id="Pasta" style="stroke:#A80036;stroke-width:1.5;" width="258" x="572" y="823.6406"/><ellipse cx="680.75" cy="839.6406" fill="#ADD1B2" rx="11" ry="11" style="stroke:#A80036;stroke-width:1.0;"/><path d="M683.5156,835.5156 Q683.6719,835.2969 683.8594,835.1875 Q684.0469,835.0781 684.2656,835.0781 Q684.6406,835.0781 684.875,835.3359 Q685.1094,835.5938 685.1094,836.2031 L685.1094,837.6563 Q685.1094,838.2656 684.875,838.5313 Q684.6406,838.7969 684.2656,838.7969 Q683.9219,838.7969 683.7188,838.5938 Q683.5156,838.4063 683.4063,837.8906 Q683.3594,837.5313 683.1719,837.3438 Q682.8438,836.9688 682.2344,836.75 Q681.625,836.5313 681,836.5313 Q680.2344,836.5313 679.6016,836.8594 Q678.9688,837.1875 678.4766,837.9375 Q677.9844,838.6875 677.9844,839.7188 L677.9844,840.8125 Q677.9844,842.0469 678.875,842.8672 Q679.7656,843.6875 681.3594,843.6875 Q682.2969,843.6875 682.9531,843.4375 Q683.3438,843.2813 683.7656,842.8438 Q684.0313,842.5781 684.1797,842.5 Q684.3281,842.4219 684.5313,842.4219 Q684.8594,842.4219 685.1172,842.6797 Q685.375,842.9375 685.375,843.2813 Q685.375,843.625 685.0313,844.0313 Q684.5313,844.6094 683.7344,844.9375 Q682.6563,845.3906 681.3594,845.3906 Q679.8438,845.3906 678.6406,844.7656 Q677.6563,844.2656 676.9688,843.1953 Q676.2813,842.125 676.2813,840.8438 L676.2813,839.6875 Q676.2813,838.3594 676.8984,837.2109 Q677.5156,836.0625 678.6094,835.4453 Q679.7031,834.8281 680.9375,834.8281 Q681.6719,834.8281 682.3203,834.9922 Q682.9688,835.1563 683.5156,835.5156 Z " fill="#000000"/><text fill="#000000" font-family="sans-serif" font-size="12" lengthAdjust="spacing" textLength="32" x="701.25" y="844.5508">Pasta</text><line style="stroke:#A80036;stroke-width:1.5;" x1="573" x2="829" y1="855.6406" y2="855.6406"/><ellipse cx="583" cy="866.6406" rx="3" ry="3" style="stroke:#038048;stroke-width:1.0;fill:none;"/><text fill="#000000" font-family="sans-serif" font-size="11" lengthAdjust="spacing" textLength="30" x="592" y="871.0596">shape</text><ellipse cx="583" cy="880.4766" rx="3" ry="3" style="stroke:#038048;stroke-width:1.0;fill:none;"/><text fill="#000000" font-family="sans-serif" font-size="11" lengthAdjust="spacing" textLength="6" x="592" y="884.8955">x</text><ellipse cx="583" cy="894.3125" rx="3" ry="3" style="stroke:#038048;stroke-width:1.0;fill:none;"/><text fill="#000000" font-family="sans-serif" font-size="11" lengthAdjust="spacing" textLength="6" x="592" y="898.7314">y</text><ellipse cx="583" cy="908.1484" rx="3" ry="3" style="stroke:#038048;stroke-width:1.0;fill:none;"/><text fill="#000000" font-family="sans-serif" font-size="11" lengthAdjust="spacing" textLength="27" x="592" y="912.5674">width</text><ellipse cx="583" cy="921.9844" rx="3" ry="3" style="stroke:#038048;stroke-width:1.0;fill:none;"/><text fill="#000000" font-family="sans-serif" font-size="11" lengthAdjust="spacing" textLength="29" x="592" y="926.4033">height</text><ellipse cx="583" cy="935.8203" rx="3" ry="3" style="stroke:#038048;stroke-width:1.0;fill:none;"/><text fill="#000000" font-family="sans-serif" font-size="11" lengthAdjust="spacing" textLength="22" x="592" y="940.2393">area</text><ellipse cx="583" cy="949.6563" rx="3" ry="3" style="stroke:#038048;stroke-width:1.0;fill:none;"/><text fill="#000000" font-family="sans-serif" font-size="11" lengthAdjust="spacing" textLength="72" x="592" y="954.0752">prominentColor</text><line style="stroke:#A80036;stroke-width:1.5;" x1="573" x2="829" y1="960.4922" y2="960.4922"/><ellipse cx="583" cy="971.4922" fill="#84BE84" rx="3" ry="3" style="stroke:#038048;stroke-width:1.0;"/><text fill="#000000" font-family="sans-serif" font-size="11" lengthAdjust="spacing" textLength="232" x="592" y="975.9111">def _init_(self, image, shape, x, y, width, height)</text><!--MD5=[89ae045c329f3d9305cee34fed852861]
class Meatball--><rect codeLine="72" fill="#FEFECE" filter="url(#f1i9reaakir2ry)" height="158.6875" id="Meatball" style="stroke:#A80036;stroke-width:1.5;" width="258" x="865" y="823.6406"/><ellipse cx="966.75" cy="839.6406" fill="#ADD1B2" rx="11" ry="11" style="stroke:#A80036;stroke-width:1.0;"/><path d="M969.5156,835.5156 Q969.6719,835.2969 969.8594,835.1875 Q970.0469,835.0781 970.2656,835.0781 Q970.6406,835.0781 970.875,835.3359 Q971.1094,835.5938 971.1094,836.2031 L971.1094,837.6563 Q971.1094,838.2656 970.875,838.5313 Q970.6406,838.7969 970.2656,838.7969 Q969.9219,838.7969 969.7188,838.5938 Q969.5156,838.4063 969.4063,837.8906 Q969.3594,837.5313 969.1719,837.3438 Q968.8438,836.9688 968.2344,836.75 Q967.625,836.5313 967,836.5313 Q966.2344,836.5313 965.6016,836.8594 Q964.9688,837.1875 964.4766,837.9375 Q963.9844,838.6875 963.9844,839.7188 L963.9844,840.8125 Q963.9844,842.0469 964.875,842.8672 Q965.7656,843.6875 967.3594,843.6875 Q968.2969,843.6875 968.9531,843.4375 Q969.3438,843.2813 969.7656,842.8438 Q970.0313,842.5781 970.1797,842.5 Q970.3281,842.4219 970.5313,842.4219 Q970.8594,842.4219 971.1172,842.6797 Q971.375,842.9375 971.375,843.2813 Q971.375,843.625 971.0313,844.0313 Q970.5313,844.6094 969.7344,844.9375 Q968.6563,845.3906 967.3594,845.3906 Q965.8438,845.3906 964.6406,844.7656 Q963.6563,844.2656 962.9688,843.1953 Q962.2813,842.125 962.2813,840.8438 L962.2813,839.6875 Q962.2813,838.3594 962.8984,837.2109 Q963.5156,836.0625 964.6094,835.4453 Q965.7031,834.8281 966.9375,834.8281 Q967.6719,834.8281 968.3203,834.9922 Q968.9688,835.1563 969.5156,835.5156 Z " fill="#000000"/><text fill="#000000" font-family="sans-serif" font-size="12" lengthAdjust="spacing" textLength="46" x="987.25" y="844.5508">Meatball</text><line style="stroke:#A80036;stroke-width:1.5;" x1="866" x2="1122" y1="855.6406" y2="855.6406"/><ellipse cx="876" cy="866.6406" rx="3" ry="3" style="stroke:#038048;stroke-width:1.0;fill:none;"/><text fill="#000000" font-family="sans-serif" font-size="11" lengthAdjust="spacing" textLength="30" x="885" y="871.0596">shape</text><ellipse cx="876" cy="880.4766" rx="3" ry="3" style="stroke:#038048;stroke-width:1.0;fill:none;"/><text fill="#000000" font-family="sans-serif" font-size="11" lengthAdjust="spacing" textLength="6" x="885" y="884.8955">x</text><ellipse cx="876" cy="894.3125" rx="3" ry="3" style="stroke:#038048;stroke-width:1.0;fill:none;"/><text fill="#000000" font-family="sans-serif" font-size="11" lengthAdjust="spacing" textLength="6" x="885" y="898.7314">y</text><ellipse cx="876" cy="908.1484" rx="3" ry="3" style="stroke:#038048;stroke-width:1.0;fill:none;"/><text fill="#000000" font-family="sans-serif" font-size="11" lengthAdjust="spacing" textLength="27" x="885" y="912.5674">width</text><ellipse cx="876" cy="921.9844" rx="3" ry="3" style="stroke:#038048;stroke-width:1.0;fill:none;"/><text fill="#000000" font-family="sans-serif" font-size="11" lengthAdjust="spacing" textLength="29" x="885" y="926.4033">height</text><ellipse cx="876" cy="935.8203" rx="3" ry="3" style="stroke:#038048;stroke-width:1.0;fill:none;"/><text fill="#000000" font-family="sans-serif" font-size="11" lengthAdjust="spacing" textLength="22" x="885" y="940.2393">area</text><ellipse cx="876" cy="949.6563" rx="3" ry="3" style="stroke:#038048;stroke-width:1.0;fill:none;"/><text fill="#000000" font-family="sans-serif" font-size="11" lengthAdjust="spacing" textLength="72" x="885" y="954.0752">prominentColor</text><line style="stroke:#A80036;stroke-width:1.5;" x1="866" x2="1122" y1="960.4922" y2="960.4922"/><ellipse cx="876" cy="971.4922" fill="#84BE84" rx="3" ry="3" style="stroke:#038048;stroke-width:1.0;"/><text fill="#000000" font-family="sans-serif" font-size="11" lengthAdjust="spacing" textLength="232" x="885" y="975.9111">def _init_(self, image, shape, x, y, width, height)</text><!--MD5=[06c368ca4076f24a790591d052aaa187]
class Potato--><rect codeLine="82" fill="#FEFECE" filter="url(#f1i9reaakir2ry)" height="158.6875" id="Potato" style="stroke:#A80036;stroke-width:1.5;" width="258" x="132" y="535.6406"/><ellipse cx="239.25" cy="551.6406" fill="#ADD1B2" rx="11" ry="11" style="stroke:#A80036;stroke-width:1.0;"/><path d="M242.0156,547.5156 Q242.1719,547.2969 242.3594,547.1875 Q242.5469,547.0781 242.7656,547.0781 Q243.1406,547.0781 243.375,547.3359 Q243.6094,547.5938 243.6094,548.2031 L243.6094,549.6563 Q243.6094,550.2656 243.375,550.5313 Q243.1406,550.7969 242.7656,550.7969 Q242.4219,550.7969 242.2188,550.5938 Q242.0156,550.4063 241.9063,549.8906 Q241.8594,549.5313 241.6719,549.3438 Q241.3438,548.9688 240.7344,548.75 Q240.125,548.5313 239.5,548.5313 Q238.7344,548.5313 238.1016,548.8594 Q237.4688,549.1875 236.9766,549.9375 Q236.4844,550.6875 236.4844,551.7188 L236.4844,552.8125 Q236.4844,554.0469 237.375,554.8672 Q238.2656,555.6875 239.8594,555.6875 Q240.7969,555.6875 241.4531,555.4375 Q241.8438,555.2813 242.2656,554.8438 Q242.5313,554.5781 242.6797,554.5 Q242.8281,554.4219 243.0313,554.4219 Q243.3594,554.4219 243.6172,554.6797 Q243.875,554.9375 243.875,555.2813 Q243.875,555.625 243.5313,556.0313 Q243.0313,556.6094 242.2344,556.9375 Q241.1563,557.3906 239.8594,557.3906 Q238.3438,557.3906 237.1406,556.7656 Q236.1563,556.2656 235.4688,555.1953 Q234.7813,554.125 234.7813,552.8438 L234.7813,551.6875 Q234.7813,550.3594 235.3984,549.2109 Q236.0156,548.0625 237.1094,547.4453 Q238.2031,546.8281 239.4375,546.8281 Q240.1719,546.8281 240.8203,546.9922 Q241.4688,547.1563 242.0156,547.5156 Z " fill="#000000"/><text fill="#000000" font-family="sans-serif" font-size="12" lengthAdjust="spacing" textLength="35" x="259.75" y="556.5508">Potato</text><line style="stroke:#A80036;stroke-width:1.5;" x1="133" x2="389" y1="567.6406" y2="567.6406"/><ellipse cx="143" cy="578.6406" rx="3" ry="3" style="stroke:#038048;stroke-width:1.0;fill:none;"/><text fill="#000000" font-family="sans-serif" font-size="11" lengthAdjust="spacing" textLength="30" x="152" y="583.0596">shape</text><ellipse cx="143" cy="592.4766" rx="3" ry="3" style="stroke:#038048;stroke-width:1.0;fill:none;"/><text fill="#000000" font-family="sans-serif" font-size="11" lengthAdjust="spacing" textLength="6" x="152" y="596.8955">x</text><ellipse cx="143" cy="606.3125" rx="3" ry="3" style="stroke:#038048;stroke-width:1.0;fill:none;"/><text fill="#000000" font-family="sans-serif" font-size="11" lengthAdjust="spacing" textLength="6" x="152" y="610.7314">y</text><ellipse cx="143" cy="620.1484" rx="3" ry="3" style="stroke:#038048;stroke-width:1.0;fill:none;"/><text fill="#000000" font-family="sans-serif" font-size="11" lengthAdjust="spacing" textLength="27" x="152" y="624.5674">width</text><ellipse cx="143" cy="633.9844" rx="3" ry="3" style="stroke:#038048;stroke-width:1.0;fill:none;"/><text fill="#000000" font-family="sans-serif" font-size="11" lengthAdjust="spacing" textLength="29" x="152" y="638.4033">height</text><ellipse cx="143" cy="647.8203" rx="3" ry="3" style="stroke:#038048;stroke-width:1.0;fill:none;"/><text fill="#000000" font-family="sans-serif" font-size="11" lengthAdjust="spacing" textLength="22" x="152" y="652.2393">area</text><ellipse cx="143" cy="661.6563" rx="3" ry="3" style="stroke:#038048;stroke-width:1.0;fill:none;"/><text fill="#000000" font-family="sans-serif" font-size="11" lengthAdjust="spacing" textLength="72" x="152" y="666.0752">prominentColor</text><line style="stroke:#A80036;stroke-width:1.5;" x1="133" x2="389" y1="672.4922" y2="672.4922"/><ellipse cx="143" cy="683.4922" fill="#84BE84" rx="3" ry="3" style="stroke:#038048;stroke-width:1.0;"/><text fill="#000000" font-family="sans-serif" font-size="11" lengthAdjust="spacing" textLength="232" x="152" y="687.9111">def _init_(self, image, shape, x, y, width, height)</text><!--MD5=[3e5e8335e177b9ee4316b3e95afb7a28]
class Carrot--><rect codeLine="92" fill="#FEFECE" filter="url(#f1i9reaakir2ry)" height="158.6875" id="Carrot" style="stroke:#A80036;stroke-width:1.5;" width="258" x="425" y="535.6406"/><ellipse cx="532.75" cy="551.6406" fill="#ADD1B2" rx="11" ry="11" style="stroke:#A80036;stroke-width:1.0;"/><path d="M535.5156,547.5156 Q535.6719,547.2969 535.8594,547.1875 Q536.0469,547.0781 536.2656,547.0781 Q536.6406,547.0781 536.875,547.3359 Q537.1094,547.5938 537.1094,548.2031 L537.1094,549.6563 Q537.1094,550.2656 536.875,550.5313 Q536.6406,550.7969 536.2656,550.7969 Q535.9219,550.7969 535.7188,550.5938 Q535.5156,550.4063 535.4063,549.8906 Q535.3594,549.5313 535.1719,549.3438 Q534.8438,548.9688 534.2344,548.75 Q533.625,548.5313 533,548.5313 Q532.2344,548.5313 531.6016,548.8594 Q530.9688,549.1875 530.4766,549.9375 Q529.9844,550.6875 529.9844,551.7188 L529.9844,552.8125 Q529.9844,554.0469 530.875,554.8672 Q531.7656,555.6875 533.3594,555.6875 Q534.2969,555.6875 534.9531,555.4375 Q535.3438,555.2813 535.7656,554.8438 Q536.0313,554.5781 536.1797,554.5 Q536.3281,554.4219 536.5313,554.4219 Q536.8594,554.4219 537.1172,554.6797 Q537.375,554.9375 537.375,555.2813 Q537.375,555.625 537.0313,556.0313 Q536.5313,556.6094 535.7344,556.9375 Q534.6563,557.3906 533.3594,557.3906 Q531.8438,557.3906 530.6406,556.7656 Q529.6563,556.2656 528.9688,555.1953 Q528.2813,554.125 528.2813,552.8438 L528.2813,551.6875 Q528.2813,550.3594 528.8984,549.2109 Q529.5156,548.0625 530.6094,547.4453 Q531.7031,546.8281 532.9375,546.8281 Q533.6719,546.8281 534.3203,546.9922 Q534.9688,547.1563 535.5156,547.5156 Z " fill="#000000"/><text fill="#000000" font-family="sans-serif" font-size="12" lengthAdjust="spacing" textLength="34" x="553.25" y="556.5508">Carrot</text><line style="stroke:#A80036;stroke-width:1.5;" x1="426" x2="682" y1="567.6406" y2="567.6406"/><ellipse cx="436" cy="578.6406" rx="3" ry="3" style="stroke:#038048;stroke-width:1.0;fill:none;"/><text fill="#000000" font-family="sans-serif" font-size="11" lengthAdjust="spacing" textLength="30" x="445" y="583.0596">shape</text><ellipse cx="436" cy="592.4766" rx="3" ry="3" style="stroke:#038048;stroke-width:1.0;fill:none;"/><text fill="#000000" font-family="sans-serif" font-size="11" lengthAdjust="spacing" textLength="6" x="445" y="596.8955">x</text><ellipse cx="436" cy="606.3125" rx="3" ry="3" style="stroke:#038048;stroke-width:1.0;fill:none;"/><text fill="#000000" font-family="sans-serif" font-size="11" lengthAdjust="spacing" textLength="6" x="445" y="610.7314">y</text><ellipse cx="436" cy="620.1484" rx="3" ry="3" style="stroke:#038048;stroke-width:1.0;fill:none;"/><text fill="#000000" font-family="sans-serif" font-size="11" lengthAdjust="spacing" textLength="27" x="445" y="624.5674">width</text><ellipse cx="436" cy="633.9844" rx="3" ry="3" style="stroke:#038048;stroke-width:1.0;fill:none;"/><text fill="#000000" font-family="sans-serif" font-size="11" lengthAdjust="spacing" textLength="29" x="445" y="638.4033">height</text><ellipse cx="436" cy="647.8203" rx="3" ry="3" style="stroke:#038048;stroke-width:1.0;fill:none;"/><text fill="#000000" font-family="sans-serif" font-size="11" lengthAdjust="spacing" textLength="22" x="445" y="652.2393">area</text><ellipse cx="436" cy="661.6563" rx="3" ry="3" style="stroke:#038048;stroke-width:1.0;fill:none;"/><text fill="#000000" font-family="sans-serif" font-size="11" lengthAdjust="spacing" textLength="72" x="445" y="666.0752">prominentColor</text><line style="stroke:#A80036;stroke-width:1.5;" x1="426" x2="682" y1="672.4922" y2="672.4922"/><ellipse cx="436" cy="683.4922" fill="#84BE84" rx="3" ry="3" style="stroke:#038048;stroke-width:1.0;"/><text fill="#000000" font-family="sans-serif" font-size="11" lengthAdjust="spacing" textLength="232" x="445" y="687.9111">def _init_(self, image, shape, x, y, width, height)</text><!--MD5=[0a38cb5996cdf4fcab6e7cee30b8e5d6]
class Food_recognition--><rect codeLine="103" fill="#FEFECE" filter="url(#f1i9reaakir2ry)" height="158.6875" id="Food_recognition" style="stroke:#A80036;stroke-width:1.5;" width="171" x="432.5" y="234.1406"/><ellipse cx="466.85" cy="250.1406" fill="#ADD1B2" rx="11" ry="11" style="stroke:#A80036;stroke-width:1.0;"/><path d="M469.6156,246.0156 Q469.7719,245.7969 469.9594,245.6875 Q470.1469,245.5781 470.3656,245.5781 Q470.7406,245.5781 470.975,245.8359 Q471.2094,246.0938 471.2094,246.7031 L471.2094,248.1563 Q471.2094,248.7656 470.975,249.0313 Q470.7406,249.2969 470.3656,249.2969 Q470.0219,249.2969 469.8188,249.0938 Q469.6156,248.9063 469.5063,248.3906 Q469.4594,248.0313 469.2719,247.8438 Q468.9438,247.4688 468.3344,247.25 Q467.725,247.0313 467.1,247.0313 Q466.3344,247.0313 465.7016,247.3594 Q465.0688,247.6875 464.5766,248.4375 Q464.0844,249.1875 464.0844,250.2188 L464.0844,251.3125 Q464.0844,252.5469 464.975,253.3672 Q465.8656,254.1875 467.4594,254.1875 Q468.3969,254.1875 469.0531,253.9375 Q469.4438,253.7813 469.8656,253.3438 Q470.1313,253.0781 470.2797,253 Q470.4281,252.9219 470.6313,252.9219 Q470.9594,252.9219 471.2172,253.1797 Q471.475,253.4375 471.475,253.7813 Q471.475,254.125 471.1313,254.5313 Q470.6313,255.1094 469.8344,255.4375 Q468.7563,255.8906 467.4594,255.8906 Q465.9438,255.8906 464.7406,255.2656 Q463.7563,254.7656 463.0688,253.6953 Q462.3813,252.625 462.3813,251.3438 L462.3813,250.1875 Q462.3813,248.8594 462.9984,247.7109 Q463.6156,246.5625 464.7094,245.9453 Q465.8031,245.3281 467.0375,245.3281 Q467.7719,245.3281 468.4203,245.4922 Q469.0688,245.6563 469.6156,246.0156 Z " fill="#000000"/><text fill="#000000" font-family="sans-serif" font-size="12" lengthAdjust="spacing" textLength="96" x="485.15" y="255.0508">Food_recognition</text><line style="stroke:#A80036;stroke-width:1.5;" x1="433.5" x2="602.5" y1="266.1406" y2="266.1406"/><ellipse cx="443.5" cy="277.1406" rx="3" ry="3" style="stroke:#038048;stroke-width:1.0;fill:none;"/><text fill="#000000" font-family="sans-serif" font-size="11" lengthAdjust="spacing" textLength="80" x="452.5" y="281.5596">meatballDetector</text><ellipse cx="443.5" cy="290.9766" rx="3" ry="3" style="stroke:#038048;stroke-width:1.0;fill:none;"/><text fill="#000000" font-family="sans-serif" font-size="11" lengthAdjust="spacing" textLength="68" x="452.5" y="295.3955">pastaDetector</text><ellipse cx="443.5" cy="304.8125" rx="3" ry="3" style="stroke:#038048;stroke-width:1.0;fill:none;"/><text fill="#000000" font-family="sans-serif" font-size="11" lengthAdjust="spacing" textLength="65" x="452.5" y="309.2314">beanDetector</text><ellipse cx="443.5" cy="318.6484" rx="3" ry="3" style="stroke:#038048;stroke-width:1.0;fill:none;"/><text fill="#000000" font-family="sans-serif" font-size="11" lengthAdjust="spacing" textLength="81" x="452.5" y="323.0674">fishstickDetector</text><ellipse cx="443.5" cy="332.4844" rx="3" ry="3" style="stroke:#038048;stroke-width:1.0;fill:none;"/><text fill="#000000" font-family="sans-serif" font-size="11" lengthAdjust="spacing" textLength="71" x="452.5" y="336.9033">potatoDetector</text><ellipse cx="443.5" cy="346.3203" rx="3" ry="3" style="stroke:#038048;stroke-width:1.0;fill:none;"/><text fill="#000000" font-family="sans-serif" font-size="11" lengthAdjust="spacing" textLength="70" x="452.5" y="350.7393">carrotDetector</text><line style="stroke:#A80036;stroke-width:1.5;" x1="433.5" x2="602.5" y1="357.1563" y2="357.1563"/><ellipse cx="443.5" cy="368.1563" fill="#84BE84" rx="3" ry="3" style="stroke:#038048;stroke-width:1.0;"/><text fill="#000000" font-family="sans-serif" font-size="11" lengthAdjust="spacing" textLength="70" x="452.5" y="372.5752">def _init_(self)</text><ellipse cx="443.5" cy="381.9922" fill="#84BE84" rx="3" ry="3" style="stroke:#038048;stroke-width:1.0;"/><text fill="#000000" font-family="sans-serif" font-size="11" lengthAdjust="spacing" textLength="145" x="452.5" y="386.4111">def recognize(self, panImage)</text><!--MD5=[89d13c810541b964f02f0e18e358f070]
class TargetFood--><rect codeLine="114" fill="#FEFECE" filter="url(#f1i9reaakir2ry)" height="131.0156" id="TargetFood" style="stroke:#A80036;stroke-width:1.5;" width="95" x="53.5" y="29.6406"/><ellipse cx="68.5" cy="45.6406" fill="#EB937F" rx="11" ry="11" style="stroke:#A80036;stroke-width:1.0;"/><path d="M67.3594,46.4375 L67.3594,48.9375 L71.6875,48.9375 L71.6875,48.0156 Q71.6875,47.4063 71.9297,47.1406 Q72.1719,46.875 72.5469,46.875 Q72.9219,46.875 73.1563,47.1406 Q73.3906,47.4063 73.3906,48.0156 L73.3906,50.6406 L65.3906,50.6406 Q64.7656,50.6406 64.5078,50.4063 Q64.25,50.1719 64.25,49.7813 Q64.25,49.4063 64.5156,49.1719 Q64.7813,48.9375 65.3906,48.9375 L65.6563,48.9375 L65.6563,42.2813 L65.3906,42.2813 Q64.7656,42.2813 64.5078,42.0469 Q64.25,41.8125 64.25,41.4219 Q64.25,41.0469 64.5078,40.8125 Q64.7656,40.5781 65.3906,40.5781 L73.0156,40.5781 L73.0156,43.1719 Q73.0156,43.7813 72.7891,44.0391 Q72.5625,44.2969 72.1719,44.2969 Q71.7969,44.2969 71.5625,44.0391 Q71.3281,43.7813 71.3281,43.1719 L71.3281,42.2813 L67.3594,42.2813 L67.3594,44.7344 L68.8438,44.7344 Q68.8438,44.0781 68.9688,43.8906 Q69.2344,43.4844 69.7031,43.4844 Q70.0781,43.4844 70.3125,43.7422 Q70.5469,44 70.5469,44.6094 L70.5469,46.5781 Q70.5469,47.125 70.4219,47.3125 Q70.1563,47.7031 69.7031,47.7031 Q69.2344,47.7031 68.9688,47.2969 Q68.8438,47.1094 68.8438,46.4375 L67.3594,46.4375 Z " fill="#000000"/><text fill="#000000" font-family="sans-serif" font-size="12" lengthAdjust="spacing" textLength="63" x="82.5" y="50.5508">TargetFood</text><line style="stroke:#A80036;stroke-width:1.5;" x1="54.5" x2="147.5" y1="61.6406" y2="61.6406"/><ellipse cx="64.5" cy="72.6406" rx="3" ry="3" style="stroke:#038048;stroke-width:1.0;fill:none;"/><text fill="#000000" font-family="sans-serif" font-size="11" lengthAdjust="spacing" textLength="39" x="73.5" y="77.0596">Meatball</text><ellipse cx="64.5" cy="86.4766" rx="3" ry="3" style="stroke:#038048;stroke-width:1.0;fill:none;"/><text fill="#000000" font-family="sans-serif" font-size="11" lengthAdjust="spacing" textLength="27" x="73.5" y="90.8955">Pasta</text><ellipse cx="64.5" cy="100.3125" rx="3" ry="3" style="stroke:#038048;stroke-width:1.0;fill:none;"/><text fill="#000000" font-family="sans-serif" font-size="11" lengthAdjust="spacing" textLength="25" x="73.5" y="104.7314">Bean</text><ellipse cx="64.5" cy="114.1484" rx="3" ry="3" style="stroke:#038048;stroke-width:1.0;fill:none;"/><text fill="#000000" font-family="sans-serif" font-size="11" lengthAdjust="spacing" textLength="42" x="73.5" y="118.5674">Fishstick</text><ellipse cx="64.5" cy="127.9844" rx="3" ry="3" style="stroke:#038048;stroke-width:1.0;fill:none;"/><text fill="#000000" font-family="sans-serif" font-size="11" lengthAdjust="spacing" textLength="30" x="73.5" y="132.4033">Potato</text><ellipse cx="64.5" cy="141.8203" rx="3" ry="3" style="stroke:#038048;stroke-width:1.0;fill:none;"/><text fill="#000000" font-family="sans-serif" font-size="11" lengthAdjust="spacing" textLength="30" x="73.5" y="146.2393">Carrot</text><line style="stroke:#A80036;stroke-width:1.5;" x1="54.5" x2="147.5" y1="152.6563" y2="152.6563"/><!--MD5=[08278ffe0d19eded36b1ad8609ead0c1]
class Detector--><rect codeLine="123" fill="#FEFECE" filter="url(#f1i9reaakir2ry)" height="186.3594" id="Detector" style="stroke:#A80036;stroke-width:1.5;" width="416" x="639" y="220.6406"/><ellipse cx="819.75" cy="236.6406" fill="#ADD1B2" rx="11" ry="11" style="stroke:#A80036;stroke-width:1.0;"/><path d="M822.5156,232.5156 Q822.6719,232.2969 822.8594,232.1875 Q823.0469,232.0781 823.2656,232.0781 Q823.6406,232.0781 823.875,232.3359 Q824.1094,232.5938 824.1094,233.2031 L824.1094,234.6563 Q824.1094,235.2656 823.875,235.5313 Q823.6406,235.7969 823.2656,235.7969 Q822.9219,235.7969 822.7188,235.5938 Q822.5156,235.4063 822.4063,234.8906 Q822.3594,234.5313 822.1719,234.3438 Q821.8438,233.9688 821.2344,233.75 Q820.625,233.5313 820,233.5313 Q819.2344,233.5313 818.6016,233.8594 Q817.9688,234.1875 817.4766,234.9375 Q816.9844,235.6875 816.9844,236.7188 L816.9844,237.8125 Q816.9844,239.0469 817.875,239.8672 Q818.7656,240.6875 820.3594,240.6875 Q821.2969,240.6875 821.9531,240.4375 Q822.3438,240.2813 822.7656,239.8438 Q823.0313,239.5781 823.1797,239.5 Q823.3281,239.4219 823.5313,239.4219 Q823.8594,239.4219 824.1172,239.6797 Q824.375,239.9375 824.375,240.2813 Q824.375,240.625 824.0313,241.0313 Q823.5313,241.6094 822.7344,241.9375 Q821.6563,242.3906 820.3594,242.3906 Q818.8438,242.3906 817.6406,241.7656 Q816.6563,241.2656 815.9688,240.1953 Q815.2813,239.125 815.2813,237.8438 L815.2813,236.6875 Q815.2813,235.3594 815.8984,234.2109 Q816.5156,233.0625 817.6094,232.4453 Q818.7031,231.8281 819.9375,231.8281 Q820.6719,231.8281 821.3203,231.9922 Q821.9688,232.1563 822.5156,232.5156 Z " fill="#000000"/><text fill="#000000" font-family="sans-serif" font-size="12" lengthAdjust="spacing" textLength="46" x="840.25" y="241.5508">Detector</text><line style="stroke:#A80036;stroke-width:1.5;" x1="640" x2="1054" y1="252.6406" y2="252.6406"/><ellipse cx="650" cy="263.6406" rx="3" ry="3" style="stroke:#038048;stroke-width:1.0;fill:none;"/><text fill="#000000" font-family="sans-serif" font-size="11" lengthAdjust="spacing" textLength="28" x="659" y="268.0596">image</text><ellipse cx="650" cy="277.4766" rx="3" ry="3" style="stroke:#038048;stroke-width:1.0;fill:none;"/><text fill="#000000" font-family="sans-serif" font-size="11" lengthAdjust="spacing" textLength="65" x="659" y="281.8955">maskedImage</text><ellipse cx="650" cy="291.3125" rx="3" ry="3" style="stroke:#038048;stroke-width:1.0;fill:none;"/><text fill="#000000" font-family="sans-serif" font-size="11" lengthAdjust="spacing" textLength="52" x="659" y="295.7314">targetFood</text><line style="stroke:#A80036;stroke-width:1.5;" x1="640" x2="1054" y1="302.1484" y2="302.1484"/><ellipse cx="650" cy="313.1484" fill="#84BE84" rx="3" ry="3" style="stroke:#038048;stroke-width:1.0;"/><text fill="#000000" font-family="sans-serif" font-size="11" lengthAdjust="spacing" textLength="390" x="659" y="317.5674">def _init_(self, image, minH, minS, minV, maxH, maxS, maxV, blurVal, targetFood)</text><ellipse cx="650" cy="326.9844" fill="#84BE84" rx="3" ry="3" style="stroke:#038048;stroke-width:1.0;"/><text fill="#000000" font-family="sans-serif" font-size="11" lengthAdjust="spacing" textLength="360" x="659" y="331.4033">def maskImage(self, image, minH, minS, minV, maxH, maxS, maxV, blurVal)</text><ellipse cx="650" cy="340.8203" fill="#84BE84" rx="3" ry="3" style="stroke:#038048;stroke-width:1.0;"/><text fill="#000000" font-family="sans-serif" font-size="11" lengthAdjust="spacing" textLength="177" x="659" y="345.2393">def findFood(self, minSize, maxSize)</text><ellipse cx="650" cy="354.6563" fill="#84BE84" rx="3" ry="3" style="stroke:#038048;stroke-width:1.0;"/><text fill="#000000" font-family="sans-serif" font-size="11" lengthAdjust="spacing" textLength="297" x="659" y="359.0752">def createCorrectFood(self, contours, contour, contourIndex)</text><ellipse cx="650" cy="368.4922" fill="#84BE84" rx="3" ry="3" style="stroke:#038048;stroke-width:1.0;"/><text fill="#000000" font-family="sans-serif" font-size="11" lengthAdjust="spacing" textLength="88" x="659" y="372.9111">def getImage(self)</text><ellipse cx="650" cy="382.3281" fill="#84BE84" rx="3" ry="3" style="stroke:#038048;stroke-width:1.0;"/><text fill="#000000" font-family="sans-serif" font-size="11" lengthAdjust="spacing" textLength="125" x="659" y="386.7471">def getMaskedImage(self)</text><ellipse cx="650" cy="396.1641" fill="#84BE84" rx="3" ry="3" style="stroke:#038048;stroke-width:1.0;"/><text fill="#000000" font-family="sans-serif" font-size="11" lengthAdjust="spacing" textLength="115" x="659" y="400.583">def getTargetFood(self)</text><!--MD5=[05cebb714d6f260851e845a803560af6]
class Bean_detect--><rect codeLine="135" fill="#FEFECE" filter="url(#f1i9reaakir2ry)" height="103.3438" id="Bean_detect" style="stroke:#A80036;stroke-width:1.5;" width="413" x="1555.5" y="262.1406"/><ellipse cx="1723.25" cy="278.1406" fill="#ADD1B2" rx="11" ry="11" style="stroke:#A80036;stroke-width:1.0;"/><path d="M1726.0156,274.0156 Q1726.1719,273.7969 1726.3594,273.6875 Q1726.5469,273.5781 1726.7656,273.5781 Q1727.1406,273.5781 1727.375,273.8359 Q1727.6094,274.0938 1727.6094,274.7031 L1727.6094,276.1563 Q1727.6094,276.7656 1727.375,277.0313 Q1727.1406,277.2969 1726.7656,277.2969 Q1726.4219,277.2969 1726.2188,277.0938 Q1726.0156,276.9063 1725.9063,276.3906 Q1725.8594,276.0313 1725.6719,275.8438 Q1725.3438,275.4688 1724.7344,275.25 Q1724.125,275.0313 1723.5,275.0313 Q1722.7344,275.0313 1722.1016,275.3594 Q1721.4688,275.6875 1720.9766,276.4375 Q1720.4844,277.1875 1720.4844,278.2188 L1720.4844,279.3125 Q1720.4844,280.5469 1721.375,281.3672 Q1722.2656,282.1875 1723.8594,282.1875 Q1724.7969,282.1875 1725.4531,281.9375 Q1725.8438,281.7813 1726.2656,281.3438 Q1726.5313,281.0781 1726.6797,281 Q1726.8281,280.9219 1727.0313,280.9219 Q1727.3594,280.9219 1727.6172,281.1797 Q1727.875,281.4375 1727.875,281.7813 Q1727.875,282.125 1727.5313,282.5313 Q1727.0313,283.1094 1726.2344,283.4375 Q1725.1563,283.8906 1723.8594,283.8906 Q1722.3438,283.8906 1721.1406,283.2656 Q1720.1563,282.7656 1719.4688,281.6953 Q1718.7813,280.625 1718.7813,279.3438 L1718.7813,278.1875 Q1718.7813,276.8594 1719.3984,275.7109 Q1720.0156,274.5625 1721.1094,273.9453 Q1722.2031,273.3281 1723.4375,273.3281 Q1724.1719,273.3281 1724.8203,273.4922 Q1725.4688,273.6563 1726.0156,274.0156 Z " fill="#000000"/><text fill="#000000" font-family="sans-serif" font-size="12" lengthAdjust="spacing" textLength="69" x="1743.75" y="283.0508">Bean_detect</text><line style="stroke:#A80036;stroke-width:1.5;" x1="1556.5" x2="1967.5" y1="294.1406" y2="294.1406"/><ellipse cx="1566.5" cy="305.1406" rx="3" ry="3" style="stroke:#038048;stroke-width:1.0;fill:none;"/><text fill="#000000" font-family="sans-serif" font-size="11" lengthAdjust="spacing" textLength="28" x="1575.5" y="309.5596">image</text><ellipse cx="1566.5" cy="318.9766" rx="3" ry="3" style="stroke:#038048;stroke-width:1.0;fill:none;"/><text fill="#000000" font-family="sans-serif" font-size="11" lengthAdjust="spacing" textLength="65" x="1575.5" y="323.3955">maskedImage</text><ellipse cx="1566.5" cy="332.8125" rx="3" ry="3" style="stroke:#038048;stroke-width:1.0;fill:none;"/><text fill="#000000" font-family="sans-serif" font-size="11" lengthAdjust="spacing" textLength="52" x="1575.5" y="337.2314">targetFood</text><line style="stroke:#A80036;stroke-width:1.5;" x1="1556.5" x2="1967.5" y1="343.6484" y2="343.6484"/><ellipse cx="1566.5" cy="354.6484" fill="#84BE84" rx="3" ry="3" style="stroke:#038048;stroke-width:1.0;"/><text fill="#000000" font-family="sans-serif" font-size="11" lengthAdjust="spacing" textLength="387" x="1575.5" y="359.0674">def _init_(self, minH, minS, minV, maxH, maxS, maxV, blurVal, TargetFood.Bean)</text><!--MD5=[e9f2e7bc77657b9e848d9b1042cc27fc]
class Fishstick_detect--><rect codeLine="141" fill="#FEFECE" filter="url(#f1i9reaakir2ry)" height="103.3438" id="Fishstick_detect" style="stroke:#A80036;stroke-width:1.5;" width="430" x="1090" y="262.1406"/><ellipse cx="1256.25" cy="278.1406" fill="#ADD1B2" rx="11" ry="11" style="stroke:#A80036;stroke-width:1.0;"/><path d="M1259.0156,274.0156 Q1259.1719,273.7969 1259.3594,273.6875 Q1259.5469,273.5781 1259.7656,273.5781 Q1260.1406,273.5781 1260.375,273.8359 Q1260.6094,274.0938 1260.6094,274.7031 L1260.6094,276.1563 Q1260.6094,276.7656 1260.375,277.0313 Q1260.1406,277.2969 1259.7656,277.2969 Q1259.4219,277.2969 1259.2188,277.0938 Q1259.0156,276.9063 1258.9063,276.3906 Q1258.8594,276.0313 1258.6719,275.8438 Q1258.3438,275.4688 1257.7344,275.25 Q1257.125,275.0313 1256.5,275.0313 Q1255.7344,275.0313 1255.1016,275.3594 Q1254.4688,275.6875 1253.9766,276.4375 Q1253.4844,277.1875 1253.4844,278.2188 L1253.4844,279.3125 Q1253.4844,280.5469 1254.375,281.3672 Q1255.2656,282.1875 1256.8594,282.1875 Q1257.7969,282.1875 1258.4531,281.9375 Q1258.8438,281.7813 1259.2656,281.3438 Q1259.5313,281.0781 1259.6797,281 Q1259.8281,280.9219 1260.0313,280.9219 Q1260.3594,280.9219 1260.6172,281.1797 Q1260.875,281.4375 1260.875,281.7813 Q1260.875,282.125 1260.5313,282.5313 Q1260.0313,283.1094 1259.2344,283.4375 Q1258.1563,283.8906 1256.8594,283.8906 Q1255.3438,283.8906 1254.1406,283.2656 Q1253.1563,282.7656 1252.4688,281.6953 Q1251.7813,280.625 1251.7813,279.3438 L1251.7813,278.1875 Q1251.7813,276.8594 1252.3984,275.7109 Q1253.0156,274.5625 1254.1094,273.9453 Q1255.2031,273.3281 1256.4375,273.3281 Q1257.1719,273.3281 1257.8203,273.4922 Q1258.4688,273.6563 1259.0156,274.0156 Z " fill="#000000"/><text fill="#000000" font-family="sans-serif" font-size="12" lengthAdjust="spacing" textLength="89" x="1276.75" y="283.0508">Fishstick_detect</text><line style="stroke:#A80036;stroke-width:1.5;" x1="1091" x2="1519" y1="294.1406" y2="294.1406"/><ellipse cx="1101" cy="305.1406" rx="3" ry="3" style="stroke:#038048;stroke-width:1.0;fill:none;"/><text fill="#000000" font-family="sans-serif" font-size="11" lengthAdjust="spacing" textLength="28" x="1110" y="309.5596">image</text><ellipse cx="1101" cy="318.9766" rx="3" ry="3" style="stroke:#038048;stroke-width:1.0;fill:none;"/><text fill="#000000" font-family="sans-serif" font-size="11" lengthAdjust="spacing" textLength="65" x="1110" y="323.3955">maskedImage</text><ellipse cx="1101" cy="332.8125" rx="3" ry="3" style="stroke:#038048;stroke-width:1.0;fill:none;"/><text fill="#000000" font-family="sans-serif" font-size="11" lengthAdjust="spacing" textLength="52" x="1110" y="337.2314">targetFood</text><line style="stroke:#A80036;stroke-width:1.5;" x1="1091" x2="1519" y1="343.6484" y2="343.6484"/><ellipse cx="1101" cy="354.6484" fill="#84BE84" rx="3" ry="3" style="stroke:#038048;stroke-width:1.0;"/><text fill="#000000" font-family="sans-serif" font-size="11" lengthAdjust="spacing" textLength="404" x="1110" y="359.0674">def _init_(self, minH, minS, minV, maxH, maxS, maxV, blurVal, TargetFood.Fishstick)</text><!--MD5=[2e45eb190c1dabff594e7f02e4caa45f]
class Pasta_detect--><rect codeLine="147" fill="#FEFECE" filter="url(#f1i9reaakir2ry)" height="103.3438" id="Pasta_detect" style="stroke:#A80036;stroke-width:1.5;" width="415" x="183.5" y="43.6406"/><ellipse cx="350.75" cy="59.6406" fill="#ADD1B2" rx="11" ry="11" style="stroke:#A80036;stroke-width:1.0;"/><path d="M353.5156,55.5156 Q353.6719,55.2969 353.8594,55.1875 Q354.0469,55.0781 354.2656,55.0781 Q354.6406,55.0781 354.875,55.3359 Q355.1094,55.5938 355.1094,56.2031 L355.1094,57.6563 Q355.1094,58.2656 354.875,58.5313 Q354.6406,58.7969 354.2656,58.7969 Q353.9219,58.7969 353.7188,58.5938 Q353.5156,58.4063 353.4063,57.8906 Q353.3594,57.5313 353.1719,57.3438 Q352.8438,56.9688 352.2344,56.75 Q351.625,56.5313 351,56.5313 Q350.2344,56.5313 349.6016,56.8594 Q348.9688,57.1875 348.4766,57.9375 Q347.9844,58.6875 347.9844,59.7188 L347.9844,60.8125 Q347.9844,62.0469 348.875,62.8672 Q349.7656,63.6875 351.3594,63.6875 Q352.2969,63.6875 352.9531,63.4375 Q353.3438,63.2813 353.7656,62.8438 Q354.0313,62.5781 354.1797,62.5 Q354.3281,62.4219 354.5313,62.4219 Q354.8594,62.4219 355.1172,62.6797 Q355.375,62.9375 355.375,63.2813 Q355.375,63.625 355.0313,64.0313 Q354.5313,64.6094 353.7344,64.9375 Q352.6563,65.3906 351.3594,65.3906 Q349.8438,65.3906 348.6406,64.7656 Q347.6563,64.2656 346.9688,63.1953 Q346.2813,62.125 346.2813,60.8438 L346.2813,59.6875 Q346.2813,58.3594 346.8984,57.2109 Q347.5156,56.0625 348.6094,55.4453 Q349.7031,54.8281 350.9375,54.8281 Q351.6719,54.8281 352.3203,54.9922 Q352.9688,55.1563 353.5156,55.5156 Z " fill="#000000"/><text fill="#000000" font-family="sans-serif" font-size="12" lengthAdjust="spacing" textLength="72" x="371.25" y="64.5508">Pasta_detect</text><line style="stroke:#A80036;stroke-width:1.5;" x1="184.5" x2="597.5" y1="75.6406" y2="75.6406"/><ellipse cx="194.5" cy="86.6406" rx="3" ry="3" style="stroke:#038048;stroke-width:1.0;fill:none;"/><text fill="#000000" font-family="sans-serif" font-size="11" lengthAdjust="spacing" textLength="28" x="203.5" y="91.0596">image</text><ellipse cx="194.5" cy="100.4766" rx="3" ry="3" style="stroke:#038048;stroke-width:1.0;fill:none;"/><text fill="#000000" font-family="sans-serif" font-size="11" lengthAdjust="spacing" textLength="65" x="203.5" y="104.8955">maskedImage</text><ellipse cx="194.5" cy="114.3125" rx="3" ry="3" style="stroke:#038048;stroke-width:1.0;fill:none;"/><text fill="#000000" font-family="sans-serif" font-size="11" lengthAdjust="spacing" textLength="52" x="203.5" y="118.7314">targetFood</text><line style="stroke:#A80036;stroke-width:1.5;" x1="184.5" x2="597.5" y1="125.1484" y2="125.1484"/><ellipse cx="194.5" cy="136.1484" fill="#84BE84" rx="3" ry="3" style="stroke:#038048;stroke-width:1.0;"/><text fill="#000000" font-family="sans-serif" font-size="11" lengthAdjust="spacing" textLength="389" x="203.5" y="140.5674">def _init_(self, minH, minS, minV, maxH, maxS, maxV, blurVal, TargetFood.Pasta)</text><!--MD5=[be732f6ac203d09df77b6bae6cf0e396]
class Meatball_detect--><rect codeLine="153" fill="#FEFECE" filter="url(#f1i9reaakir2ry)" height="131.0156" id="Meatball_detect" style="stroke:#A80036;stroke-width:1.5;" width="427" x="633.5" y="29.6406"/><ellipse cx="799.75" cy="45.6406" fill="#ADD1B2" rx="11" ry="11" style="stroke:#A80036;stroke-width:1.0;"/><path d="M802.5156,41.5156 Q802.6719,41.2969 802.8594,41.1875 Q803.0469,41.0781 803.2656,41.0781 Q803.6406,41.0781 803.875,41.3359 Q804.1094,41.5938 804.1094,42.2031 L804.1094,43.6563 Q804.1094,44.2656 803.875,44.5313 Q803.6406,44.7969 803.2656,44.7969 Q802.9219,44.7969 802.7188,44.5938 Q802.5156,44.4063 802.4063,43.8906 Q802.3594,43.5313 802.1719,43.3438 Q801.8438,42.9688 801.2344,42.75 Q800.625,42.5313 800,42.5313 Q799.2344,42.5313 798.6016,42.8594 Q797.9688,43.1875 797.4766,43.9375 Q796.9844,44.6875 796.9844,45.7188 L796.9844,46.8125 Q796.9844,48.0469 797.875,48.8672 Q798.7656,49.6875 800.3594,49.6875 Q801.2969,49.6875 801.9531,49.4375 Q802.3438,49.2813 802.7656,48.8438 Q803.0313,48.5781 803.1797,48.5 Q803.3281,48.4219 803.5313,48.4219 Q803.8594,48.4219 804.1172,48.6797 Q804.375,48.9375 804.375,49.2813 Q804.375,49.625 804.0313,50.0313 Q803.5313,50.6094 802.7344,50.9375 Q801.6563,51.3906 800.3594,51.3906 Q798.8438,51.3906 797.6406,50.7656 Q796.6563,50.2656 795.9688,49.1953 Q795.2813,48.125 795.2813,46.8438 L795.2813,45.6875 Q795.2813,44.3594 795.8984,43.2109 Q796.5156,42.0625 797.6094,41.4453 Q798.7031,40.8281 799.9375,40.8281 Q800.6719,40.8281 801.3203,40.9922 Q801.9688,41.1563 802.5156,41.5156 Z " fill="#000000"/><text fill="#000000" font-family="sans-serif" font-size="12" lengthAdjust="spacing" textLength="86" x="820.25" y="50.5508">Meatball_detect</text><line style="stroke:#A80036;stroke-width:1.5;" x1="634.5" x2="1059.5" y1="61.6406" y2="61.6406"/><ellipse cx="644.5" cy="72.6406" rx="3" ry="3" style="stroke:#038048;stroke-width:1.0;fill:none;"/><text fill="#000000" font-family="sans-serif" font-size="11" lengthAdjust="spacing" textLength="28" x="653.5" y="77.0596">image</text><ellipse cx="644.5" cy="86.4766" rx="3" ry="3" style="stroke:#038048;stroke-width:1.0;fill:none;"/><text fill="#000000" font-family="sans-serif" font-size="11" lengthAdjust="spacing" textLength="65" x="653.5" y="90.8955">maskedImage</text><ellipse cx="644.5" cy="100.3125" rx="3" ry="3" style="stroke:#038048;stroke-width:1.0;fill:none;"/><text fill="#000000" font-family="sans-serif" font-size="11" lengthAdjust="spacing" textLength="52" x="653.5" y="104.7314">targetFood</text><line style="stroke:#A80036;stroke-width:1.5;" x1="634.5" x2="1059.5" y1="111.1484" y2="111.1484"/><ellipse cx="644.5" cy="122.1484" fill="#84BE84" rx="3" ry="3" style="stroke:#038048;stroke-width:1.0;"/><text fill="#000000" font-family="sans-serif" font-size="11" lengthAdjust="spacing" textLength="401" x="653.5" y="126.5674">def _init_(self, minH, minS, minV, maxH, maxS, maxV, blurVal, TargetFood.Meatball)</text><ellipse cx="644.5" cy="135.9844" fill="#84BE84" rx="3" ry="3" style="stroke:#038048;stroke-width:1.0;"/><text fill="#000000" font-family="sans-serif" font-size="11" lengthAdjust="spacing" textLength="177" x="653.5" y="140.4033">def findFood(self, minSize, maxSize)</text><ellipse cx="644.5" cy="149.8203" fill="#84BE84" rx="3" ry="3" style="stroke:#038048;stroke-width:1.0;"/><text fill="#000000" font-family="sans-serif" font-size="11" lengthAdjust="spacing" textLength="175" x="653.5" y="154.2393">def meatballCrop(self, image, x, y, r)</text><!--MD5=[9965b261fb6902ce1486735228884d99]
class Potato_detect--><rect codeLine="161" fill="#FEFECE" filter="url(#f1i9reaakir2ry)" height="103.3438" id="Potato_detect" style="stroke:#A80036;stroke-width:1.5;" width="418" x="1096" y="43.6406"/><ellipse cx="1263.25" cy="59.6406" fill="#ADD1B2" rx="11" ry="11" style="stroke:#A80036;stroke-width:1.0;"/><path d="M1266.0156,55.5156 Q1266.1719,55.2969 1266.3594,55.1875 Q1266.5469,55.0781 1266.7656,55.0781 Q1267.1406,55.0781 1267.375,55.3359 Q1267.6094,55.5938 1267.6094,56.2031 L1267.6094,57.6563 Q1267.6094,58.2656 1267.375,58.5313 Q1267.1406,58.7969 1266.7656,58.7969 Q1266.4219,58.7969 1266.2188,58.5938 Q1266.0156,58.4063 1265.9063,57.8906 Q1265.8594,57.5313 1265.6719,57.3438 Q1265.3438,56.9688 1264.7344,56.75 Q1264.125,56.5313 1263.5,56.5313 Q1262.7344,56.5313 1262.1016,56.8594 Q1261.4688,57.1875 1260.9766,57.9375 Q1260.4844,58.6875 1260.4844,59.7188 L1260.4844,60.8125 Q1260.4844,62.0469 1261.375,62.8672 Q1262.2656,63.6875 1263.8594,63.6875 Q1264.7969,63.6875 1265.4531,63.4375 Q1265.8438,63.2813 1266.2656,62.8438 Q1266.5313,62.5781 1266.6797,62.5 Q1266.8281,62.4219 1267.0313,62.4219 Q1267.3594,62.4219 1267.6172,62.6797 Q1267.875,62.9375 1267.875,63.2813 Q1267.875,63.625 1267.5313,64.0313 Q1267.0313,64.6094 1266.2344,64.9375 Q1265.1563,65.3906 1263.8594,65.3906 Q1262.3438,65.3906 1261.1406,64.7656 Q1260.1563,64.2656 1259.4688,63.1953 Q1258.7813,62.125 1258.7813,60.8438 L1258.7813,59.6875 Q1258.7813,58.3594 1259.3984,57.2109 Q1260.0156,56.0625 1261.1094,55.4453 Q1262.2031,54.8281 1263.4375,54.8281 Q1264.1719,54.8281 1264.8203,54.9922 Q1265.4688,55.1563 1266.0156,55.5156 Z " fill="#000000"/><text fill="#000000" font-family="sans-serif" font-size="12" lengthAdjust="spacing" textLength="75" x="1283.75" y="64.5508">Potato_detect</text><line style="stroke:#A80036;stroke-width:1.5;" x1="1097" x2="1513" y1="75.6406" y2="75.6406"/><ellipse cx="1107" cy="86.6406" rx="3" ry="3" style="stroke:#038048;stroke-width:1.0;fill:none;"/><text fill="#000000" font-family="sans-serif" font-size="11" lengthAdjust="spacing" textLength="28" x="1116" y="91.0596">image</text><ellipse cx="1107" cy="100.4766" rx="3" ry="3" style="stroke:#038048;stroke-width:1.0;fill:none;"/><text fill="#000000" font-family="sans-serif" font-size="11" lengthAdjust="spacing" textLength="65" x="1116" y="104.8955">maskedImage</text><ellipse cx="1107" cy="114.3125" rx="3" ry="3" style="stroke:#038048;stroke-width:1.0;fill:none;"/><text fill="#000000" font-family="sans-serif" font-size="11" lengthAdjust="spacing" textLength="52" x="1116" y="118.7314">targetFood</text><line style="stroke:#A80036;stroke-width:1.5;" x1="1097" x2="1513" y1="125.1484" y2="125.1484"/><ellipse cx="1107" cy="136.1484" fill="#84BE84" rx="3" ry="3" style="stroke:#038048;stroke-width:1.0;"/><text fill="#000000" font-family="sans-serif" font-size="11" lengthAdjust="spacing" textLength="392" x="1116" y="140.5674">def _init_(self, minH, minS, minV, maxH, maxS, maxV, blurVal, TargetFood.Potato)</text><!--MD5=[cb8d2d6bb0973805ca70ebbec184d372]
class Carrot_detect--><rect codeLine="167" fill="#FEFECE" filter="url(#f1i9reaakir2ry)" height="103.3438" id="Carrot_detect" style="stroke:#A80036;stroke-width:1.5;" width="418" x="1549" y="43.6406"/><ellipse cx="1716.75" cy="59.6406" fill="#ADD1B2" rx="11" ry="11" style="stroke:#A80036;stroke-width:1.0;"/><path d="M1719.5156,55.5156 Q1719.6719,55.2969 1719.8594,55.1875 Q1720.0469,55.0781 1720.2656,55.0781 Q1720.6406,55.0781 1720.875,55.3359 Q1721.1094,55.5938 1721.1094,56.2031 L1721.1094,57.6563 Q1721.1094,58.2656 1720.875,58.5313 Q1720.6406,58.7969 1720.2656,58.7969 Q1719.9219,58.7969 1719.7188,58.5938 Q1719.5156,58.4063 1719.4063,57.8906 Q1719.3594,57.5313 1719.1719,57.3438 Q1718.8438,56.9688 1718.2344,56.75 Q1717.625,56.5313 1717,56.5313 Q1716.2344,56.5313 1715.6016,56.8594 Q1714.9688,57.1875 1714.4766,57.9375 Q1713.9844,58.6875 1713.9844,59.7188 L1713.9844,60.8125 Q1713.9844,62.0469 1714.875,62.8672 Q1715.7656,63.6875 1717.3594,63.6875 Q1718.2969,63.6875 1718.9531,63.4375 Q1719.3438,63.2813 1719.7656,62.8438 Q1720.0313,62.5781 1720.1797,62.5 Q1720.3281,62.4219 1720.5313,62.4219 Q1720.8594,62.4219 1721.1172,62.6797 Q1721.375,62.9375 1721.375,63.2813 Q1721.375,63.625 1721.0313,64.0313 Q1720.5313,64.6094 1719.7344,64.9375 Q1718.6563,65.3906 1717.3594,65.3906 Q1715.8438,65.3906 1714.6406,64.7656 Q1713.6563,64.2656 1712.9688,63.1953 Q1712.2813,62.125 1712.2813,60.8438 L1712.2813,59.6875 Q1712.2813,58.3594 1712.8984,57.2109 Q1713.5156,56.0625 1714.6094,55.4453 Q1715.7031,54.8281 1716.9375,54.8281 Q1717.6719,54.8281 1718.3203,54.9922 Q1718.9688,55.1563 1719.5156,55.5156 Z " fill="#000000"/><text fill="#000000" font-family="sans-serif" font-size="12" lengthAdjust="spacing" textLength="74" x="1737.25" y="64.5508">Carrot_detect</text><line style="stroke:#A80036;stroke-width:1.5;" x1="1550" x2="1966" y1="75.6406" y2="75.6406"/><ellipse cx="1560" cy="86.6406" rx="3" ry="3" style="stroke:#038048;stroke-width:1.0;fill:none;"/><text fill="#000000" font-family="sans-serif" font-size="11" lengthAdjust="spacing" textLength="28" x="1569" y="91.0596">image</text><ellipse cx="1560" cy="100.4766" rx="3" ry="3" style="stroke:#038048;stroke-width:1.0;fill:none;"/><text fill="#000000" font-family="sans-serif" font-size="11" lengthAdjust="spacing" textLength="65" x="1569" y="104.8955">maskedImage</text><ellipse cx="1560" cy="114.3125" rx="3" ry="3" style="stroke:#038048;stroke-width:1.0;fill:none;"/><text fill="#000000" font-family="sans-serif" font-size="11" lengthAdjust="spacing" textLength="52" x="1569" y="118.7314">targetFood</text><line style="stroke:#A80036;stroke-width:1.5;" x1="1550" x2="1966" y1="125.1484" y2="125.1484"/><ellipse cx="1560" cy="136.1484" fill="#84BE84" rx="3" ry="3" style="stroke:#038048;stroke-width:1.0;"/><text fill="#000000" font-family="sans-serif" font-size="11" lengthAdjust="spacing" textLength="392" x="1569" y="140.5674">def _init_(self, minH, minS, minV, maxH, maxS, maxV, blurVal, TargetFood.Carrot)</text><!--MD5=[4520fda4e10d4d791ce48fe025810cd4]
class main--><rect fill="#FEFECE" filter="url(#f1i9reaakir2ry)" height="48" id="main" style="stroke:#A80036;stroke-width:1.5;" width="60" x="337" y="289.6406"/><ellipse cx="352" cy="305.6406" fill="#ADD1B2" rx="11" ry="11" style="stroke:#A80036;stroke-width:1.0;"/><path d="M354.7656,301.5156 Q354.9219,301.2969 355.1094,301.1875 Q355.2969,301.0781 355.5156,301.0781 Q355.8906,301.0781 356.125,301.3359 Q356.3594,301.5938 356.3594,302.2031 L356.3594,303.6563 Q356.3594,304.2656 356.125,304.5313 Q355.8906,304.7969 355.5156,304.7969 Q355.1719,304.7969 354.9688,304.5938 Q354.7656,304.4063 354.6563,303.8906 Q354.6094,303.5313 354.4219,303.3438 Q354.0938,302.9688 353.4844,302.75 Q352.875,302.5313 352.25,302.5313 Q351.4844,302.5313 350.8516,302.8594 Q350.2188,303.1875 349.7266,303.9375 Q349.2344,304.6875 349.2344,305.7188 L349.2344,306.8125 Q349.2344,308.0469 350.125,308.8672 Q351.0156,309.6875 352.6094,309.6875 Q353.5469,309.6875 354.2031,309.4375 Q354.5938,309.2813 355.0156,308.8438 Q355.2813,308.5781 355.4297,308.5 Q355.5781,308.4219 355.7813,308.4219 Q356.1094,308.4219 356.3672,308.6797 Q356.625,308.9375 356.625,309.2813 Q356.625,309.625 356.2813,310.0313 Q355.7813,310.6094 354.9844,310.9375 Q353.9063,311.3906 352.6094,311.3906 Q351.0938,311.3906 349.8906,310.7656 Q348.9063,310.2656 348.2188,309.1953 Q347.5313,308.125 347.5313,306.8438 L347.5313,305.6875 Q347.5313,304.3594 348.1484,303.2109 Q348.7656,302.0625 349.8594,301.4453 Q350.9531,300.8281 352.1875,300.8281 Q352.9219,300.8281 353.5703,300.9922 Q354.2188,301.1563 354.7656,301.5156 Z " fill="#000000"/><text fill="#000000" font-family="sans-serif" font-size="12" lengthAdjust="spacing" textLength="28" x="366" y="310.5508">main</text><line style="stroke:#A80036;stroke-width:1.5;" x1="338" x2="396" y1="321.6406" y2="321.6406"/><line style="stroke:#A80036;stroke-width:1.5;" x1="338" x2="396" y1="329.6406" y2="329.6406"/><!--MD5=[e807c2ba8936a8ad6f8dc299dd8d1a68]
reverse link main to Food_recognition--><path codeLine="174" d="M410.19,313.6406 C417.47,313.6406 424.75,313.6406 432.03,313.6406 " fill="none" id="main-backto-Food_recognition" style="stroke:#A80036;stroke-width:1.0;"/><polygon fill="#FFFFFF" points="397.08,313.6406,403.08,317.6406,409.08,313.6406,403.08,309.6406,397.08,313.6406" style="stroke:#A80036;stroke-width:1.0;"/><!--MD5=[446c282dda0c09e13ac36a6d59838058]
link Pan to main--><path codeLine="175" d="M302.25,313.6406 C309.38,313.6406 316.51,313.6406 323.64,313.6406 " fill="none" id="Pan-to-main" style="stroke:#A80036;stroke-width:1.0;"/><polygon fill="#FFFFFF" points="336.9,313.6406,330.9,309.6406,324.9,313.6406,330.9,317.6406,336.9,313.6406" style="stroke:#A80036;stroke-width:1.0;"/><!--MD5=[d9cd2e14b35b5185f699daa31fed543e]
reverse link Circle to Pan--><path codeLine="176" d="M142.25,313.6406 C152.11,313.6406 161.97,313.6406 171.83,313.6406 " fill="none" id="Circle-backto-Pan" style="stroke:#A80036;stroke-width:1.0;"/><polygon fill="#A80036" points="137.1,313.6406,146.1,317.6406,142.1,313.6406,146.1,309.6406,137.1,313.6406" style="stroke:#A80036;stroke-width:1.0;"/><!--MD5=[52d3055c3b78d57b3073d86864c50736]
reverse link Food_recognition to Detector--><path codeLine="178" d="M616.97,313.6406 C624.29,313.6406 631.61,313.6406 638.94,313.6406 " fill="none" id="Food_recognition-backto-Detector" style="stroke:#A80036;stroke-width:1.0;"/><polygon fill="#FFFFFF" points="603.78,313.6406,609.78,317.6406,615.78,313.6406,609.78,309.6406,603.78,313.6406" style="stroke:#A80036;stroke-width:1.0;"/><!--MD5=[ad23accec198b623edc4e2f5af65effd]
reverse link Shape to Food--><path codeLine="179" d="M63.81,564.6906 C70.16,521.4506 86.99,462.2006 131.5,436.6406 C184.59,406.1506 626.43,412.0606 682.5,436.6406 C699.77,444.2106 716.03,454.5906 731.11,466.5606 " fill="none" id="Shape-backto-Food" style="stroke:#A80036;stroke-width:1.0;"/><polygon fill="#A80036" points="63.08,569.8806,68.2755,561.5136,63.7651,564.9278,60.3509,560.4174,63.08,569.8806" style="stroke:#A80036;stroke-width:1.0;"/><!--MD5=[760057f24113e96b58efdc6675797505]
reverse link Detector to Food--><path codeLine="180" d="M847,420.0006 C847,435.0706 847,450.7906 847,466.4906 " fill="none" id="Detector-backto-Food" style="stroke:#A80036;stroke-width:1.0;"/><polygon fill="#FFFFFF" points="847,406.9406,843,412.9406,847,418.9406,851,412.9406,847,406.9406" style="stroke:#A80036;stroke-width:1.0;"/><!--MD5=[e45d8f0e602fdcdf19d0a396f9c3f0d0]
reverse link Food to Bean--><path codeLine="181" d="M979.22,454.5806 C989.53,447.6406 1000.3,441.5506 1011.5,436.6406 C1064.01,413.6206 1217.02,413.5406 1269.5,436.6406 C1315.85,457.0406 1354.79,497.7806 1383.03,535.2006 " fill="none" id="Food-backto-Bean" style="stroke:#A80036;stroke-width:1.0;"/><polygon fill="none" points="983.16,460.3706,962.89,466.5606,974.88,449.0906,983.16,460.3706" style="stroke:#A80036;stroke-width:1.0;"/><!--MD5=[399d41b64dd9a98360771f458c8e9bc1]
reverse link Food to Fishstick--><path codeLine="182" d="M996.22,615.1406 C1001.13,615.1406 1006.04,615.1406 1010.95,615.1406 " fill="none" id="Food-backto-Fishstick" style="stroke:#A80036;stroke-width:1.0;"/><polygon fill="none" points="996.05,622.1406,976.05,615.1406,996.05,608.1406,996.05,622.1406" style="stroke:#A80036;stroke-width:1.0;"/><!--MD5=[ba2c9d4b9f44a6c12e7f678f66608a91]
reverse link Food to Pasta--><path codeLine="183" d="M762.31,782.0406 C754.99,796.3806 747.83,810.4106 741.14,823.5206 " fill="none" id="Food-backto-Pasta" style="stroke:#A80036;stroke-width:1.0;"/><polygon fill="none" points="756.32,778.3806,771.65,763.7506,768.79,784.7406,756.32,778.3806" style="stroke:#A80036;stroke-width:1.0;"/><!--MD5=[e6b4254d7a92e9cb6ab3946edc3af295]
reverse link Food to Meatball--><path codeLine="184" d="M932.02,781.5606 C939.48,796.0706 946.77,810.2606 953.59,823.5206 " fill="none" id="Food-backto-Meatball" style="stroke:#A80036;stroke-width:1.0;"/><polygon fill="none" points="925.79,784.7406,922.87,763.7506,938.24,778.3406,925.79,784.7406" style="stroke:#A80036;stroke-width:1.0;"/><!--MD5=[6779350c1a04944891042b8336d24380]
link Potato to Food--><path codeLine="185" d="M310.97,535.2006 C339.21,497.7806 378.15,457.0406 424.5,436.6406 C476.98,413.5406 629.99,413.6206 682.5,436.6406 C693.7,441.5506 704.47,447.6406 714.78,454.5806 " fill="none" id="Potato-to-Food" style="stroke:#A80036;stroke-width:1.0;"/><polygon fill="none" points="719.12,449.0906,731.11,466.5606,710.84,460.3706,719.12,449.0906" style="stroke:#A80036;stroke-width:1.0;"/><!--MD5=[7f7ac7dffcdcfef710f9f6cae1916705]
link Carrot to Food--><path codeLine="186" d="M683.05,615.1406 C687.95,615.1406 692.86,615.1406 697.77,615.1406 " fill="none" id="Carrot-to-Food" style="stroke:#A80036;stroke-width:1.0;"/><polygon fill="none" points="697.95,608.1406,717.95,615.1406,697.95,622.1406,697.95,608.1406" style="stroke:#A80036;stroke-width:1.0;"/><!--MD5=[abc2f61291a14bb30aab78124fec52bf]
reverse link TargetFood to Detector--><path codeLine="188" d="M152.92,152.8606 C157.13,155.7906 161.5,158.4306 166,160.6406 C349.1,250.5206 423.82,168.4306 621,220.6406 C626.94,222.2106 632.93,223.9006 638.95,225.6906 " fill="none" id="TargetFood-backto-Detector" style="stroke:#A80036;stroke-width:1.0;"/><polygon fill="#A80036" points="148.76,149.8306,153.6824,158.3612,152.8024,152.7732,158.3904,151.8933,148.76,149.8306" style="stroke:#A80036;stroke-width:1.0;"/><!--MD5=[fa319bc05e0d9144e8f03dce9f7f9bc6]
reverse link Detector to Bean_detect--><path codeLine="189" d="M1023.97,212.5306 C1045.82,203.5906 1068.3,195.9306 1090.5,190.6406 C1183.45,168.5006 1427.58,168.3406 1520.5,190.6406 C1578.61,204.5806 1638.5,234.9706 1684.1,262.0406 " fill="none" id="Detector-backto-Bean_detect" style="stroke:#A80036;stroke-width:1.0;"/><polygon fill="none" points="1026.5,219.0606,1005.36,220.5106,1020.98,206.2006,1026.5,219.0606" style="stroke:#A80036;stroke-width:1.0;"/><!--MD5=[a0dc6a232d17053648728432892f1301]
reverse link Detector to Fishstick_detect--><path codeLine="190" d="M1075.69,313.6406 C1080.31,313.6406 1084.93,313.6406 1089.55,313.6406 " fill="none" id="Detector-backto-Fishstick_detect" style="stroke:#A80036;stroke-width:1.0;"/><polygon fill="none" points="1075.43,320.6406,1055.43,313.6406,1075.43,306.6406,1075.43,320.6406" style="stroke:#A80036;stroke-width:1.0;"/><!--MD5=[c06be5dbb03099c8d665c0a32922f545]
link Pasta_detect to Detector--><path codeLine="191" d="M497.62,146.7606 C538.7,166.2706 587.2,189.2906 634.77,211.8806 " fill="none" id="Pasta_detect-to-Detector" style="stroke:#A80036;stroke-width:1.0;"/><polygon fill="none" points="637.88,205.6006,652.94,220.5106,631.87,218.2506,637.88,205.6006" style="stroke:#A80036;stroke-width:1.0;"/><!--MD5=[092b128ea54a76e43c810f25a86984fc]
link Meatball_detect to Detector--><path codeLine="192" d="M847,160.8006 C847,173.2206 847,186.5406 847,199.9606 " fill="none" id="Meatball_detect-to-Detector" style="stroke:#A80036;stroke-width:1.0;"/><polygon fill="none" points="854,200.2906,847,220.2906,840,200.2906,854,200.2906" style="stroke:#A80036;stroke-width:1.0;"/><!--MD5=[4eda820de6d9aa4fdd04f9bde5f5d669]
link Potato_detect to Detector--><path codeLine="193" d="M1197.91,146.7606 C1156.65,166.2706 1107.94,189.2906 1060.16,211.8806 " fill="none" id="Potato_detect-to-Detector" style="stroke:#A80036;stroke-width:1.0;"/><polygon fill="none" points="1062.98,218.2906,1041.91,220.5106,1057,205.6306,1062.98,218.2906" style="stroke:#A80036;stroke-width:1.0;"/><!--MD5=[abaa4ce3e2f2b34a718f9076ac1d0dbc]
link Carrot_detect to Detector--><path codeLine="194" d="M1591.46,146.6706 C1571.53,151.8306 1551.38,156.6306 1532,160.6406 C1336.73,201.0406 1275.65,170.1206 1074.62,220.6206 " fill="none" id="Carrot_detect-to-Detector" style="stroke:#A80036;stroke-width:1.0;"/><polygon fill="none" points="1076.17,227.4506,1055.05,225.6806,1072.66,213.9006,1076.17,227.4506" style="stroke:#A80036;stroke-width:1.0;"/><!--MD5=[9747222c98251c283e81a2422cafbede]
@startuml Main Program- Class Diagram
title Main Program- Class Diagram

class Pan {
  + image
  +def _init_(self, image)
  +def getMasked(self)
}
class Circle {
  + x
  + y
  + r
  +def _init_(self, x, y, r)
}

Enum Shape {
  + Circle
  + Rectangle
  + Oval
}

class Food {
  + shape
  + x
  + y
  + width
  + height
  + area
  + prominentColor
  +def _init_(self, image, shape, x, y, width, height)
  +def getImage(self)
  +def getShape(self)
  +def getArea(self)
  +def getPerimeter(self)
  +def getProminentColorBlue(self)
  +def getProminentColorGreen(self)
  +def getProminentColorRed(self)
  +def getProminentHue(self)
  +def determineArea(self, image)
  +def determineProminentColor(self, img)
}

class Bean {
  + shape
  + x
  + y
  + width
  + height
  + area
  + prominentColor
  +def _init_(self, image, shape, x, y, width, height)
}
class Fishstick {
  + shape
  + x
  + y
  + width
  + height
  + area
  + prominentColor
  +def _init_(self, image, shape, x, y, width, height)
}
class Pasta {
  + shape
  + x
  + y
  + width
  + height
  + area
  + prominentColor
  +def _init_(self, image, shape, x, y, width, height)
}
class Meatball {
  + shape
  + x
  + y
  + width
  + height
  + area
  + prominentColor
  +def _init_(self, image, shape, x, y, width, height)
}
class Potato {
  + shape
  + x
  + y
  + width
  + height
  + area
  + prominentColor
  +def _init_(self, image, shape, x, y, width, height)
}
class Carrot {
  + shape
  + x
  + y
  + width
  + height
  + area
  + prominentColor
  +def _init_(self, image, shape, x, y, width, height)
}

class Food_recognition {
  + meatballDetector
  + pastaDetector
  + beanDetector
  + fishstickDetector
  + potatoDetector
  + carrotDetector
  +def _init_(self)
  +def recognize(self, panImage)
}

Enum TargetFood {
  + Meatball
  + Pasta
  + Bean
  + Fishstick
  + Potato
  + Carrot
}

class Detector {
  + image
  + maskedImage
  + targetFood
  +def _init_(self, image, minH, minS, minV, maxH, maxS, maxV, blurVal, targetFood)
  +def maskImage(self, image, minH, minS, minV, maxH, maxS, maxV, blurVal)
  +def findFood(self, minSize, maxSize)
  +def createCorrectFood(self, contours, contour, contourIndex)
  +def getImage(self)
  +def getMaskedImage(self)
  +def getTargetFood(self)
}
class Bean_detect {
  + image
  + maskedImage
  + targetFood
  +def _init_(self, minH, minS, minV, maxH, maxS, maxV, blurVal, TargetFood.Bean)
}
class Fishstick_detect {
  + image
  + maskedImage
  + targetFood
  +def _init_(self, minH, minS, minV, maxH, maxS, maxV, blurVal, TargetFood.Fishstick)
}
class Pasta_detect {
  + image
  + maskedImage
  + targetFood
  +def _init_(self, minH, minS, minV, maxH, maxS, maxV, blurVal, TargetFood.Pasta)
}
class Meatball_detect {
  + image
  + maskedImage
  + targetFood
  +def _init_(self, minH, minS, minV, maxH, maxS, maxV, blurVal, TargetFood.Meatball)
  +def findFood(self, minSize, maxSize)
  +def meatballCrop(self, image, x, y, r)
}
class Potato_detect {
  + image
  + maskedImage
  + targetFood
  +def _init_(self, minH, minS, minV, maxH, maxS, maxV, blurVal, TargetFood.Potato)
}
class Carrot_detect {
  + image
  + maskedImage
  + targetFood
  +def _init_(self, minH, minS, minV, maxH, maxS, maxV, blurVal, TargetFood.Carrot)
}

main o-right- Food_recognition
main o-left- Pan
Pan -left-> Circle

Food_recognition o-right- Detector
Food -left-> Shape
Detector o- - Food
Bean -left-|> Food
Fishstick -left-|> Food
Pasta -up-|> Food
Meatball -up-|> Food
Potato -right-|> Food
Carrot -right-|> Food

TargetFood <- - Detector
Bean_detect -left-|> Detector
Fishstick_detect -left-|> Detector
Pasta_detect - -|> Detector
Meatball_detect - -|> Detector
Potato_detect - -|> Detector
Carrot_detect - -|> Detector
@enduml

PlantUML version 1.2021.14(Fri Nov 12 17:46:50 CET 2021)
(GPL source distribution)
Java Runtime: Java(TM) SE Runtime Environment
JVM: Java HotSpot(TM) 64-Bit Server VM
Default Encoding: Cp1252
Language: nl
Country: NL
--></g></svg>