<?xml version="1.0" encoding="UTF-8" standalone="no"?><svg xmlns="http://www.w3.org/2000/svg" xmlns:xlink="http://www.w3.org/1999/xlink" contentScriptType="application/ecmascript" contentStyleType="text/css" height="1774px" preserveAspectRatio="none" style="width:1628px;height:1774px;background:#FFFFFF;" version="1.1" viewBox="0 0 1628 1774" width="1628px" zoomAndPan="magnify"><defs><filter height="300%" id="f13s92bjg1yal0" width="300%" x="-1" y="-1"><feGaussianBlur result="blurOut" stdDeviation="2.0"/><feColorMatrix in="blurOut" result="blurOut2" type="matrix" values="0 0 0 0 0 0 0 0 0 0 0 0 0 0 0 0 0 0 .4 0"/><feOffset dx="4.0" dy="4.0" in="blurOut2" result="blurOut3"/><feBlend in="SourceGraphic" in2="blurOut3" mode="normal"/></filter></defs><g><rect fill="#FFFFFF" filter="url(#f13s92bjg1yal0)" height="1548.6641" style="stroke:#A80036;stroke-width:1.0;" width="10" x="82.5" y="121.9609"/><rect fill="#FFFFFF" filter="url(#f13s92bjg1yal0)" height="886.6953" style="stroke:#A80036;stroke-width:1.0;" width="10" x="231.5" y="446.0625"/><rect fill="#FFFFFF" filter="url(#f13s92bjg1yal0)" height="228.3672" style="stroke:#A80036;stroke-width:1.0;" width="10" x="661.5" y="476.4141"/><rect fill="#FFFFFF" filter="url(#f13s92bjg1yal0)" height="41.3516" style="stroke:#A80036;stroke-width:1.0;" width="10" x="666.5" y="565.4688"/><rect fill="#FFFFFF" filter="url(#f13s92bjg1yal0)" height="268.4609" style="stroke:#A80036;stroke-width:1.0;" width="10" x="913.5" y="735.1328"/><rect fill="#FFFFFF" filter="url(#f13s92bjg1yal0)" height="41.3516" style="stroke:#A80036;stroke-width:1.0;" width="10" x="918.5" y="773.4844"/><rect fill="#FFFFFF" filter="url(#f13s92bjg1yal0)" height="55.3516" style="stroke:#A80036;stroke-width:1.0;" width="10" x="918.5" y="910.8906"/><rect fill="#FFFFFF" filter="url(#f13s92bjg1yal0)" height="268.4609" style="stroke:#A80036;stroke-width:1.0;" width="10" x="1101.5" y="1033.9453"/><rect fill="#FFFFFF" filter="url(#f13s92bjg1yal0)" height="41.3516" style="stroke:#A80036;stroke-width:1.0;" width="10" x="1106.5" y="1072.2969"/><rect fill="#FFFFFF" filter="url(#f13s92bjg1yal0)" height="55.3516" style="stroke:#A80036;stroke-width:1.0;" width="10" x="1106.5" y="1209.7031"/><rect fill="#FFFFFF" filter="url(#f13s92bjg1yal0)" height="76.9609" style="stroke:#A80036;stroke-width:1.0;" width="10" x="1289.5" y="338.75"/><rect fill="#FFFFFF" filter="url(#f13s92bjg1yal0)" height="30.3516" style="stroke:#A80036;stroke-width:1.0;" width="10" x="1564" y="1413.8125"/><rect fill="#FFFFFF" filter="url(#f13s92bjg1yal0)" height="30.3516" style="stroke:#A80036;stroke-width:1.0;" width="10" x="1564" y="1474.5156"/><rect fill="#FFFFFF" filter="url(#f13s92bjg1yal0)" height="30.3516" style="stroke:#A80036;stroke-width:1.0;" width="10" x="1564" y="1535.2188"/><rect fill="#FFFFFF" filter="url(#f13s92bjg1yal0)" height="30.3516" style="stroke:#A80036;stroke-width:1.0;" width="10" x="1564" y="1595.9219"/><rect fill="#FFFFFF" filter="url(#f13s92bjg1yal0)" height="184.0156" style="stroke:#000000;stroke-width:2.0;" width="963" x="590.5" y="491.4141"/><rect fill="#FFFFFF" filter="url(#f13s92bjg1yal0)" height="151.6641" style="stroke:#000000;stroke-width:2.0;" width="943" x="600.5" y="516.7656"/><rect fill="#FFFFFF" filter="url(#f13s92bjg1yal0)" height="94.0547" style="stroke:#000000;stroke-width:2.0;" width="292" x="851" y="836.8359"/><rect fill="#FFFFFF" filter="url(#f13s92bjg1yal0)" height="61.7031" style="stroke:#000000;stroke-width:2.0;" width="272" x="861" y="862.1875"/><rect fill="#FFFFFF" filter="url(#f13s92bjg1yal0)" height="94.0547" style="stroke:#000000;stroke-width:2.0;" width="292" x="1040.5" y="1135.6484"/><rect fill="#FFFFFF" filter="url(#f13s92bjg1yal0)" height="61.7031" style="stroke:#000000;stroke-width:2.0;" width="272" x="1050.5" y="1161"/><rect fill="#FFFFFF" filter="url(#f13s92bjg1yal0)" height="293.5156" style="stroke:#000000;stroke-width:2.0;" width="1574.5" x="40" y="1347.7578"/><rect fill="#FFFFFF" filter="url(#f13s92bjg1yal0)" height="261.1641" style="stroke:#000000;stroke-width:2.0;" width="1554.5" x="50" y="1373.1094"/><line style="stroke:#A80036;stroke-width:1.0;stroke-dasharray:5.0,5.0;" x1="22" x2="22" y1="89.6094" y2="1688.625"/><line style="stroke:#A80036;stroke-width:1.0;stroke-dasharray:5.0,5.0;" x1="87" x2="87" y1="89.6094" y2="1688.625"/><line style="stroke:#A80036;stroke-width:1.0;stroke-dasharray:5.0,5.0;" x1="236" x2="236" y1="89.6094" y2="1688.625"/><line style="stroke:#A80036;stroke-width:1.0;stroke-dasharray:5.0,5.0;" x1="666.5" x2="666.5" y1="163.2656" y2="1688.625"/><line style="stroke:#A80036;stroke-width:1.0;stroke-dasharray:5.0,5.0;" x1="918" x2="918" y1="209.875" y2="1688.625"/><line style="stroke:#A80036;stroke-width:1.0;stroke-dasharray:5.0,5.0;" x1="1106.5" x2="1106.5" y1="256.4844" y2="1688.625"/><line style="stroke:#A80036;stroke-width:1.0;stroke-dasharray:5.0,5.0;" x1="1294" x2="1294" y1="303.0938" y2="1688.625"/><line style="stroke:#A80036;stroke-width:1.0;stroke-dasharray:5.0,5.0;" x1="1425.5" x2="1425.5" y1="380.0547" y2="1688.625"/><line style="stroke:#A80036;stroke-width:1.0;stroke-dasharray:5.0,5.0;" x1="1497.5" x2="1497.5" y1="655.125" y2="1688.625"/><line style="stroke:#A80036;stroke-width:1.0;stroke-dasharray:5.0,5.0;" x1="1568.5" x2="1568.5" y1="89.6094" y2="1688.625"/><text fill="#000000" font-family="sans-serif" font-size="14" lengthAdjust="spacing" textLength="29" x="5" y="86.5332">User</text><ellipse cx="22.5" cy="15" fill="#FEFECE" filter="url(#f13s92bjg1yal0)" rx="8" ry="8" style="stroke:#A80036;stroke-width:2.0;"/><path d="M22.5,23 L22.5,50 M9.5,31 L35.5,31 M22.5,50 L9.5,65 M22.5,50 L35.5,65 " fill="none" filter="url(#f13s92bjg1yal0)" style="stroke:#A80036;stroke-width:2.0;"/><text fill="#000000" font-family="sans-serif" font-size="14" lengthAdjust="spacing" textLength="29" x="5" y="1702.1582">User</text><ellipse cx="22.5" cy="1715.2344" fill="#FEFECE" filter="url(#f13s92bjg1yal0)" rx="8" ry="8" style="stroke:#A80036;stroke-width:2.0;"/><path d="M22.5,1723.2344 L22.5,1750.2344 M9.5,1731.2344 L35.5,1731.2344 M22.5,1750.2344 L9.5,1765.2344 M22.5,1750.2344 L35.5,1765.2344 " fill="none" filter="url(#f13s92bjg1yal0)" style="stroke:#A80036;stroke-width:2.0;"/><rect fill="#FEFECE" filter="url(#f13s92bjg1yal0)" height="31.6094" style="stroke:#A80036;stroke-width:1.5;" width="51" x="60" y="53"/><text fill="#000000" font-family="sans-serif" font-size="14" lengthAdjust="spacing" textLength="37" x="67" y="74.5332">Demo</text><rect fill="#FEFECE" filter="url(#f13s92bjg1yal0)" height="31.6094" style="stroke:#A80036;stroke-width:1.5;" width="51" x="60" y="1687.625"/><text fill="#000000" font-family="sans-serif" font-size="14" lengthAdjust="spacing" textLength="37" x="67" y="1709.1582">Demo</text><rect fill="#FEFECE" filter="url(#f13s92bjg1yal0)" height="31.6094" style="stroke:#A80036;stroke-width:1.5;" width="125" x="172" y="53"/><text fill="#000000" font-family="sans-serif" font-size="14" lengthAdjust="spacing" textLength="111" x="179" y="74.5332">Food_recognition</text><rect fill="#FEFECE" filter="url(#f13s92bjg1yal0)" height="31.6094" style="stroke:#A80036;stroke-width:1.5;" width="125" x="172" y="1687.625"/><text fill="#000000" font-family="sans-serif" font-size="14" lengthAdjust="spacing" textLength="111" x="179" y="1709.1582">Food_recognition</text><rect fill="#FEFECE" filter="url(#f13s92bjg1yal0)" height="31.6094" style="stroke:#A80036;stroke-width:1.5;" width="108" x="610.5" y="1687.625"/><text fill="#000000" font-family="sans-serif" font-size="14" lengthAdjust="spacing" textLength="94" x="617.5" y="1709.1582">MeatballDetect</text><rect fill="#FEFECE" filter="url(#f13s92bjg1yal0)" height="31.6094" style="stroke:#A80036;stroke-width:1.5;" width="91" x="871" y="1687.625"/><text fill="#000000" font-family="sans-serif" font-size="14" lengthAdjust="spacing" textLength="77" x="878" y="1709.1582">PastaDetect</text><rect fill="#FEFECE" filter="url(#f13s92bjg1yal0)" height="31.6094" style="stroke:#A80036;stroke-width:1.5;" width="88" x="1060.5" y="1687.625"/><text fill="#000000" font-family="sans-serif" font-size="14" lengthAdjust="spacing" textLength="74" x="1067.5" y="1709.1582">BeanDetect</text><rect fill="#FEFECE" filter="url(#f13s92bjg1yal0)" height="31.6094" style="stroke:#A80036;stroke-width:1.5;" width="39" x="1273" y="1687.625"/><text fill="#000000" font-family="sans-serif" font-size="14" lengthAdjust="spacing" textLength="25" x="1280" y="1709.1582">Pan</text><rect fill="#FEFECE" filter="url(#f13s92bjg1yal0)" height="31.6094" style="stroke:#A80036;stroke-width:1.5;" width="50" x="1398.5" y="1687.625"/><text fill="#000000" font-family="sans-serif" font-size="14" lengthAdjust="spacing" textLength="36" x="1405.5" y="1709.1582">Circle</text><rect fill="#FEFECE" filter="url(#f13s92bjg1yal0)" height="31.6094" style="stroke:#A80036;stroke-width:1.5;" width="67" x="1462.5" y="1687.625"/><text fill="#000000" font-family="sans-serif" font-size="14" lengthAdjust="spacing" textLength="53" x="1469.5" y="1709.1582">Meatball</text><rect fill="#FEFECE" filter="url(#f13s92bjg1yal0)" height="31.6094" style="stroke:#A80036;stroke-width:1.5;" width="47" x="1543.5" y="53"/><text fill="#000000" font-family="sans-serif" font-size="14" lengthAdjust="spacing" textLength="33" x="1550.5" y="74.5332">Food</text><rect fill="#FEFECE" filter="url(#f13s92bjg1yal0)" height="31.6094" style="stroke:#A80036;stroke-width:1.5;" width="47" x="1543.5" y="1687.625"/><text fill="#000000" font-family="sans-serif" font-size="14" lengthAdjust="spacing" textLength="33" x="1550.5" y="1709.1582">Food</text><rect fill="#FFFFFF" filter="url(#f13s92bjg1yal0)" height="1548.6641" style="stroke:#A80036;stroke-width:1.0;" width="10" x="82.5" y="121.9609"/><rect fill="#FFFFFF" filter="url(#f13s92bjg1yal0)" height="886.6953" style="stroke:#A80036;stroke-width:1.0;" width="10" x="231.5" y="446.0625"/><rect fill="#FFFFFF" filter="url(#f13s92bjg1yal0)" height="228.3672" style="stroke:#A80036;stroke-width:1.0;" width="10" x="661.5" y="476.4141"/><rect fill="#FFFFFF" filter="url(#f13s92bjg1yal0)" height="41.3516" style="stroke:#A80036;stroke-width:1.0;" width="10" x="666.5" y="565.4688"/><rect fill="#FFFFFF" filter="url(#f13s92bjg1yal0)" height="268.4609" style="stroke:#A80036;stroke-width:1.0;" width="10" x="913.5" y="735.1328"/><rect fill="#FFFFFF" filter="url(#f13s92bjg1yal0)" height="41.3516" style="stroke:#A80036;stroke-width:1.0;" width="10" x="918.5" y="773.4844"/><rect fill="#FFFFFF" filter="url(#f13s92bjg1yal0)" height="55.3516" style="stroke:#A80036;stroke-width:1.0;" width="10" x="918.5" y="910.8906"/><rect fill="#FFFFFF" filter="url(#f13s92bjg1yal0)" height="268.4609" style="stroke:#A80036;stroke-width:1.0;" width="10" x="1101.5" y="1033.9453"/><rect fill="#FFFFFF" filter="url(#f13s92bjg1yal0)" height="41.3516" style="stroke:#A80036;stroke-width:1.0;" width="10" x="1106.5" y="1072.2969"/><rect fill="#FFFFFF" filter="url(#f13s92bjg1yal0)" height="55.3516" style="stroke:#A80036;stroke-width:1.0;" width="10" x="1106.5" y="1209.7031"/><rect fill="#FFFFFF" filter="url(#f13s92bjg1yal0)" height="76.9609" style="stroke:#A80036;stroke-width:1.0;" width="10" x="1289.5" y="338.75"/><rect fill="#FFFFFF" filter="url(#f13s92bjg1yal0)" height="30.3516" style="stroke:#A80036;stroke-width:1.0;" width="10" x="1564" y="1413.8125"/><rect fill="#FFFFFF" filter="url(#f13s92bjg1yal0)" height="30.3516" style="stroke:#A80036;stroke-width:1.0;" width="10" x="1564" y="1474.5156"/><rect fill="#FFFFFF" filter="url(#f13s92bjg1yal0)" height="30.3516" style="stroke:#A80036;stroke-width:1.0;" width="10" x="1564" y="1535.2188"/><rect fill="#FFFFFF" filter="url(#f13s92bjg1yal0)" height="30.3516" style="stroke:#A80036;stroke-width:1.0;" width="10" x="1564" y="1595.9219"/><polygon fill="#A80036" points="70.5,117.9609,80.5,121.9609,70.5,125.9609,74.5,121.9609" style="stroke:#A80036;stroke-width:1.0;"/><line style="stroke:#A80036;stroke-width:1.0;" x1="22.5" x2="76.5" y1="121.9609" y2="121.9609"/><text fill="#000000" font-family="sans-serif" font-size="13" lengthAdjust="spacing" textLength="35" x="29.5" y="117.1045">image</text><polygon fill="#A80036" points="598.5,148.3125,608.5,152.3125,598.5,156.3125,602.5,152.3125" style="stroke:#A80036;stroke-width:1.0;"/><line style="stroke:#A80036;stroke-width:1.0;" x1="92.5" x2="604.5" y1="152.3125" y2="152.3125"/><text fill="#000000" font-family="sans-serif" font-size="13" lengthAdjust="spacing" textLength="32" x="99.5" y="147.4561">init(0)</text><rect fill="#FEFECE" filter="url(#f13s92bjg1yal0)" height="31.6094" style="stroke:#A80036;stroke-width:1.5;" width="108" x="610.5" y="129.9609"/><text fill="#000000" font-family="sans-serif" font-size="14" lengthAdjust="spacing" textLength="94" x="617.5" y="151.4941">MeatballDetect</text><polygon fill="#A80036" points="859,194.9219,869,198.9219,859,202.9219,863,198.9219" style="stroke:#A80036;stroke-width:1.0;"/><line style="stroke:#A80036;stroke-width:1.0;" x1="92.5" x2="865" y1="198.9219" y2="198.9219"/><text fill="#000000" font-family="sans-serif" font-size="13" lengthAdjust="spacing" textLength="32" x="99.5" y="194.0654">init(1)</text><rect fill="#FEFECE" filter="url(#f13s92bjg1yal0)" height="31.6094" style="stroke:#A80036;stroke-width:1.5;" width="91" x="871" y="176.5703"/><text fill="#000000" font-family="sans-serif" font-size="14" lengthAdjust="spacing" textLength="77" x="878" y="198.1035">PastaDetect</text><polygon fill="#A80036" points="1048.5,241.5313,1058.5,245.5313,1048.5,249.5313,1052.5,245.5313" style="stroke:#A80036;stroke-width:1.0;"/><line style="stroke:#A80036;stroke-width:1.0;" x1="92.5" x2="1054.5" y1="245.5313" y2="245.5313"/><text fill="#000000" font-family="sans-serif" font-size="13" lengthAdjust="spacing" textLength="32" x="99.5" y="240.6748">init(2)</text><rect fill="#FEFECE" filter="url(#f13s92bjg1yal0)" height="31.6094" style="stroke:#A80036;stroke-width:1.5;" width="88" x="1060.5" y="223.1797"/><text fill="#000000" font-family="sans-serif" font-size="14" lengthAdjust="spacing" textLength="74" x="1067.5" y="244.7129">BeanDetect</text><polygon fill="#A80036" points="1261,288.1406,1271,292.1406,1261,296.1406,1265,292.1406" style="stroke:#A80036;stroke-width:1.0;"/><line style="stroke:#A80036;stroke-width:1.0;" x1="92.5" x2="1267" y1="292.1406" y2="292.1406"/><text fill="#000000" font-family="sans-serif" font-size="13" lengthAdjust="spacing" textLength="66" x="99.5" y="287.2842">Pan(image)</text><rect fill="#FEFECE" filter="url(#f13s92bjg1yal0)" height="31.6094" style="stroke:#A80036;stroke-width:1.5;" width="39" x="1273" y="269.7891"/><text fill="#000000" font-family="sans-serif" font-size="14" lengthAdjust="spacing" textLength="25" x="1280" y="291.3223">Pan</text><polygon fill="#A80036" points="1277.5,334.75,1287.5,338.75,1277.5,342.75,1281.5,338.75" style="stroke:#A80036;stroke-width:1.0;"/><line style="stroke:#A80036;stroke-width:1.0;" x1="92.5" x2="1283.5" y1="338.75" y2="338.75"/><text fill="#000000" font-family="sans-serif" font-size="13" lengthAdjust="spacing" textLength="72" x="99.5" y="333.8936">getMasked()</text><polygon fill="#A80036" points="1386.5,365.1016,1396.5,369.1016,1386.5,373.1016,1390.5,369.1016" style="stroke:#A80036;stroke-width:1.0;"/><line style="stroke:#A80036;stroke-width:1.0;" x1="1299.5" x2="1392.5" y1="369.1016" y2="369.1016"/><text fill="#000000" font-family="sans-serif" font-size="13" lengthAdjust="spacing" textLength="75" x="1306.5" y="364.2451">Circle(x, y, r)</text><rect fill="#FEFECE" filter="url(#f13s92bjg1yal0)" height="31.6094" style="stroke:#A80036;stroke-width:1.5;" width="50" x="1398.5" y="346.75"/><text fill="#000000" font-family="sans-serif" font-size="14" lengthAdjust="spacing" textLength="36" x="1405.5" y="368.2832">Circle</text><polygon fill="#A80036" points="103.5,411.7109,93.5,415.7109,103.5,419.7109,99.5,415.7109" style="stroke:#A80036;stroke-width:1.0;"/><line style="stroke:#A80036;stroke-width:1.0;stroke-dasharray:2.0,2.0;" x1="97.5" x2="1293.5" y1="415.7109" y2="415.7109"/><text fill="#000000" font-family="sans-serif" font-size="13" lengthAdjust="spacing" textLength="56" x="109.5" y="410.8545">panImage</text><polygon fill="#A80036" points="219.5,442.0625,229.5,446.0625,219.5,450.0625,223.5,446.0625" style="stroke:#A80036;stroke-width:1.0;"/><line style="stroke:#A80036;stroke-width:1.0;" x1="92.5" x2="225.5" y1="446.0625" y2="446.0625"/><text fill="#000000" font-family="sans-serif" font-size="13" lengthAdjust="spacing" textLength="120" x="99.5" y="441.2061">recognize(panImage)</text><polygon fill="#A80036" points="649.5,472.4141,659.5,476.4141,649.5,480.4141,653.5,476.4141" style="stroke:#A80036;stroke-width:1.0;"/><line style="stroke:#A80036;stroke-width:1.0;" x1="241.5" x2="655.5" y1="476.4141" y2="476.4141"/><text fill="#000000" font-family="sans-serif" font-size="13" lengthAdjust="spacing" textLength="401" x="248.5" y="471.5576">findFood(panImage, minH, minS, minV, maxH, maxS, maxV, blurVal)</text><path d="M590.5,491.4141 L651.5,491.4141 L651.5,499.4141 L641.5,509.4141 L590.5,509.4141 L590.5,491.4141 " fill="#EEEEEE" style="stroke:#000000;stroke-width:1.0;"/><rect fill="none" height="184.0156" style="stroke:#000000;stroke-width:2.0;" width="963" x="590.5" y="491.4141"/><text fill="#000000" font-family="sans-serif" font-size="13" font-weight="bold" lengthAdjust="spacing" textLength="16" x="605.5" y="505.9092">alt</text><text fill="#000000" font-family="sans-serif" font-size="11" font-weight="bold" lengthAdjust="spacing" textLength="110" x="666.5" y="504.833">[circles is not None]</text><path d="M600.5,516.7656 L673.5,516.7656 L673.5,524.7656 L663.5,534.7656 L600.5,534.7656 L600.5,516.7656 " fill="#EEEEEE" style="stroke:#000000;stroke-width:1.0;"/><rect fill="none" height="151.6641" style="stroke:#000000;stroke-width:2.0;" width="943" x="600.5" y="516.7656"/><text fill="#000000" font-family="sans-serif" font-size="13" font-weight="bold" lengthAdjust="spacing" textLength="28" x="615.5" y="531.2607">loop</text><text fill="#000000" font-family="sans-serif" font-size="11" font-weight="bold" lengthAdjust="spacing" textLength="64" x="688.5" y="530.1846">[i in circles]</text><line style="stroke:#A80036;stroke-width:1.0;" x1="671.5" x2="718.5" y1="552.4688" y2="552.4688"/><line style="stroke:#A80036;stroke-width:1.0;" x1="718.5" x2="718.5" y1="552.4688" y2="565.4688"/><line style="stroke:#A80036;stroke-width:1.0;" x1="677.5" x2="718.5" y1="565.4688" y2="565.4688"/><polygon fill="#A80036" points="687.5,561.4688,677.5,565.4688,687.5,569.4688,683.5,565.4688" style="stroke:#A80036;stroke-width:1.0;"/><text fill="#000000" font-family="sans-serif" font-size="13" lengthAdjust="spacing" textLength="228" x="683.5" y="547.6123">meatballCrop(maskedMeatballs, x, y, r)</text><line style="stroke:#A80036;stroke-width:1.0;stroke-dasharray:2.0,2.0;" x1="676.5" x2="718.5" y1="605.8203" y2="605.8203"/><line style="stroke:#A80036;stroke-width:1.0;stroke-dasharray:2.0,2.0;" x1="718.5" x2="718.5" y1="605.8203" y2="618.8203"/><line style="stroke:#A80036;stroke-width:1.0;stroke-dasharray:2.0,2.0;" x1="671.5" x2="718.5" y1="618.8203" y2="618.8203"/><polygon fill="#A80036" points="681.5,614.8203,671.5,618.8203,681.5,622.8203,677.5,618.8203" style="stroke:#A80036;stroke-width:1.0;"/><text fill="#000000" font-family="sans-serif" font-size="13" lengthAdjust="spacing" textLength="60" x="683.5" y="600.9639">out, x, y, r</text><polygon fill="#A80036" points="1450.5,640.1719,1460.5,644.1719,1450.5,648.1719,1454.5,644.1719" style="stroke:#A80036;stroke-width:1.0;"/><line style="stroke:#A80036;stroke-width:1.0;" x1="671.5" x2="1456.5" y1="644.1719" y2="644.1719"/><text fill="#000000" font-family="sans-serif" font-size="13" lengthAdjust="spacing" textLength="146" x="678.5" y="639.3154">(meatballImage, x, y, r, r)</text><rect fill="#FEFECE" filter="url(#f13s92bjg1yal0)" height="31.6094" style="stroke:#A80036;stroke-width:1.5;" width="67" x="1462.5" y="621.8203"/><text fill="#000000" font-family="sans-serif" font-size="14" lengthAdjust="spacing" textLength="53" x="1469.5" y="643.3535">Meatball</text><polygon fill="#A80036" points="252.5,700.7813,242.5,704.7813,252.5,708.7813,248.5,704.7813" style="stroke:#A80036;stroke-width:1.0;"/><line style="stroke:#A80036;stroke-width:1.0;stroke-dasharray:2.0,2.0;" x1="246.5" x2="665.5" y1="704.7813" y2="704.7813"/><text fill="#000000" font-family="sans-serif" font-size="13" lengthAdjust="spacing" textLength="56" x="258.5" y="699.9248">meatballs</text><polygon fill="#A80036" points="901.5,731.1328,911.5,735.1328,901.5,739.1328,905.5,735.1328" style="stroke:#A80036;stroke-width:1.0;"/><line style="stroke:#A80036;stroke-width:1.0;" x1="241.5" x2="907.5" y1="735.1328" y2="735.1328"/><text fill="#000000" font-family="sans-serif" font-size="13" lengthAdjust="spacing" textLength="401" x="248.5" y="730.2764">findFood(panImage, minH, minS, minV, maxH, maxS, maxV, blurVal)</text><line style="stroke:#A80036;stroke-width:1.0;" x1="923.5" x2="970.5" y1="760.4844" y2="760.4844"/><line style="stroke:#A80036;stroke-width:1.0;" x1="970.5" x2="970.5" y1="760.4844" y2="773.4844"/><line style="stroke:#A80036;stroke-width:1.0;" x1="929.5" x2="970.5" y1="773.4844" y2="773.4844"/><polygon fill="#A80036" points="939.5,769.4844,929.5,773.4844,939.5,777.4844,935.5,773.4844" style="stroke:#A80036;stroke-width:1.0;"/><text fill="#000000" font-family="sans-serif" font-size="13" lengthAdjust="spacing" textLength="110" x="935.5" y="755.6279">maskImage(image)</text><line style="stroke:#A80036;stroke-width:1.0;stroke-dasharray:2.0,2.0;" x1="928.5" x2="970.5" y1="813.8359" y2="813.8359"/><line style="stroke:#A80036;stroke-width:1.0;stroke-dasharray:2.0,2.0;" x1="970.5" x2="970.5" y1="813.8359" y2="826.8359"/><line style="stroke:#A80036;stroke-width:1.0;stroke-dasharray:2.0,2.0;" x1="923.5" x2="970.5" y1="826.8359" y2="826.8359"/><polygon fill="#A80036" points="933.5,822.8359,923.5,826.8359,933.5,830.8359,929.5,826.8359" style="stroke:#A80036;stroke-width:1.0;"/><text fill="#000000" font-family="sans-serif" font-size="13" lengthAdjust="spacing" textLength="81" x="935.5" y="808.9795">maskedImage</text><path d="M851,836.8359 L924,836.8359 L924,844.8359 L914,854.8359 L851,854.8359 L851,836.8359 " fill="#EEEEEE" style="stroke:#000000;stroke-width:1.0;"/><rect fill="none" height="94.0547" style="stroke:#000000;stroke-width:2.0;" width="292" x="851" y="836.8359"/><text fill="#000000" font-family="sans-serif" font-size="13" font-weight="bold" lengthAdjust="spacing" textLength="28" x="866" y="851.3311">loop</text><text fill="#000000" font-family="sans-serif" font-size="11" font-weight="bold" lengthAdjust="spacing" textLength="77" x="939" y="850.2549">[i in contours]</text><path d="M861,862.1875 L922,862.1875 L922,870.1875 L912,880.1875 L861,880.1875 L861,862.1875 " fill="#EEEEEE" style="stroke:#000000;stroke-width:1.0;"/><rect fill="none" height="61.7031" style="stroke:#000000;stroke-width:2.0;" width="272" x="861" y="862.1875"/><text fill="#000000" font-family="sans-serif" font-size="13" font-weight="bold" lengthAdjust="spacing" textLength="16" x="876" y="876.6826">alt</text><text fill="#000000" font-family="sans-serif" font-size="11" font-weight="bold" lengthAdjust="spacing" textLength="191" x="937" y="875.6064">[maxSize &gt; contourArea &gt; minsize]</text><line style="stroke:#A80036;stroke-width:1.0;" x1="923.5" x2="970.5" y1="897.8906" y2="897.8906"/><line style="stroke:#A80036;stroke-width:1.0;" x1="970.5" x2="970.5" y1="897.8906" y2="910.8906"/><line style="stroke:#A80036;stroke-width:1.0;" x1="929.5" x2="970.5" y1="910.8906" y2="910.8906"/><polygon fill="#A80036" points="939.5,906.8906,929.5,910.8906,939.5,914.8906,935.5,910.8906" style="stroke:#A80036;stroke-width:1.0;"/><text fill="#000000" font-family="sans-serif" font-size="13" lengthAdjust="spacing" textLength="164" x="935.5" y="893.0342">correctFood(contours, cnt, i)</text><line style="stroke:#A80036;stroke-width:1.0;stroke-dasharray:2.0,2.0;" x1="928.5" x2="970.5" y1="965.2422" y2="965.2422"/><line style="stroke:#A80036;stroke-width:1.0;stroke-dasharray:2.0,2.0;" x1="970.5" x2="970.5" y1="965.2422" y2="978.2422"/><line style="stroke:#A80036;stroke-width:1.0;stroke-dasharray:2.0,2.0;" x1="923.5" x2="970.5" y1="978.2422" y2="978.2422"/><polygon fill="#A80036" points="933.5,974.2422,923.5,978.2422,933.5,982.2422,929.5,978.2422" style="stroke:#A80036;stroke-width:1.0;"/><text fill="#000000" font-family="sans-serif" font-size="13" lengthAdjust="spacing" textLength="45" x="935.5" y="960.3857">foodList</text><polygon fill="#A80036" points="252.5,999.5938,242.5,1003.5938,252.5,1007.5938,248.5,1003.5938" style="stroke:#A80036;stroke-width:1.0;"/><line style="stroke:#A80036;stroke-width:1.0;stroke-dasharray:2.0,2.0;" x1="246.5" x2="917.5" y1="1003.5938" y2="1003.5938"/><text fill="#000000" font-family="sans-serif" font-size="13" lengthAdjust="spacing" textLength="32" x="258.5" y="998.7373">pasta</text><polygon fill="#A80036" points="1089.5,1029.9453,1099.5,1033.9453,1089.5,1037.9453,1093.5,1033.9453" style="stroke:#A80036;stroke-width:1.0;"/><line style="stroke:#A80036;stroke-width:1.0;" x1="241.5" x2="1095.5" y1="1033.9453" y2="1033.9453"/><text fill="#000000" font-family="sans-serif" font-size="13" lengthAdjust="spacing" textLength="401" x="248.5" y="1029.0889">findFood(panImage, minH, minS, minV, maxH, maxS, maxV, blurVal)</text><line style="stroke:#A80036;stroke-width:1.0;" x1="1111.5" x2="1158.5" y1="1059.2969" y2="1059.2969"/><line style="stroke:#A80036;stroke-width:1.0;" x1="1158.5" x2="1158.5" y1="1059.2969" y2="1072.2969"/><line style="stroke:#A80036;stroke-width:1.0;" x1="1117.5" x2="1158.5" y1="1072.2969" y2="1072.2969"/><polygon fill="#A80036" points="1127.5,1068.2969,1117.5,1072.2969,1127.5,1076.2969,1123.5,1072.2969" style="stroke:#A80036;stroke-width:1.0;"/><text fill="#000000" font-family="sans-serif" font-size="13" lengthAdjust="spacing" textLength="110" x="1123.5" y="1054.4404">maskImage(image)</text><line style="stroke:#A80036;stroke-width:1.0;stroke-dasharray:2.0,2.0;" x1="1116.5" x2="1158.5" y1="1112.6484" y2="1112.6484"/><line style="stroke:#A80036;stroke-width:1.0;stroke-dasharray:2.0,2.0;" x1="1158.5" x2="1158.5" y1="1112.6484" y2="1125.6484"/><line style="stroke:#A80036;stroke-width:1.0;stroke-dasharray:2.0,2.0;" x1="1111.5" x2="1158.5" y1="1125.6484" y2="1125.6484"/><polygon fill="#A80036" points="1121.5,1121.6484,1111.5,1125.6484,1121.5,1129.6484,1117.5,1125.6484" style="stroke:#A80036;stroke-width:1.0;"/><text fill="#000000" font-family="sans-serif" font-size="13" lengthAdjust="spacing" textLength="81" x="1123.5" y="1107.792">maskedImage</text><path d="M1040.5,1135.6484 L1113.5,1135.6484 L1113.5,1143.6484 L1103.5,1153.6484 L1040.5,1153.6484 L1040.5,1135.6484 " fill="#EEEEEE" style="stroke:#000000;stroke-width:1.0;"/><rect fill="none" height="94.0547" style="stroke:#000000;stroke-width:2.0;" width="292" x="1040.5" y="1135.6484"/><text fill="#000000" font-family="sans-serif" font-size="13" font-weight="bold" lengthAdjust="spacing" textLength="28" x="1055.5" y="1150.1436">loop</text><text fill="#000000" font-family="sans-serif" font-size="11" font-weight="bold" lengthAdjust="spacing" textLength="77" x="1128.5" y="1149.0674">[i in contours]</text><path d="M1050.5,1161 L1111.5,1161 L1111.5,1169 L1101.5,1179 L1050.5,1179 L1050.5,1161 " fill="#EEEEEE" style="stroke:#000000;stroke-width:1.0;"/><rect fill="none" height="61.7031" style="stroke:#000000;stroke-width:2.0;" width="272" x="1050.5" y="1161"/><text fill="#000000" font-family="sans-serif" font-size="13" font-weight="bold" lengthAdjust="spacing" textLength="16" x="1065.5" y="1175.4951">alt</text><text fill="#000000" font-family="sans-serif" font-size="11" font-weight="bold" lengthAdjust="spacing" textLength="191" x="1126.5" y="1174.4189">[maxSize &gt; contourArea &gt; minsize]</text><line style="stroke:#A80036;stroke-width:1.0;" x1="1111.5" x2="1158.5" y1="1196.7031" y2="1196.7031"/><line style="stroke:#A80036;stroke-width:1.0;" x1="1158.5" x2="1158.5" y1="1196.7031" y2="1209.7031"/><line style="stroke:#A80036;stroke-width:1.0;" x1="1117.5" x2="1158.5" y1="1209.7031" y2="1209.7031"/><polygon fill="#A80036" points="1127.5,1205.7031,1117.5,1209.7031,1127.5,1213.7031,1123.5,1209.7031" style="stroke:#A80036;stroke-width:1.0;"/><text fill="#000000" font-family="sans-serif" font-size="13" lengthAdjust="spacing" textLength="164" x="1123.5" y="1191.8467">correctFood(contours, cnt, i)</text><line style="stroke:#A80036;stroke-width:1.0;stroke-dasharray:2.0,2.0;" x1="1116.5" x2="1158.5" y1="1264.0547" y2="1264.0547"/><line style="stroke:#A80036;stroke-width:1.0;stroke-dasharray:2.0,2.0;" x1="1158.5" x2="1158.5" y1="1264.0547" y2="1277.0547"/><line style="stroke:#A80036;stroke-width:1.0;stroke-dasharray:2.0,2.0;" x1="1111.5" x2="1158.5" y1="1277.0547" y2="1277.0547"/><polygon fill="#A80036" points="1121.5,1273.0547,1111.5,1277.0547,1121.5,1281.0547,1117.5,1277.0547" style="stroke:#A80036;stroke-width:1.0;"/><text fill="#000000" font-family="sans-serif" font-size="13" lengthAdjust="spacing" textLength="45" x="1123.5" y="1259.1982">foodList</text><polygon fill="#A80036" points="252.5,1298.4063,242.5,1302.4063,252.5,1306.4063,248.5,1302.4063" style="stroke:#A80036;stroke-width:1.0;"/><line style="stroke:#A80036;stroke-width:1.0;stroke-dasharray:2.0,2.0;" x1="246.5" x2="1105.5" y1="1302.4063" y2="1302.4063"/><text fill="#000000" font-family="sans-serif" font-size="13" lengthAdjust="spacing" textLength="35" x="258.5" y="1297.5498">beans</text><polygon fill="#A80036" points="103.5,1328.7578,93.5,1332.7578,103.5,1336.7578,99.5,1332.7578" style="stroke:#A80036;stroke-width:1.0;"/><line style="stroke:#A80036;stroke-width:1.0;stroke-dasharray:2.0,2.0;" x1="97.5" x2="235.5" y1="1332.7578" y2="1332.7578"/><text fill="#000000" font-family="sans-serif" font-size="13" lengthAdjust="spacing" textLength="31" x="109.5" y="1327.9014">foods</text><path d="M40,1347.7578 L101,1347.7578 L101,1355.7578 L91,1365.7578 L40,1365.7578 L40,1347.7578 " fill="#EEEEEE" style="stroke:#000000;stroke-width:1.0;"/><rect fill="none" height="293.5156" style="stroke:#000000;stroke-width:2.0;" width="1574.5" x="40" y="1347.7578"/><text fill="#000000" font-family="sans-serif" font-size="13" font-weight="bold" lengthAdjust="spacing" textLength="16" x="55" y="1362.2529">alt</text><text fill="#000000" font-family="sans-serif" font-size="11" font-weight="bold" lengthAdjust="spacing" textLength="64" x="116" y="1361.1768">[foods != 0:]</text><path d="M50,1373.1094 L123,1373.1094 L123,1381.1094 L113,1391.1094 L50,1391.1094 L50,1373.1094 " fill="#EEEEEE" style="stroke:#000000;stroke-width:1.0;"/><rect fill="none" height="261.1641" style="stroke:#000000;stroke-width:2.0;" width="1554.5" x="50" y="1373.1094"/><text fill="#000000" font-family="sans-serif" font-size="13" font-weight="bold" lengthAdjust="spacing" textLength="28" x="65" y="1387.6045">loop</text><text fill="#000000" font-family="sans-serif" font-size="11" font-weight="bold" lengthAdjust="spacing" textLength="86" x="138" y="1386.5283">[food in Foods:]</text><polygon fill="#A80036" points="1552,1409.8125,1562,1413.8125,1552,1417.8125,1556,1413.8125" style="stroke:#A80036;stroke-width:1.0;"/><line style="stroke:#A80036;stroke-width:1.0;" x1="92.5" x2="1558" y1="1413.8125" y2="1413.8125"/><text fill="#000000" font-family="sans-serif" font-size="13" lengthAdjust="spacing" textLength="53" x="99.5" y="1408.9561">getArea()</text><polygon fill="#A80036" points="103.5,1440.1641,93.5,1444.1641,103.5,1448.1641,99.5,1444.1641" style="stroke:#A80036;stroke-width:1.0;"/><line style="stroke:#A80036;stroke-width:1.0;stroke-dasharray:2.0,2.0;" x1="97.5" x2="1568" y1="1444.1641" y2="1444.1641"/><text fill="#000000" font-family="sans-serif" font-size="13" lengthAdjust="spacing" textLength="25" x="109.5" y="1439.3076">area</text><polygon fill="#A80036" points="1552,1470.5156,1562,1474.5156,1552,1478.5156,1556,1474.5156" style="stroke:#A80036;stroke-width:1.0;"/><line style="stroke:#A80036;stroke-width:1.0;" x1="92.5" x2="1558" y1="1474.5156" y2="1474.5156"/><text fill="#000000" font-family="sans-serif" font-size="13" lengthAdjust="spacing" textLength="82" x="99.5" y="1469.6592">getPerimeter()</text><polygon fill="#A80036" points="103.5,1500.8672,93.5,1504.8672,103.5,1508.8672,99.5,1504.8672" style="stroke:#A80036;stroke-width:1.0;"/><line style="stroke:#A80036;stroke-width:1.0;stroke-dasharray:2.0,2.0;" x1="97.5" x2="1568" y1="1504.8672" y2="1504.8672"/><text fill="#000000" font-family="sans-serif" font-size="13" lengthAdjust="spacing" textLength="54" x="109.5" y="1500.0107">perimeter</text><polygon fill="#A80036" points="1552,1531.2188,1562,1535.2188,1552,1539.2188,1556,1535.2188" style="stroke:#A80036;stroke-width:1.0;"/><line style="stroke:#A80036;stroke-width:1.0;" x1="92.5" x2="1558" y1="1535.2188" y2="1535.2188"/><text fill="#000000" font-family="sans-serif" font-size="13" lengthAdjust="spacing" textLength="108" x="99.5" y="1530.3623">getProminentHue()</text><polygon fill="#A80036" points="103.5,1561.5703,93.5,1565.5703,103.5,1569.5703,99.5,1565.5703" style="stroke:#A80036;stroke-width:1.0;"/><line style="stroke:#A80036;stroke-width:1.0;stroke-dasharray:2.0,2.0;" x1="97.5" x2="1568" y1="1565.5703" y2="1565.5703"/><text fill="#000000" font-family="sans-serif" font-size="13" lengthAdjust="spacing" textLength="80" x="109.5" y="1560.7139">prominentHue</text><polygon fill="#A80036" points="1552,1591.9219,1562,1595.9219,1552,1599.9219,1556,1595.9219" style="stroke:#A80036;stroke-width:1.0;"/><line style="stroke:#A80036;stroke-width:1.0;" x1="92.5" x2="1558" y1="1595.9219" y2="1595.9219"/><text fill="#000000" font-family="sans-serif" font-size="13" lengthAdjust="spacing" textLength="63" x="99.5" y="1591.0654">getShape()</text><polygon fill="#A80036" points="103.5,1622.2734,93.5,1626.2734,103.5,1630.2734,99.5,1626.2734" style="stroke:#A80036;stroke-width:1.0;"/><line style="stroke:#A80036;stroke-width:1.0;stroke-dasharray:2.0,2.0;" x1="97.5" x2="1568" y1="1626.2734" y2="1626.2734"/><text fill="#000000" font-family="sans-serif" font-size="13" lengthAdjust="spacing" textLength="35" x="109.5" y="1621.417">shape</text><polygon fill="#A80036" points="33.5,1666.625,23.5,1670.625,33.5,1674.625,29.5,1670.625" style="stroke:#A80036;stroke-width:1.0;"/><line style="stroke:#A80036;stroke-width:1.0;stroke-dasharray:2.0,2.0;" x1="27.5" x2="86.5" y1="1670.625" y2="1670.625"/><text fill="#000000" font-family="sans-serif" font-size="13" lengthAdjust="spacing" textLength="36" x="39.5" y="1665.7686">output</text><!--MD5=[cdf410ecdbeea7d9c9d2983c4f436f75]
@startuml Sequence diagram classify food

actor User
participant Demo
participant Food_recognition

User -> Demo ++ : image
Demo -> MeatballDetect ** : init(0)
Demo -> PastaDetect ** : init(1)
Demo -> BeanDetect ** : init(2)
Demo -> Pan ** : Pan(image)
Demo -> Pan ++ : getMasked()
Pan -> Circle ** : Circle(x, y, r)
return panImage
Demo -> Food_recognition ++ : recognize(panImage)
Food_recognition -> MeatballDetect ++ : findFood(panImage, minH, minS, minV, maxH, maxS, maxV, blurVal)
alt circles is not None
    loop i in circles
        MeatballDetect -> MeatballDetect ++ : meatballCrop(maskedMeatballs, x, y, r)
        return out, x, y, r
        MeatballDetect -> Meatball ** : (meatballImage, x, y, r, r)
    end
end
return meatballs
Food_recognition -> PastaDetect ++ : findFood(panImage, minH, minS, minV, maxH, maxS, maxV, blurVal)
PastaDetect -> PastaDetect ++ : maskImage(image)
return maskedImage
loop i in contours
    alt maxSize > contourArea > minsize 
        PastaDetect -> PastaDetect ++ : correctFood(contours, cnt, i)
    end
end
return foodList
return pasta
Food_recognition -> BeanDetect ++ : findFood(panImage, minH, minS, minV, maxH, maxS, maxV, blurVal)
BeanDetect -> BeanDetect ++ : maskImage(image)
return maskedImage
loop i in contours
    alt maxSize > contourArea > minsize 
        BeanDetect -> BeanDetect ++ : correctFood(contours, cnt, i)
    end
end
return foodList
return beans
return foods

alt foods != 0:
    loop food in Foods:
        Demo -> Food ++ : getArea()
        return area
        Demo -> Food ++ : getPerimeter()
        return perimeter
        Demo -> Food ++ : getProminentHue()
        return prominentHue
        Demo -> Food ++ : getShape()
        return shape
    end
end

return output





@enduml

PlantUML version 1.2021.14(Fri Nov 12 17:46:50 CET 2021)
(GPL source distribution)
Java Runtime: Java(TM) SE Runtime Environment
JVM: Java HotSpot(TM) 64-Bit Server VM
Default Encoding: Cp1252
Language: nl
Country: NL
--></g></svg>